M48
INCH,TZ
T1C0.0197
T2C0.0295
T3C0.0300
T4C0.0315
T5C0.0354
T6C0.0394
T7C0.1000
%
G90
G05
T1
X6150Y-20200
X6200Y-6850
X19800Y-8300
X31200Y-18750
X38950Y-18750
X42150Y-19550
X44900Y-8900
X45050Y-13650
X45300Y-15050
X45800Y-13600
X46250Y-13250
X46950Y-15050
X47300Y-13600
X48000Y-11500
X48600Y-10950
X48600Y-12150
X49250Y-11500
X50750Y-19550
X50800Y-11800
X50800Y-16850
X51800Y-11800
X53700Y-14050
X54250Y-12700
X54500Y-17900
X54900Y-16000
X54900Y-18300
X54900Y-18700
X55300Y-12700
X56200Y-12700
X56500Y-17950
X56500Y-19500
X60350Y-8400
X61150Y-8400
X63150Y-17950
X64250Y-12500
X64450Y-8400
X66650Y-14950
X68000Y-14650
X69550Y-14000
X69950Y-14000
X70800Y-14600
X70900Y-13450
X71500Y-15950
X71800Y-13950
X75650Y-18750
X86350Y-18850
X87650Y-15950
X88300Y-13850
X88500Y-15300
X90000Y-13950
X92150Y-11600
X95350Y-13950
X96150Y-8800
X96150Y-10500
X96150Y-16500
X98300Y-11600
X108000Y-10650
X108850Y-10250
X109250Y-10650
X110750Y-19300
X111100Y-14500
X114600Y-8200
X115850Y-8400
X117700Y-16000
X117900Y-17100
X122500Y-12250
X122500Y-13600
X123150Y-11700
X125250Y-13950
X125500Y-16000
X125550Y-18800
X125800Y-17100
X126250Y-18800
X126300Y-8550
X126300Y-9450
X126300Y-10450
X126750Y-16000
X127050Y-13900
X127250Y-17100
X128050Y-16000
X128150Y-17500
X128450Y-13750
X128800Y-16800
X129600Y-17800
X129700Y-16450
X129750Y-13600
X130750Y-15750
X131300Y-9400
X131300Y-10300
X132250Y-9050
X132250Y-10550
X132300Y-9850
X133350Y-11050
X134800Y-10050
X135800Y-8500
X151350Y-11600
X151750Y-18850
X152400Y-17950
X152450Y-10300
X152600Y-14150
X153600Y-11650
X154650Y-10350
X158100Y-19450
X171800Y-14000
X171900Y-16850
X181350Y-18400
X190650Y-18500
X195200Y-7000
X195250Y-20100
T2
X81750Y-9850
X81750Y-10350
X81750Y-10850
X173500Y-13000
X173500Y-13500
X173500Y-14000
X175500Y-13000
X175500Y-13500
X175500Y-14000
T3
X189250Y-7500
X189250Y-19500
X190250Y-7500
X190250Y-19500
X191250Y-7500
X191250Y-19500
X192250Y-7500
X192250Y-19500
X193250Y-7500
X193250Y-19500
X51500Y-7500
X51500Y-19500
X52500Y-7500
X52500Y-19500
X53500Y-7500
X53500Y-19500
X54500Y-7500
X54500Y-19500
X55500Y-7500
X55500Y-19500
X141750Y-7500
X141750Y-19500
X142750Y-7500
X142750Y-19500
X143750Y-7500
X143750Y-19500
X144750Y-7500
X144750Y-19500
X145750Y-7500
X145750Y-19500
X151250Y-7500
X151250Y-19500
X152250Y-7500
X152250Y-19500
X153250Y-7500
X153250Y-19500
X154250Y-7500
X154250Y-19500
X155250Y-7500
X155250Y-19500
X122750Y-7500
X122750Y-19500
X123750Y-7500
X123750Y-19500
X124750Y-7500
X124750Y-19500
X125750Y-7500
X125750Y-19500
X126750Y-7500
X126750Y-19500
X132250Y-7500
X132250Y-19500
X133250Y-7500
X133250Y-19500
X134250Y-7500
X134250Y-19500
X135250Y-7500
X135250Y-19500
X136250Y-7500
X136250Y-19500
X8750Y-7500
X8750Y-19500
X9750Y-7500
X9750Y-19500
X10750Y-7500
X10750Y-19500
X11750Y-7500
X11750Y-19500
X12750Y-7500
X12750Y-19500
X37250Y-7500
X37250Y-19500
X38250Y-7500
X38250Y-19500
X39250Y-7500
X39250Y-19500
X40250Y-7500
X40250Y-19500
X41250Y-7500
X41250Y-19500
X103750Y-7500
X103750Y-19500
X104750Y-7500
X104750Y-19500
X105750Y-7500
X105750Y-19500
X106750Y-7500
X106750Y-19500
X107750Y-7500
X107750Y-19500
X18250Y-7500
X18250Y-19500
X19250Y-7500
X19250Y-19500
X20250Y-7500
X20250Y-19500
X21250Y-7500
X21250Y-19500
X22250Y-7500
X22250Y-19500
X75250Y-7500
X75250Y-19500
X76250Y-7500
X76250Y-19500
X77250Y-7500
X77250Y-19500
X78250Y-7500
X78250Y-19500
X79250Y-7500
X79250Y-19500
X61000Y-7500
X61000Y-19500
X62000Y-7500
X62000Y-19500
X63000Y-7500
X63000Y-19500
X64000Y-7500
X64000Y-19500
X65000Y-7500
X65000Y-19500
X179750Y-7500
X179750Y-19500
X180750Y-7500
X180750Y-19500
X181750Y-7500
X181750Y-19500
X182750Y-7500
X182750Y-19500
X183750Y-7500
X183750Y-19500
X84750Y-7500
X84750Y-19500
X85750Y-7500
X85750Y-19500
X86750Y-7500
X86750Y-19500
X87750Y-7500
X87750Y-19500
X88750Y-7500
X88750Y-19500
X113250Y-7500
X113250Y-19500
X114250Y-7500
X114250Y-19500
X115250Y-7500
X115250Y-19500
X116250Y-7500
X116250Y-19500
X117250Y-7500
X117250Y-19500
X160750Y-7500
X160750Y-19500
X161750Y-7500
X161750Y-19500
X162750Y-7500
X162750Y-19500
X163750Y-7500
X163750Y-19500
X164750Y-7500
X164750Y-19500
X37250Y-7500
X37250Y-19500
X38250Y-7500
X38250Y-19500
X39250Y-7500
X39250Y-19500
X40250Y-7500
X40250Y-19500
X41250Y-7500
X41250Y-19500
X170250Y-7500
X170250Y-19500
X171250Y-7500
X171250Y-19500
X172250Y-7500
X172250Y-19500
X173250Y-7500
X173250Y-19500
X174250Y-7500
X174250Y-19500
X27750Y-7500
X27750Y-19500
X28750Y-7500
X28750Y-19500
X29750Y-7500
X29750Y-19500
X30750Y-7500
X30750Y-19500
X31750Y-7500
X31750Y-19500
T4
X53750Y-12000
X53750Y-15000
X54750Y-12000
X54750Y-15000
X55750Y-12000
X55750Y-15000
X56750Y-12000
X56750Y-15000
X57750Y-12000
X57750Y-15000
X58750Y-12000
X58750Y-15000
X59750Y-12000
X59750Y-15000
X60750Y-12000
X60750Y-15000
X61750Y-12000
X61750Y-15000
X62750Y-12000
X62750Y-15000
X63750Y-12000
X63750Y-15000
X64750Y-12000
X64750Y-15000
X101500Y-12000
X101500Y-15000
X102500Y-12000
X102500Y-15000
X103500Y-12000
X103500Y-15000
X104500Y-12000
X104500Y-15000
X105500Y-12000
X105500Y-15000
X106500Y-12000
X106500Y-15000
X107500Y-12000
X107500Y-15000
X108500Y-12000
X108500Y-15000
X109500Y-12000
X109500Y-15000
X110500Y-12000
X110500Y-15000
X83800Y-10781
X83800Y-12750
X193500Y-10000
X193500Y-11000
X79750Y-9381
X79750Y-11350
X124750Y-12000
X124750Y-15000
X125750Y-12000
X125750Y-15000
X126750Y-12000
X126750Y-15000
X127750Y-12000
X127750Y-15000
X128750Y-12000
X128750Y-15000
X129750Y-12000
X129750Y-15000
X130750Y-12000
X130750Y-15000
X131750Y-12000
X131750Y-15000
X132750Y-12000
X132750Y-15000
X133750Y-12000
X133750Y-15000
X134750Y-12000
X134750Y-15000
X135750Y-12000
X135750Y-15000
X101516Y-10950
X102500Y-10950
X188500Y-11000
X191500Y-11000
X36000Y-10000
X39000Y-10000
T5
X46683Y-16000
X46683Y-17000
X33500Y-10000
X34500Y-10000
X69567Y-10500
X69567Y-11500
X184531Y-11984
X186500Y-11000
X186500Y-12969
X97250Y-10000
X97250Y-11000
X45817Y-10500
X45817Y-11500
X94750Y-10000
X94750Y-11000
X70433Y-16000
X70433Y-17000
X94750Y-16000
X94750Y-17000
X97250Y-16000
X97250Y-17000
T6
X113200Y-11200
X114200Y-11200
X28500Y-11500
X28500Y-12500
X28500Y-13500
X28500Y-14500
X28500Y-15500
T7
X190059Y-15500
X191240Y-13610
X192500Y-15500
T0
M30
