G04 #@! TF.GenerationSoftware,KiCad,Pcbnew,5.0.0*
G04 #@! TF.CreationDate,2018-08-19T00:38:48+01:00*
G04 #@! TF.ProjectId,precision clock,707265636973696F6E20636C6F636B2E,rev?*
G04 #@! TF.SameCoordinates,Original*
G04 #@! TF.FileFunction,Soldermask,Bot*
G04 #@! TF.FilePolarity,Negative*
%FSLAX46Y46*%
G04 Gerber Fmt 4.6, Leading zero omitted, Abs format (unit mm)*
G04 Created by KiCad (PCBNEW 5.0.0) date Sun Aug 19 00:38:48 2018*
%MOMM*%
%LPD*%
G01*
G04 APERTURE LIST*
%ADD10C,1.924000*%
%ADD11C,2.200000*%
%ADD12R,2.200000X2.200000*%
%ADD13C,2.000000*%
%ADD14R,2.100000X2.100000*%
%ADD15O,2.100000X2.100000*%
%ADD16R,2.000000X2.000000*%
%ADD17O,2.000000X2.000000*%
%ADD18O,1.900000X1.450000*%
%ADD19R,1.900000X1.450000*%
%ADD20C,2.020000*%
%ADD21C,4.400000*%
G04 APERTURE END LIST*
D10*
G04 #@! TO.C,DTenSec1*
X104775000Y-49530000D03*
X102235000Y-49530000D03*
X99695000Y-49530000D03*
X97155000Y-49530000D03*
X94615000Y-49530000D03*
X94615000Y-19050000D03*
X97155000Y-19050000D03*
X99695000Y-19050000D03*
X102235000Y-19050000D03*
X104775000Y-19050000D03*
G04 #@! TD*
D11*
G04 #@! TO.C,DColonHM1*
X178900000Y-43180000D03*
D12*
X178900000Y-40640000D03*
G04 #@! TD*
D11*
G04 #@! TO.C,D_BST1*
X247015000Y-43180000D03*
D12*
X247015000Y-40640000D03*
G04 #@! TD*
D11*
G04 #@! TO.C,D_BST2*
X240665000Y-43180000D03*
D12*
X240665000Y-40640000D03*
G04 #@! TD*
D11*
G04 #@! TO.C,D_GMT2*
X247015000Y-27940000D03*
D12*
X247015000Y-25400000D03*
G04 #@! TD*
D11*
G04 #@! TO.C,DColonHM2*
X176700000Y-29210000D03*
D12*
X176700000Y-26670000D03*
G04 #@! TD*
D11*
G04 #@! TO.C,DColonMS1*
X118575000Y-43180000D03*
D12*
X118575000Y-40640000D03*
G04 #@! TD*
D11*
G04 #@! TO.C,DColonMS2*
X116375000Y-29210000D03*
D12*
X116375000Y-26670000D03*
G04 #@! TD*
D11*
G04 #@! TO.C,D_GMT1*
X240665000Y-27940000D03*
D12*
X240665000Y-25400000D03*
G04 #@! TD*
D11*
G04 #@! TO.C,D_PPS1*
X85090000Y-25400000D03*
D12*
X87630000Y-25400000D03*
G04 #@! TD*
D10*
G04 #@! TO.C,DHr1*
X201295000Y-19050000D03*
X198755000Y-19050000D03*
X196215000Y-19050000D03*
X193675000Y-19050000D03*
X191135000Y-19050000D03*
X191135000Y-49530000D03*
X193675000Y-49530000D03*
X196215000Y-49530000D03*
X198755000Y-49530000D03*
X201295000Y-49530000D03*
G04 #@! TD*
G04 #@! TO.C,DCentiSec1*
X32385000Y-19050000D03*
X29845000Y-19050000D03*
X27305000Y-19050000D03*
X24765000Y-19050000D03*
X22225000Y-19050000D03*
X22225000Y-49530000D03*
X24765000Y-49530000D03*
X27305000Y-49530000D03*
X29845000Y-49530000D03*
X32385000Y-49530000D03*
G04 #@! TD*
G04 #@! TO.C,DCentury1*
X466725000Y-19050000D03*
X464185000Y-19050000D03*
X461645000Y-19050000D03*
X459105000Y-19050000D03*
X456565000Y-19050000D03*
X456565000Y-49530000D03*
X459105000Y-49530000D03*
X461645000Y-49530000D03*
X464185000Y-49530000D03*
X466725000Y-49530000D03*
G04 #@! TD*
G04 #@! TO.C,DYear1*
X418465000Y-19050000D03*
X415925000Y-19050000D03*
X413385000Y-19050000D03*
X410845000Y-19050000D03*
X408305000Y-19050000D03*
X408305000Y-49530000D03*
X410845000Y-49530000D03*
X413385000Y-49530000D03*
X415925000Y-49530000D03*
X418465000Y-49530000D03*
G04 #@! TD*
G04 #@! TO.C,DTenSec1*
X104775000Y-19050000D03*
X102235000Y-19050000D03*
X99695000Y-19050000D03*
X97155000Y-19050000D03*
X94615000Y-19050000D03*
X94615000Y-49530000D03*
X97155000Y-49530000D03*
X99695000Y-49530000D03*
X102235000Y-49530000D03*
X104775000Y-49530000D03*
G04 #@! TD*
G04 #@! TO.C,DDay1*
X273685000Y-19050000D03*
X271145000Y-19050000D03*
X268605000Y-19050000D03*
X266065000Y-19050000D03*
X263525000Y-19050000D03*
X263525000Y-49530000D03*
X266065000Y-49530000D03*
X268605000Y-49530000D03*
X271145000Y-49530000D03*
X273685000Y-49530000D03*
G04 #@! TD*
G04 #@! TO.C,DDecade1*
X442595000Y-19050000D03*
X440055000Y-19050000D03*
X437515000Y-19050000D03*
X434975000Y-19050000D03*
X432435000Y-19050000D03*
X432435000Y-49530000D03*
X434975000Y-49530000D03*
X437515000Y-49530000D03*
X440055000Y-49530000D03*
X442595000Y-49530000D03*
G04 #@! TD*
G04 #@! TO.C,DDeciSec1*
X56515000Y-19050000D03*
X53975000Y-19050000D03*
X51435000Y-19050000D03*
X48895000Y-19050000D03*
X46355000Y-19050000D03*
X46355000Y-49530000D03*
X48895000Y-49530000D03*
X51435000Y-49530000D03*
X53975000Y-49530000D03*
X56515000Y-49530000D03*
G04 #@! TD*
G04 #@! TO.C,DHyphenMonth1*
X321945000Y-19050000D03*
X319405000Y-19050000D03*
X316865000Y-19050000D03*
X314325000Y-19050000D03*
X311785000Y-19050000D03*
X311785000Y-49530000D03*
X314325000Y-49530000D03*
X316865000Y-49530000D03*
X319405000Y-49530000D03*
X321945000Y-49530000D03*
G04 #@! TD*
G04 #@! TO.C,DHyphenYear1*
X394335000Y-19050000D03*
X391795000Y-19050000D03*
X389255000Y-19050000D03*
X386715000Y-19050000D03*
X384175000Y-19050000D03*
X384175000Y-49530000D03*
X386715000Y-49530000D03*
X389255000Y-49530000D03*
X391795000Y-49530000D03*
X394335000Y-49530000D03*
G04 #@! TD*
G04 #@! TO.C,DMin1*
X140970000Y-19050000D03*
X138430000Y-19050000D03*
X135890000Y-19050000D03*
X133350000Y-19050000D03*
X130810000Y-19050000D03*
X130810000Y-49530000D03*
X133350000Y-49530000D03*
X135890000Y-49530000D03*
X138430000Y-49530000D03*
X140970000Y-49530000D03*
G04 #@! TD*
G04 #@! TO.C,DMonth1*
X346075000Y-19050000D03*
X343535000Y-19050000D03*
X340995000Y-19050000D03*
X338455000Y-19050000D03*
X335915000Y-19050000D03*
X335915000Y-49530000D03*
X338455000Y-49530000D03*
X340995000Y-49530000D03*
X343535000Y-49530000D03*
X346075000Y-49530000D03*
G04 #@! TD*
G04 #@! TO.C,DSec1*
X80645000Y-19050000D03*
X78105000Y-19050000D03*
X75565000Y-19050000D03*
X73025000Y-19050000D03*
X70485000Y-19050000D03*
X70485000Y-49530000D03*
X73025000Y-49530000D03*
X75565000Y-49530000D03*
X78105000Y-49530000D03*
X80645000Y-49530000D03*
G04 #@! TD*
G04 #@! TO.C,DTenDay1*
X297815000Y-19050000D03*
X295275000Y-19050000D03*
X292735000Y-19050000D03*
X290195000Y-19050000D03*
X287655000Y-19050000D03*
X287655000Y-49530000D03*
X290195000Y-49530000D03*
X292735000Y-49530000D03*
X295275000Y-49530000D03*
X297815000Y-49530000D03*
G04 #@! TD*
G04 #@! TO.C,DTenHr1*
X225425000Y-19050000D03*
X222885000Y-19050000D03*
X220345000Y-19050000D03*
X217805000Y-19050000D03*
X215265000Y-19050000D03*
X215265000Y-49530000D03*
X217805000Y-49530000D03*
X220345000Y-49530000D03*
X222885000Y-49530000D03*
X225425000Y-49530000D03*
G04 #@! TD*
G04 #@! TO.C,DTenMin1*
X165100000Y-19050000D03*
X162560000Y-19050000D03*
X160020000Y-19050000D03*
X157480000Y-19050000D03*
X154940000Y-19050000D03*
X154940000Y-49530000D03*
X157480000Y-49530000D03*
X160020000Y-49530000D03*
X162560000Y-49530000D03*
X165100000Y-49530000D03*
G04 #@! TD*
G04 #@! TO.C,DTenMonth1*
X370205000Y-19050000D03*
X367665000Y-19050000D03*
X365125000Y-19050000D03*
X362585000Y-19050000D03*
X360045000Y-19050000D03*
X360045000Y-49530000D03*
X362585000Y-49530000D03*
X365125000Y-49530000D03*
X367665000Y-49530000D03*
X370205000Y-49530000D03*
G04 #@! TD*
G04 #@! TO.C,DMill1*
X490855000Y-19050000D03*
X488315000Y-19050000D03*
X485775000Y-19050000D03*
X483235000Y-19050000D03*
X480695000Y-19050000D03*
X480695000Y-49530000D03*
X483235000Y-49530000D03*
X485775000Y-49530000D03*
X488315000Y-49530000D03*
X490855000Y-49530000D03*
G04 #@! TD*
D13*
G04 #@! TO.C,C3*
X257850000Y-27813000D03*
X260350000Y-27813000D03*
G04 #@! TD*
G04 #@! TO.C,C1*
X212852000Y-27385000D03*
X212852000Y-32385000D03*
G04 #@! TD*
G04 #@! TO.C,C2*
X202565000Y-23829000D03*
X202565000Y-28829000D03*
G04 #@! TD*
D14*
G04 #@! TO.C,JP1*
X287528000Y-28448000D03*
D15*
X290068000Y-28448000D03*
G04 #@! TD*
D14*
G04 #@! TO.C,U_GPS1*
X72390000Y-29210000D03*
D15*
X72390000Y-31750000D03*
X72390000Y-34290000D03*
X72390000Y-36830000D03*
X72390000Y-39370000D03*
G04 #@! TD*
D13*
G04 #@! TO.C,LDR*
X491490000Y-27940000D03*
X491490000Y-25400000D03*
G04 #@! TD*
D16*
G04 #@! TO.C,U_CONTROL1*
X257810000Y-38100000D03*
D17*
X280670000Y-30480000D03*
X260350000Y-38100000D03*
X278130000Y-30480000D03*
X262890000Y-38100000D03*
X275590000Y-30480000D03*
X265430000Y-38100000D03*
X273050000Y-30480000D03*
X267970000Y-38100000D03*
X270510000Y-30480000D03*
X270510000Y-38100000D03*
X267970000Y-30480000D03*
X273050000Y-38100000D03*
X265430000Y-30480000D03*
X275590000Y-38100000D03*
X262890000Y-30480000D03*
X278130000Y-38100000D03*
X260350000Y-30480000D03*
X280670000Y-38100000D03*
X257810000Y-30480000D03*
G04 #@! TD*
G04 #@! TO.C,UDateDrv1*
X316865000Y-30480000D03*
X344805000Y-38100000D03*
X319405000Y-30480000D03*
X342265000Y-38100000D03*
X321945000Y-30480000D03*
X339725000Y-38100000D03*
X324485000Y-30480000D03*
X337185000Y-38100000D03*
X327025000Y-30480000D03*
X334645000Y-38100000D03*
X329565000Y-30480000D03*
X332105000Y-38100000D03*
X332105000Y-30480000D03*
X329565000Y-38100000D03*
X334645000Y-30480000D03*
X327025000Y-38100000D03*
X337185000Y-30480000D03*
X324485000Y-38100000D03*
X339725000Y-30480000D03*
X321945000Y-38100000D03*
X342265000Y-30480000D03*
X319405000Y-38100000D03*
X344805000Y-30480000D03*
D16*
X316865000Y-38100000D03*
G04 #@! TD*
G04 #@! TO.C,UTimeDrv1*
X136525000Y-38100000D03*
D17*
X164465000Y-30480000D03*
X139065000Y-38100000D03*
X161925000Y-30480000D03*
X141605000Y-38100000D03*
X159385000Y-30480000D03*
X144145000Y-38100000D03*
X156845000Y-30480000D03*
X146685000Y-38100000D03*
X154305000Y-30480000D03*
X149225000Y-38100000D03*
X151765000Y-30480000D03*
X151765000Y-38100000D03*
X149225000Y-30480000D03*
X154305000Y-38100000D03*
X146685000Y-30480000D03*
X156845000Y-38100000D03*
X144145000Y-30480000D03*
X159385000Y-38100000D03*
X141605000Y-30480000D03*
X161925000Y-38100000D03*
X139065000Y-30480000D03*
X164465000Y-38100000D03*
X136525000Y-30480000D03*
G04 #@! TD*
D18*
G04 #@! TO.C,Q2*
X440690000Y-34290000D03*
X440690000Y-33020000D03*
D19*
X440690000Y-35560000D03*
G04 #@! TD*
G04 #@! TO.C,Q1*
X445770000Y-35560000D03*
D18*
X445770000Y-33020000D03*
X445770000Y-34290000D03*
G04 #@! TD*
G04 #@! TO.C,U1*
X207645000Y-26289000D03*
X207645000Y-27559000D03*
D19*
X207645000Y-25019000D03*
G04 #@! TD*
D20*
G04 #@! TO.C,R_Max_Bright1*
X473710000Y-32940000D03*
X468710000Y-30440000D03*
X473710000Y-27940000D03*
G04 #@! TD*
D17*
G04 #@! TO.C,R_PPS1*
X99060000Y-25400000D03*
D13*
X91440000Y-25400000D03*
G04 #@! TD*
D17*
G04 #@! TO.C,R_Min_Bright1*
X478790000Y-27940000D03*
D13*
X486410000Y-27940000D03*
G04 #@! TD*
D21*
G04 #@! TO.C,J1*
X485750000Y-34570000D03*
X488950000Y-39370000D03*
X482750000Y-39370000D03*
G04 #@! TD*
M02*
