G04 #@! TF.GenerationSoftware,KiCad,Pcbnew,5.0.0*
G04 #@! TF.CreationDate,2018-08-19T00:38:48+01:00*
G04 #@! TF.ProjectId,precision clock,707265636973696F6E20636C6F636B2E,rev?*
G04 #@! TF.SameCoordinates,Original*
G04 #@! TF.FileFunction,Legend,Top*
G04 #@! TF.FilePolarity,Positive*
%FSLAX46Y46*%
G04 Gerber Fmt 4.6, Leading zero omitted, Abs format (unit mm)*
G04 Created by KiCad (PCBNEW 5.0.0) date Sun Aug 19 00:38:48 2018*
%MOMM*%
%LPD*%
G01*
G04 APERTURE LIST*
%ADD10C,0.250000*%
%ADD11C,0.300000*%
%ADD12C,0.600000*%
%ADD13C,1.000000*%
%ADD14C,0.200000*%
%ADD15C,0.010000*%
%ADD16C,0.100000*%
%ADD17C,0.120000*%
%ADD18C,0.150000*%
%ADD19C,1.924000*%
%ADD20C,2.200000*%
%ADD21R,2.200000X2.200000*%
%ADD22C,2.000000*%
%ADD23R,2.100000X2.100000*%
%ADD24O,2.100000X2.100000*%
%ADD25R,2.000000X2.000000*%
%ADD26O,2.000000X2.000000*%
%ADD27O,1.900000X1.450000*%
%ADD28R,1.900000X1.450000*%
%ADD29C,2.020000*%
%ADD30C,4.400000*%
G04 APERTURE END LIST*
D10*
X188565023Y-40906809D02*
X189479309Y-40906809D01*
X189022166Y-42506809D02*
X189022166Y-40906809D01*
X190012642Y-42506809D02*
X190012642Y-41440142D01*
X190012642Y-40906809D02*
X189936452Y-40983000D01*
X190012642Y-41059190D01*
X190088833Y-40983000D01*
X190012642Y-40906809D01*
X190012642Y-41059190D01*
X190774547Y-42506809D02*
X190774547Y-41440142D01*
X190774547Y-41592523D02*
X190850738Y-41516333D01*
X191003119Y-41440142D01*
X191231690Y-41440142D01*
X191384071Y-41516333D01*
X191460261Y-41668714D01*
X191460261Y-42506809D01*
X191460261Y-41668714D02*
X191536452Y-41516333D01*
X191688833Y-41440142D01*
X191917404Y-41440142D01*
X192069785Y-41516333D01*
X192145976Y-41668714D01*
X192145976Y-42506809D01*
X194584071Y-40906809D02*
X194584071Y-42049666D01*
X194507880Y-42278238D01*
X194355500Y-42430619D01*
X194126928Y-42506809D01*
X193974547Y-42506809D01*
X196031690Y-42506809D02*
X196031690Y-41668714D01*
X195955500Y-41516333D01*
X195803119Y-41440142D01*
X195498357Y-41440142D01*
X195345976Y-41516333D01*
X196031690Y-42430619D02*
X195879309Y-42506809D01*
X195498357Y-42506809D01*
X195345976Y-42430619D01*
X195269785Y-42278238D01*
X195269785Y-42125857D01*
X195345976Y-41973476D01*
X195498357Y-41897285D01*
X195879309Y-41897285D01*
X196031690Y-41821095D01*
X197479309Y-42430619D02*
X197326928Y-42506809D01*
X197022166Y-42506809D01*
X196869785Y-42430619D01*
X196793595Y-42354428D01*
X196717404Y-42202047D01*
X196717404Y-41744904D01*
X196793595Y-41592523D01*
X196869785Y-41516333D01*
X197022166Y-41440142D01*
X197326928Y-41440142D01*
X197479309Y-41516333D01*
X198393595Y-42506809D02*
X198241214Y-42430619D01*
X198165023Y-42354428D01*
X198088833Y-42202047D01*
X198088833Y-41744904D01*
X198165023Y-41592523D01*
X198241214Y-41516333D01*
X198393595Y-41440142D01*
X198622166Y-41440142D01*
X198774547Y-41516333D01*
X198850738Y-41592523D01*
X198926928Y-41744904D01*
X198926928Y-42202047D01*
X198850738Y-42354428D01*
X198774547Y-42430619D01*
X198622166Y-42506809D01*
X198393595Y-42506809D01*
X199612642Y-42506809D02*
X199612642Y-40906809D01*
X199612642Y-41516333D02*
X199765023Y-41440142D01*
X200069785Y-41440142D01*
X200222166Y-41516333D01*
X200298357Y-41592523D01*
X200374547Y-41744904D01*
X200374547Y-42202047D01*
X200298357Y-42354428D01*
X200222166Y-42430619D01*
X200069785Y-42506809D01*
X199765023Y-42506809D01*
X199612642Y-42430619D01*
X200984071Y-42430619D02*
X201136452Y-42506809D01*
X201441214Y-42506809D01*
X201593595Y-42430619D01*
X201669785Y-42278238D01*
X201669785Y-42202047D01*
X201593595Y-42049666D01*
X201441214Y-41973476D01*
X201212642Y-41973476D01*
X201060261Y-41897285D01*
X200984071Y-41744904D01*
X200984071Y-41668714D01*
X201060261Y-41516333D01*
X201212642Y-41440142D01*
X201441214Y-41440142D01*
X201593595Y-41516333D01*
X204260261Y-42506809D02*
X204260261Y-41668714D01*
X204184071Y-41516333D01*
X204031690Y-41440142D01*
X203726928Y-41440142D01*
X203574547Y-41516333D01*
X204260261Y-42430619D02*
X204107880Y-42506809D01*
X203726928Y-42506809D01*
X203574547Y-42430619D01*
X203498357Y-42278238D01*
X203498357Y-42125857D01*
X203574547Y-41973476D01*
X203726928Y-41897285D01*
X204107880Y-41897285D01*
X204260261Y-41821095D01*
X205022166Y-41440142D02*
X205022166Y-42506809D01*
X205022166Y-41592523D02*
X205098357Y-41516333D01*
X205250738Y-41440142D01*
X205479309Y-41440142D01*
X205631690Y-41516333D01*
X205707880Y-41668714D01*
X205707880Y-42506809D01*
X207155500Y-42506809D02*
X207155500Y-40906809D01*
X207155500Y-42430619D02*
X207003119Y-42506809D01*
X206698357Y-42506809D01*
X206545976Y-42430619D01*
X206469785Y-42354428D01*
X206393595Y-42202047D01*
X206393595Y-41744904D01*
X206469785Y-41592523D01*
X206545976Y-41516333D01*
X206698357Y-41440142D01*
X207003119Y-41440142D01*
X207155500Y-41516333D01*
X208907880Y-40906809D02*
X209822166Y-40906809D01*
X209365023Y-42506809D02*
X209365023Y-40906809D01*
X210584071Y-42506809D02*
X210431690Y-42430619D01*
X210355500Y-42354428D01*
X210279309Y-42202047D01*
X210279309Y-41744904D01*
X210355500Y-41592523D01*
X210431690Y-41516333D01*
X210584071Y-41440142D01*
X210812642Y-41440142D01*
X210965023Y-41516333D01*
X211041214Y-41592523D01*
X211117404Y-41744904D01*
X211117404Y-42202047D01*
X211041214Y-42354428D01*
X210965023Y-42430619D01*
X210812642Y-42506809D01*
X210584071Y-42506809D01*
X211803119Y-42506809D02*
X211803119Y-41440142D01*
X211803119Y-41592523D02*
X211879309Y-41516333D01*
X212031690Y-41440142D01*
X212260261Y-41440142D01*
X212412642Y-41516333D01*
X212488833Y-41668714D01*
X212488833Y-42506809D01*
X212488833Y-41668714D02*
X212565023Y-41516333D01*
X212717404Y-41440142D01*
X212945976Y-41440142D01*
X213098357Y-41516333D01*
X213174547Y-41668714D01*
X213174547Y-42506809D01*
X215079309Y-42430619D02*
X215307880Y-42506809D01*
X215688833Y-42506809D01*
X215841214Y-42430619D01*
X215917404Y-42354428D01*
X215993595Y-42202047D01*
X215993595Y-42049666D01*
X215917404Y-41897285D01*
X215841214Y-41821095D01*
X215688833Y-41744904D01*
X215384071Y-41668714D01*
X215231690Y-41592523D01*
X215155500Y-41516333D01*
X215079309Y-41363952D01*
X215079309Y-41211571D01*
X215155500Y-41059190D01*
X215231690Y-40983000D01*
X215384071Y-40906809D01*
X215765023Y-40906809D01*
X215993595Y-40983000D01*
X216679309Y-41440142D02*
X216679309Y-43040142D01*
X216679309Y-41516333D02*
X216831690Y-41440142D01*
X217136452Y-41440142D01*
X217288833Y-41516333D01*
X217365023Y-41592523D01*
X217441214Y-41744904D01*
X217441214Y-42202047D01*
X217365023Y-42354428D01*
X217288833Y-42430619D01*
X217136452Y-42506809D01*
X216831690Y-42506809D01*
X216679309Y-42430619D01*
X218812642Y-41440142D02*
X218812642Y-42506809D01*
X218126928Y-41440142D02*
X218126928Y-42278238D01*
X218203119Y-42430619D01*
X218355500Y-42506809D01*
X218584071Y-42506809D01*
X218736452Y-42430619D01*
X218812642Y-42354428D01*
X219574547Y-42506809D02*
X219574547Y-41440142D01*
X219574547Y-41744904D02*
X219650738Y-41592523D01*
X219726928Y-41516333D01*
X219879309Y-41440142D01*
X220031690Y-41440142D01*
X220793595Y-42506809D02*
X220641214Y-42430619D01*
X220565023Y-42278238D01*
X220565023Y-40906809D01*
X221403119Y-42506809D02*
X221403119Y-41440142D01*
X221403119Y-40906809D02*
X221326928Y-40983000D01*
X221403119Y-41059190D01*
X221479309Y-40983000D01*
X221403119Y-40906809D01*
X221403119Y-41059190D01*
X222165023Y-41440142D02*
X222165023Y-42506809D01*
X222165023Y-41592523D02*
X222241214Y-41516333D01*
X222393595Y-41440142D01*
X222622166Y-41440142D01*
X222774547Y-41516333D01*
X222850738Y-41668714D01*
X222850738Y-42506809D01*
X224298357Y-41440142D02*
X224298357Y-42735380D01*
X224222166Y-42887761D01*
X224145976Y-42963952D01*
X223993595Y-43040142D01*
X223765023Y-43040142D01*
X223612642Y-42963952D01*
X224298357Y-42430619D02*
X224145976Y-42506809D01*
X223841214Y-42506809D01*
X223688833Y-42430619D01*
X223612642Y-42354428D01*
X223536452Y-42202047D01*
X223536452Y-41744904D01*
X223612642Y-41592523D01*
X223688833Y-41516333D01*
X223841214Y-41440142D01*
X224145976Y-41440142D01*
X224298357Y-41516333D01*
X225136452Y-42430619D02*
X225136452Y-42506809D01*
X225060261Y-42659190D01*
X224984071Y-42735380D01*
X226965023Y-41059190D02*
X227041214Y-40983000D01*
X227193595Y-40906809D01*
X227574547Y-40906809D01*
X227726928Y-40983000D01*
X227803119Y-41059190D01*
X227879309Y-41211571D01*
X227879309Y-41363952D01*
X227803119Y-41592523D01*
X226888833Y-42506809D01*
X227879309Y-42506809D01*
X228869785Y-40906809D02*
X229022166Y-40906809D01*
X229174547Y-40983000D01*
X229250738Y-41059190D01*
X229326928Y-41211571D01*
X229403119Y-41516333D01*
X229403119Y-41897285D01*
X229326928Y-42202047D01*
X229250738Y-42354428D01*
X229174547Y-42430619D01*
X229022166Y-42506809D01*
X228869785Y-42506809D01*
X228717404Y-42430619D01*
X228641214Y-42354428D01*
X228565023Y-42202047D01*
X228488833Y-41897285D01*
X228488833Y-41516333D01*
X228565023Y-41211571D01*
X228641214Y-41059190D01*
X228717404Y-40983000D01*
X228869785Y-40906809D01*
X230926928Y-42506809D02*
X230012642Y-42506809D01*
X230469785Y-42506809D02*
X230469785Y-40906809D01*
X230317404Y-41135380D01*
X230165023Y-41287761D01*
X230012642Y-41363952D01*
X231841214Y-41592523D02*
X231688833Y-41516333D01*
X231612642Y-41440142D01*
X231536452Y-41287761D01*
X231536452Y-41211571D01*
X231612642Y-41059190D01*
X231688833Y-40983000D01*
X231841214Y-40906809D01*
X232145976Y-40906809D01*
X232298357Y-40983000D01*
X232374547Y-41059190D01*
X232450738Y-41211571D01*
X232450738Y-41287761D01*
X232374547Y-41440142D01*
X232298357Y-41516333D01*
X232145976Y-41592523D01*
X231841214Y-41592523D01*
X231688833Y-41668714D01*
X231612642Y-41744904D01*
X231536452Y-41897285D01*
X231536452Y-42202047D01*
X231612642Y-42354428D01*
X231688833Y-42430619D01*
X231841214Y-42506809D01*
X232145976Y-42506809D01*
X232298357Y-42430619D01*
X232374547Y-42354428D01*
X232450738Y-42202047D01*
X232450738Y-41897285D01*
X232374547Y-41744904D01*
X232298357Y-41668714D01*
X232145976Y-41592523D01*
D11*
X45720000Y-44450000D02*
X74930000Y-44450000D01*
X45720000Y-24130000D02*
X45720000Y-44450000D01*
X74930000Y-24130000D02*
X45720000Y-24130000D01*
D10*
X473837047Y-43354761D02*
X472884666Y-43354761D01*
X472789428Y-44307142D01*
X472884666Y-44211904D01*
X473075142Y-44116666D01*
X473551333Y-44116666D01*
X473741809Y-44211904D01*
X473837047Y-44307142D01*
X473932285Y-44497619D01*
X473932285Y-44973809D01*
X473837047Y-45164285D01*
X473741809Y-45259523D01*
X473551333Y-45354761D01*
X473075142Y-45354761D01*
X472884666Y-45259523D01*
X472789428Y-45164285D01*
X474503714Y-43354761D02*
X475170380Y-45354761D01*
X475837047Y-43354761D01*
D11*
X461391000Y-40640000D02*
G75*
G03X461391000Y-40640000I-1397000J0D01*
G01*
X476377000Y-40640000D02*
G75*
G03X476377000Y-40640000I-1397000J0D01*
G01*
X459422571Y-40620142D02*
X460565428Y-40620142D01*
X474408571Y-40620142D02*
X475551428Y-40620142D01*
X474980000Y-41191571D02*
X474980000Y-40048714D01*
D12*
X465455000Y-40640000D02*
X461518000Y-40640000D01*
X467868000Y-40640000D02*
X473456000Y-40640000D01*
X469523877Y-42295877D02*
G75*
G02X469646000Y-39116000I-1655877J1655877D01*
G01*
D13*
X468227210Y-40640000D02*
G75*
G03X468227210Y-40640000I-359210J0D01*
G01*
D10*
X458090000Y-23987142D02*
X458375714Y-24082380D01*
X458470952Y-24177619D01*
X458566190Y-24368095D01*
X458566190Y-24653809D01*
X458470952Y-24844285D01*
X458375714Y-24939523D01*
X458185238Y-25034761D01*
X457423333Y-25034761D01*
X457423333Y-23034761D01*
X458090000Y-23034761D01*
X458280476Y-23130000D01*
X458375714Y-23225238D01*
X458470952Y-23415714D01*
X458470952Y-23606190D01*
X458375714Y-23796666D01*
X458280476Y-23891904D01*
X458090000Y-23987142D01*
X457423333Y-23987142D01*
X460566190Y-25034761D02*
X459899523Y-24082380D01*
X459423333Y-25034761D02*
X459423333Y-23034761D01*
X460185238Y-23034761D01*
X460375714Y-23130000D01*
X460470952Y-23225238D01*
X460566190Y-23415714D01*
X460566190Y-23701428D01*
X460470952Y-23891904D01*
X460375714Y-23987142D01*
X460185238Y-24082380D01*
X459423333Y-24082380D01*
X461423333Y-25034761D02*
X461423333Y-23034761D01*
X463423333Y-23130000D02*
X463232857Y-23034761D01*
X462947142Y-23034761D01*
X462661428Y-23130000D01*
X462470952Y-23320476D01*
X462375714Y-23510952D01*
X462280476Y-23891904D01*
X462280476Y-24177619D01*
X462375714Y-24558571D01*
X462470952Y-24749047D01*
X462661428Y-24939523D01*
X462947142Y-25034761D01*
X463137619Y-25034761D01*
X463423333Y-24939523D01*
X463518571Y-24844285D01*
X463518571Y-24177619D01*
X463137619Y-24177619D01*
X464375714Y-25034761D02*
X464375714Y-23034761D01*
X464375714Y-23987142D02*
X465518571Y-23987142D01*
X465518571Y-25034761D02*
X465518571Y-23034761D01*
X466185238Y-23034761D02*
X467328095Y-23034761D01*
X466756666Y-25034761D02*
X466756666Y-23034761D01*
X467994761Y-25034761D02*
X467994761Y-23034761D01*
X469137619Y-25034761D01*
X469137619Y-23034761D01*
X470090000Y-23987142D02*
X470756666Y-23987142D01*
X471042380Y-25034761D02*
X470090000Y-25034761D01*
X470090000Y-23034761D01*
X471042380Y-23034761D01*
X471804285Y-24939523D02*
X472090000Y-25034761D01*
X472566190Y-25034761D01*
X472756666Y-24939523D01*
X472851904Y-24844285D01*
X472947142Y-24653809D01*
X472947142Y-24463333D01*
X472851904Y-24272857D01*
X472756666Y-24177619D01*
X472566190Y-24082380D01*
X472185238Y-23987142D01*
X471994761Y-23891904D01*
X471899523Y-23796666D01*
X471804285Y-23606190D01*
X471804285Y-23415714D01*
X471899523Y-23225238D01*
X471994761Y-23130000D01*
X472185238Y-23034761D01*
X472661428Y-23034761D01*
X472947142Y-23130000D01*
X473709047Y-24939523D02*
X473994761Y-25034761D01*
X474470952Y-25034761D01*
X474661428Y-24939523D01*
X474756666Y-24844285D01*
X474851904Y-24653809D01*
X474851904Y-24463333D01*
X474756666Y-24272857D01*
X474661428Y-24177619D01*
X474470952Y-24082380D01*
X474090000Y-23987142D01*
X473899523Y-23891904D01*
X473804285Y-23796666D01*
X473709047Y-23606190D01*
X473709047Y-23415714D01*
X473804285Y-23225238D01*
X473899523Y-23130000D01*
X474090000Y-23034761D01*
X474566190Y-23034761D01*
X474851904Y-23130000D01*
D11*
X286929190Y-33416761D02*
X286929190Y-31416761D01*
X287405380Y-31416761D01*
X287691095Y-31512000D01*
X287881571Y-31702476D01*
X287976809Y-31892952D01*
X288072047Y-32273904D01*
X288072047Y-32559619D01*
X287976809Y-32940571D01*
X287881571Y-33131047D01*
X287691095Y-33321523D01*
X287405380Y-33416761D01*
X286929190Y-33416761D01*
X288833952Y-33321523D02*
X289119666Y-33416761D01*
X289595857Y-33416761D01*
X289786333Y-33321523D01*
X289881571Y-33226285D01*
X289976809Y-33035809D01*
X289976809Y-32845333D01*
X289881571Y-32654857D01*
X289786333Y-32559619D01*
X289595857Y-32464380D01*
X289214904Y-32369142D01*
X289024428Y-32273904D01*
X288929190Y-32178666D01*
X288833952Y-31988190D01*
X288833952Y-31797714D01*
X288929190Y-31607238D01*
X289024428Y-31512000D01*
X289214904Y-31416761D01*
X289691095Y-31416761D01*
X289976809Y-31512000D01*
X290548238Y-31416761D02*
X291691095Y-31416761D01*
X291119666Y-33416761D02*
X291119666Y-31416761D01*
X293881571Y-32369142D02*
X294548238Y-32369142D01*
X294833952Y-33416761D02*
X293881571Y-33416761D01*
X293881571Y-31416761D01*
X294833952Y-31416761D01*
X295691095Y-33416761D02*
X295691095Y-31416761D01*
X296833952Y-33416761D01*
X296833952Y-31416761D01*
X297691095Y-32845333D02*
X298643476Y-32845333D01*
X297500619Y-33416761D02*
X298167285Y-31416761D01*
X298833952Y-33416761D01*
X300167285Y-32369142D02*
X300453000Y-32464380D01*
X300548238Y-32559619D01*
X300643476Y-32750095D01*
X300643476Y-33035809D01*
X300548238Y-33226285D01*
X300453000Y-33321523D01*
X300262523Y-33416761D01*
X299500619Y-33416761D01*
X299500619Y-31416761D01*
X300167285Y-31416761D01*
X300357761Y-31512000D01*
X300453000Y-31607238D01*
X300548238Y-31797714D01*
X300548238Y-31988190D01*
X300453000Y-32178666D01*
X300357761Y-32273904D01*
X300167285Y-32369142D01*
X299500619Y-32369142D01*
X302453000Y-33416761D02*
X301500619Y-33416761D01*
X301500619Y-31416761D01*
X303119666Y-32369142D02*
X303786333Y-32369142D01*
X304072047Y-33416761D02*
X303119666Y-33416761D01*
X303119666Y-31416761D01*
X304072047Y-31416761D01*
D14*
X92710000Y-31115000D02*
X90170000Y-31115000D01*
X90170000Y-31115000D02*
X88265000Y-29210000D01*
D11*
X94837809Y-30242000D02*
X94647333Y-30146761D01*
X94361619Y-30146761D01*
X94075904Y-30242000D01*
X93885428Y-30432476D01*
X93790190Y-30622952D01*
X93694952Y-31003904D01*
X93694952Y-31289619D01*
X93790190Y-31670571D01*
X93885428Y-31861047D01*
X94075904Y-32051523D01*
X94361619Y-32146761D01*
X94552095Y-32146761D01*
X94837809Y-32051523D01*
X94933047Y-31956285D01*
X94933047Y-31289619D01*
X94552095Y-31289619D01*
X95790190Y-32146761D02*
X95790190Y-30146761D01*
X96552095Y-30146761D01*
X96742571Y-30242000D01*
X96837809Y-30337238D01*
X96933047Y-30527714D01*
X96933047Y-30813428D01*
X96837809Y-31003904D01*
X96742571Y-31099142D01*
X96552095Y-31194380D01*
X95790190Y-31194380D01*
X97694952Y-32051523D02*
X97980666Y-32146761D01*
X98456857Y-32146761D01*
X98647333Y-32051523D01*
X98742571Y-31956285D01*
X98837809Y-31765809D01*
X98837809Y-31575333D01*
X98742571Y-31384857D01*
X98647333Y-31289619D01*
X98456857Y-31194380D01*
X98075904Y-31099142D01*
X97885428Y-31003904D01*
X97790190Y-30908666D01*
X97694952Y-30718190D01*
X97694952Y-30527714D01*
X97790190Y-30337238D01*
X97885428Y-30242000D01*
X98075904Y-30146761D01*
X98552095Y-30146761D01*
X98837809Y-30242000D01*
X101885428Y-31099142D02*
X101218761Y-31099142D01*
X101218761Y-32146761D02*
X101218761Y-30146761D01*
X102171142Y-30146761D01*
X102933047Y-32146761D02*
X102933047Y-30146761D01*
X103694952Y-30146761D02*
X105028285Y-32146761D01*
X105028285Y-30146761D02*
X103694952Y-32146761D01*
D14*
X90170000Y-31115000D02*
X88265000Y-29210000D01*
X92710000Y-31115000D02*
X90170000Y-31115000D01*
D11*
X59531428Y-31385000D02*
X59340952Y-31289761D01*
X59055238Y-31289761D01*
X58769523Y-31385000D01*
X58579047Y-31575476D01*
X58483809Y-31765952D01*
X58388571Y-32146904D01*
X58388571Y-32432619D01*
X58483809Y-32813571D01*
X58579047Y-33004047D01*
X58769523Y-33194523D01*
X59055238Y-33289761D01*
X59245714Y-33289761D01*
X59531428Y-33194523D01*
X59626666Y-33099285D01*
X59626666Y-32432619D01*
X59245714Y-32432619D01*
X60483809Y-33289761D02*
X60483809Y-31289761D01*
X61245714Y-31289761D01*
X61436190Y-31385000D01*
X61531428Y-31480238D01*
X61626666Y-31670714D01*
X61626666Y-31956428D01*
X61531428Y-32146904D01*
X61436190Y-32242142D01*
X61245714Y-32337380D01*
X60483809Y-32337380D01*
X62388571Y-33194523D02*
X62674285Y-33289761D01*
X63150476Y-33289761D01*
X63340952Y-33194523D01*
X63436190Y-33099285D01*
X63531428Y-32908809D01*
X63531428Y-32718333D01*
X63436190Y-32527857D01*
X63340952Y-32432619D01*
X63150476Y-32337380D01*
X62769523Y-32242142D01*
X62579047Y-32146904D01*
X62483809Y-32051666D01*
X62388571Y-31861190D01*
X62388571Y-31670714D01*
X62483809Y-31480238D01*
X62579047Y-31385000D01*
X62769523Y-31289761D01*
X63245714Y-31289761D01*
X63531428Y-31385000D01*
X75470000Y-38548571D02*
X75970000Y-40048571D01*
X76470000Y-38548571D01*
X77827142Y-39905714D02*
X77755714Y-39977142D01*
X77541428Y-40048571D01*
X77398571Y-40048571D01*
X77184285Y-39977142D01*
X77041428Y-39834285D01*
X76970000Y-39691428D01*
X76898571Y-39405714D01*
X76898571Y-39191428D01*
X76970000Y-38905714D01*
X77041428Y-38762857D01*
X77184285Y-38620000D01*
X77398571Y-38548571D01*
X77541428Y-38548571D01*
X77755714Y-38620000D01*
X77827142Y-38691428D01*
X79327142Y-39905714D02*
X79255714Y-39977142D01*
X79041428Y-40048571D01*
X78898571Y-40048571D01*
X78684285Y-39977142D01*
X78541428Y-39834285D01*
X78470000Y-39691428D01*
X78398571Y-39405714D01*
X78398571Y-39191428D01*
X78470000Y-38905714D01*
X78541428Y-38762857D01*
X78684285Y-38620000D01*
X78898571Y-38548571D01*
X79041428Y-38548571D01*
X79255714Y-38620000D01*
X79327142Y-38691428D01*
X76327142Y-36080000D02*
X76184285Y-36008571D01*
X75970000Y-36008571D01*
X75755714Y-36080000D01*
X75612857Y-36222857D01*
X75541428Y-36365714D01*
X75470000Y-36651428D01*
X75470000Y-36865714D01*
X75541428Y-37151428D01*
X75612857Y-37294285D01*
X75755714Y-37437142D01*
X75970000Y-37508571D01*
X76112857Y-37508571D01*
X76327142Y-37437142D01*
X76398571Y-37365714D01*
X76398571Y-36865714D01*
X76112857Y-36865714D01*
X77041428Y-37508571D02*
X77041428Y-36008571D01*
X77898571Y-37508571D01*
X77898571Y-36008571D01*
X78612857Y-37508571D02*
X78612857Y-36008571D01*
X78970000Y-36008571D01*
X79184285Y-36080000D01*
X79327142Y-36222857D01*
X79398571Y-36365714D01*
X79470000Y-36651428D01*
X79470000Y-36865714D01*
X79398571Y-37151428D01*
X79327142Y-37294285D01*
X79184285Y-37437142D01*
X78970000Y-37508571D01*
X78612857Y-37508571D01*
X75577142Y-33468571D02*
X76434285Y-33468571D01*
X76005714Y-34968571D02*
X76005714Y-33468571D01*
X76791428Y-33468571D02*
X77791428Y-34968571D01*
X77791428Y-33468571D02*
X76791428Y-34968571D01*
X78362857Y-34968571D02*
X78362857Y-33468571D01*
X78720000Y-33468571D01*
X78934285Y-33540000D01*
X79077142Y-33682857D01*
X79148571Y-33825714D01*
X79220000Y-34111428D01*
X79220000Y-34325714D01*
X79148571Y-34611428D01*
X79077142Y-34754285D01*
X78934285Y-34897142D01*
X78720000Y-34968571D01*
X78362857Y-34968571D01*
D10*
X76470000Y-32428571D02*
X75970000Y-31714285D01*
X75612857Y-32428571D02*
X75612857Y-30928571D01*
X76184285Y-30928571D01*
X76327142Y-31000000D01*
X76398571Y-31071428D01*
X76470000Y-31214285D01*
X76470000Y-31428571D01*
X76398571Y-31571428D01*
X76327142Y-31642857D01*
X76184285Y-31714285D01*
X75612857Y-31714285D01*
X76970000Y-30928571D02*
X77970000Y-32428571D01*
X77970000Y-30928571D02*
X76970000Y-32428571D01*
X78541428Y-32428571D02*
X78541428Y-30928571D01*
X78898571Y-30928571D01*
X79112857Y-31000000D01*
X79255714Y-31142857D01*
X79327142Y-31285714D01*
X79398571Y-31571428D01*
X79398571Y-31785714D01*
X79327142Y-32071428D01*
X79255714Y-32214285D01*
X79112857Y-32357142D01*
X78898571Y-32428571D01*
X78541428Y-32428571D01*
D11*
X75612857Y-29888571D02*
X75612857Y-28388571D01*
X76184285Y-28388571D01*
X76327142Y-28460000D01*
X76398571Y-28531428D01*
X76470000Y-28674285D01*
X76470000Y-28888571D01*
X76398571Y-29031428D01*
X76327142Y-29102857D01*
X76184285Y-29174285D01*
X75612857Y-29174285D01*
X77112857Y-29888571D02*
X77112857Y-28388571D01*
X77684285Y-28388571D01*
X77827142Y-28460000D01*
X77898571Y-28531428D01*
X77970000Y-28674285D01*
X77970000Y-28888571D01*
X77898571Y-29031428D01*
X77827142Y-29102857D01*
X77684285Y-29174285D01*
X77112857Y-29174285D01*
X78541428Y-29817142D02*
X78755714Y-29888571D01*
X79112857Y-29888571D01*
X79255714Y-29817142D01*
X79327142Y-29745714D01*
X79398571Y-29602857D01*
X79398571Y-29460000D01*
X79327142Y-29317142D01*
X79255714Y-29245714D01*
X79112857Y-29174285D01*
X78827142Y-29102857D01*
X78684285Y-29031428D01*
X78612857Y-28960000D01*
X78541428Y-28817142D01*
X78541428Y-28674285D01*
X78612857Y-28531428D01*
X78684285Y-28460000D01*
X78827142Y-28388571D01*
X79184285Y-28388571D01*
X79398571Y-28460000D01*
D15*
G04 #@! TO.C,G\002A\002A\002A*
G36*
X365177916Y-18504959D02*
X365151458Y-18531417D01*
X365125000Y-18504959D01*
X365151458Y-18478500D01*
X365177916Y-18504959D01*
X365177916Y-18504959D01*
G37*
X365177916Y-18504959D02*
X365151458Y-18531417D01*
X365125000Y-18504959D01*
X365151458Y-18478500D01*
X365177916Y-18504959D01*
G36*
X383285385Y-25684906D02*
X383440385Y-25714599D01*
X383548077Y-25771735D01*
X383623091Y-25863167D01*
X383680059Y-25995749D01*
X383733612Y-26176333D01*
X383778967Y-26342449D01*
X383866622Y-26677575D01*
X383911264Y-26925488D01*
X383903364Y-27099374D01*
X383833392Y-27212416D01*
X383691819Y-27277799D01*
X383469113Y-27308709D01*
X383155747Y-27318329D01*
X383073199Y-27318900D01*
X382731351Y-27322590D01*
X382339629Y-27329926D01*
X381953884Y-27339730D01*
X381713926Y-27347556D01*
X381400017Y-27355765D01*
X381179017Y-27353116D01*
X381038493Y-27338953D01*
X380966014Y-27312617D01*
X380960333Y-27307667D01*
X380927140Y-27231642D01*
X380914755Y-27082057D01*
X380922245Y-26844928D01*
X380925790Y-26789531D01*
X380963621Y-26435729D01*
X381023035Y-26143185D01*
X381100133Y-25925427D01*
X381191019Y-25795979D01*
X381217245Y-25778015D01*
X381299917Y-25759755D01*
X381470581Y-25740888D01*
X381711415Y-25722720D01*
X382004595Y-25706559D01*
X382332297Y-25693713D01*
X382390221Y-25691951D01*
X382774934Y-25680435D01*
X383068445Y-25675803D01*
X383285385Y-25684906D01*
X383285385Y-25684906D01*
G37*
X383285385Y-25684906D02*
X383440385Y-25714599D01*
X383548077Y-25771735D01*
X383623091Y-25863167D01*
X383680059Y-25995749D01*
X383733612Y-26176333D01*
X383778967Y-26342449D01*
X383866622Y-26677575D01*
X383911264Y-26925488D01*
X383903364Y-27099374D01*
X383833392Y-27212416D01*
X383691819Y-27277799D01*
X383469113Y-27308709D01*
X383155747Y-27318329D01*
X383073199Y-27318900D01*
X382731351Y-27322590D01*
X382339629Y-27329926D01*
X381953884Y-27339730D01*
X381713926Y-27347556D01*
X381400017Y-27355765D01*
X381179017Y-27353116D01*
X381038493Y-27338953D01*
X380966014Y-27312617D01*
X380960333Y-27307667D01*
X380927140Y-27231642D01*
X380914755Y-27082057D01*
X380922245Y-26844928D01*
X380925790Y-26789531D01*
X380963621Y-26435729D01*
X381023035Y-26143185D01*
X381100133Y-25925427D01*
X381191019Y-25795979D01*
X381217245Y-25778015D01*
X381299917Y-25759755D01*
X381470581Y-25740888D01*
X381711415Y-25722720D01*
X382004595Y-25706559D01*
X382332297Y-25693713D01*
X382390221Y-25691951D01*
X382774934Y-25680435D01*
X383068445Y-25675803D01*
X383285385Y-25684906D01*
G36*
X404100274Y-28618091D02*
X404505648Y-28641236D01*
X404982245Y-28685047D01*
X405460119Y-28737922D01*
X405814293Y-28807670D01*
X406116763Y-28935051D01*
X406381405Y-29131166D01*
X406622098Y-29407113D01*
X406852719Y-29773993D01*
X406925289Y-29909766D01*
X407038211Y-30121559D01*
X407144800Y-30310234D01*
X407228408Y-30446757D01*
X407254731Y-30484262D01*
X407368386Y-30696901D01*
X407437729Y-30987705D01*
X407464490Y-31365135D01*
X407464283Y-31509376D01*
X407467718Y-31754569D01*
X407483454Y-31990152D01*
X407508342Y-32173267D01*
X407515392Y-32204906D01*
X407546918Y-32385844D01*
X407529709Y-32513278D01*
X407510779Y-32555213D01*
X407481343Y-32602873D01*
X407441103Y-32634472D01*
X407371684Y-32651997D01*
X407254711Y-32657436D01*
X407071806Y-32652774D01*
X406804595Y-32640001D01*
X406751849Y-32637289D01*
X406463122Y-32617854D01*
X406186898Y-32591214D01*
X405953938Y-32560830D01*
X405795006Y-32530165D01*
X405791458Y-32529210D01*
X405634282Y-32501463D01*
X405377688Y-32476006D01*
X405028073Y-32453266D01*
X404591837Y-32433675D01*
X404164580Y-32420003D01*
X403743685Y-32409200D01*
X403415439Y-32402696D01*
X403166725Y-32400931D01*
X402984429Y-32404340D01*
X402855435Y-32413362D01*
X402766629Y-32428435D01*
X402704896Y-32449995D01*
X402669684Y-32469890D01*
X402561388Y-32597601D01*
X402540515Y-32775121D01*
X402606801Y-32992999D01*
X402688377Y-33139286D01*
X402859473Y-33374453D01*
X403039978Y-33544135D01*
X403269037Y-33681677D01*
X403393245Y-33739701D01*
X403748021Y-33881143D01*
X404072476Y-33971450D01*
X404404863Y-34017323D01*
X404783435Y-34025461D01*
X404984139Y-34018353D01*
X405388325Y-33985262D01*
X405707556Y-33925980D01*
X405960699Y-33834856D01*
X406166620Y-33706240D01*
X406241250Y-33641854D01*
X406357586Y-33555936D01*
X406532534Y-33452304D01*
X406717211Y-33358713D01*
X406938349Y-33268267D01*
X407093076Y-33239769D01*
X407201695Y-33274490D01*
X407284507Y-33373705D01*
X407296381Y-33395017D01*
X407317408Y-33485254D01*
X407333960Y-33654221D01*
X407345891Y-33879442D01*
X407353058Y-34138439D01*
X407355313Y-34408736D01*
X407352513Y-34667855D01*
X407344512Y-34893320D01*
X407331165Y-35062653D01*
X407312327Y-35153378D01*
X407307785Y-35160215D01*
X407231727Y-35195506D01*
X407081826Y-35237937D01*
X406888898Y-35278937D01*
X406866378Y-35282990D01*
X406612387Y-35332612D01*
X406320173Y-35396678D01*
X406056041Y-35460561D01*
X405853180Y-35506981D01*
X405651334Y-35538124D01*
X405422733Y-35556350D01*
X405139604Y-35564021D01*
X404838958Y-35564032D01*
X404551968Y-35560588D01*
X404296361Y-35554964D01*
X404093824Y-35547828D01*
X403966046Y-35539849D01*
X403939375Y-35536302D01*
X403840068Y-35516952D01*
X403668377Y-35484706D01*
X403456061Y-35445511D01*
X403383750Y-35432294D01*
X402931975Y-35338056D01*
X402544616Y-35233000D01*
X402236368Y-35121583D01*
X402053342Y-35028848D01*
X401679121Y-34739293D01*
X401341191Y-34365797D01*
X401052021Y-33927537D01*
X400824081Y-33443689D01*
X400669839Y-32933430D01*
X400659734Y-32885564D01*
X400590468Y-32478912D01*
X400550545Y-32096106D01*
X400541431Y-31761128D01*
X400564592Y-31497960D01*
X400572515Y-31459128D01*
X400612845Y-31274104D01*
X400645975Y-31107154D01*
X400654622Y-31057881D01*
X400681055Y-30949845D01*
X400701551Y-30880406D01*
X402445478Y-30880406D01*
X402488132Y-31069223D01*
X402505911Y-31099359D01*
X402565810Y-31172928D01*
X402643565Y-31212376D01*
X402770897Y-31227587D01*
X402921949Y-31229007D01*
X403103667Y-31222830D01*
X403357529Y-31207760D01*
X403650429Y-31186033D01*
X403949264Y-31159887D01*
X403960559Y-31158811D01*
X404252014Y-31129307D01*
X404456864Y-31103053D01*
X404594056Y-31075617D01*
X404682539Y-31042572D01*
X404741261Y-30999485D01*
X404767538Y-30970150D01*
X404855649Y-30791739D01*
X404846547Y-30589800D01*
X404739436Y-30358736D01*
X404665636Y-30252459D01*
X404478735Y-30035486D01*
X404292080Y-29898943D01*
X404075513Y-29829292D01*
X403798875Y-29812991D01*
X403695069Y-29816711D01*
X403316985Y-29872023D01*
X403010765Y-29999140D01*
X402765656Y-30203721D01*
X402639455Y-30372272D01*
X402495733Y-30649104D01*
X402445478Y-30880406D01*
X400701551Y-30880406D01*
X400734591Y-30768475D01*
X400807119Y-30540239D01*
X400880215Y-30321639D01*
X401014733Y-29961924D01*
X401151975Y-29685683D01*
X401311711Y-29472441D01*
X401513711Y-29301723D01*
X401777743Y-29153056D01*
X402123577Y-29005964D01*
X402166666Y-28989307D01*
X402518598Y-28859917D01*
X402834925Y-28759348D01*
X403133451Y-28686240D01*
X403431981Y-28639233D01*
X403748320Y-28616970D01*
X404100274Y-28618091D01*
X404100274Y-28618091D01*
G37*
X404100274Y-28618091D02*
X404505648Y-28641236D01*
X404982245Y-28685047D01*
X405460119Y-28737922D01*
X405814293Y-28807670D01*
X406116763Y-28935051D01*
X406381405Y-29131166D01*
X406622098Y-29407113D01*
X406852719Y-29773993D01*
X406925289Y-29909766D01*
X407038211Y-30121559D01*
X407144800Y-30310234D01*
X407228408Y-30446757D01*
X407254731Y-30484262D01*
X407368386Y-30696901D01*
X407437729Y-30987705D01*
X407464490Y-31365135D01*
X407464283Y-31509376D01*
X407467718Y-31754569D01*
X407483454Y-31990152D01*
X407508342Y-32173267D01*
X407515392Y-32204906D01*
X407546918Y-32385844D01*
X407529709Y-32513278D01*
X407510779Y-32555213D01*
X407481343Y-32602873D01*
X407441103Y-32634472D01*
X407371684Y-32651997D01*
X407254711Y-32657436D01*
X407071806Y-32652774D01*
X406804595Y-32640001D01*
X406751849Y-32637289D01*
X406463122Y-32617854D01*
X406186898Y-32591214D01*
X405953938Y-32560830D01*
X405795006Y-32530165D01*
X405791458Y-32529210D01*
X405634282Y-32501463D01*
X405377688Y-32476006D01*
X405028073Y-32453266D01*
X404591837Y-32433675D01*
X404164580Y-32420003D01*
X403743685Y-32409200D01*
X403415439Y-32402696D01*
X403166725Y-32400931D01*
X402984429Y-32404340D01*
X402855435Y-32413362D01*
X402766629Y-32428435D01*
X402704896Y-32449995D01*
X402669684Y-32469890D01*
X402561388Y-32597601D01*
X402540515Y-32775121D01*
X402606801Y-32992999D01*
X402688377Y-33139286D01*
X402859473Y-33374453D01*
X403039978Y-33544135D01*
X403269037Y-33681677D01*
X403393245Y-33739701D01*
X403748021Y-33881143D01*
X404072476Y-33971450D01*
X404404863Y-34017323D01*
X404783435Y-34025461D01*
X404984139Y-34018353D01*
X405388325Y-33985262D01*
X405707556Y-33925980D01*
X405960699Y-33834856D01*
X406166620Y-33706240D01*
X406241250Y-33641854D01*
X406357586Y-33555936D01*
X406532534Y-33452304D01*
X406717211Y-33358713D01*
X406938349Y-33268267D01*
X407093076Y-33239769D01*
X407201695Y-33274490D01*
X407284507Y-33373705D01*
X407296381Y-33395017D01*
X407317408Y-33485254D01*
X407333960Y-33654221D01*
X407345891Y-33879442D01*
X407353058Y-34138439D01*
X407355313Y-34408736D01*
X407352513Y-34667855D01*
X407344512Y-34893320D01*
X407331165Y-35062653D01*
X407312327Y-35153378D01*
X407307785Y-35160215D01*
X407231727Y-35195506D01*
X407081826Y-35237937D01*
X406888898Y-35278937D01*
X406866378Y-35282990D01*
X406612387Y-35332612D01*
X406320173Y-35396678D01*
X406056041Y-35460561D01*
X405853180Y-35506981D01*
X405651334Y-35538124D01*
X405422733Y-35556350D01*
X405139604Y-35564021D01*
X404838958Y-35564032D01*
X404551968Y-35560588D01*
X404296361Y-35554964D01*
X404093824Y-35547828D01*
X403966046Y-35539849D01*
X403939375Y-35536302D01*
X403840068Y-35516952D01*
X403668377Y-35484706D01*
X403456061Y-35445511D01*
X403383750Y-35432294D01*
X402931975Y-35338056D01*
X402544616Y-35233000D01*
X402236368Y-35121583D01*
X402053342Y-35028848D01*
X401679121Y-34739293D01*
X401341191Y-34365797D01*
X401052021Y-33927537D01*
X400824081Y-33443689D01*
X400669839Y-32933430D01*
X400659734Y-32885564D01*
X400590468Y-32478912D01*
X400550545Y-32096106D01*
X400541431Y-31761128D01*
X400564592Y-31497960D01*
X400572515Y-31459128D01*
X400612845Y-31274104D01*
X400645975Y-31107154D01*
X400654622Y-31057881D01*
X400681055Y-30949845D01*
X400701551Y-30880406D01*
X402445478Y-30880406D01*
X402488132Y-31069223D01*
X402505911Y-31099359D01*
X402565810Y-31172928D01*
X402643565Y-31212376D01*
X402770897Y-31227587D01*
X402921949Y-31229007D01*
X403103667Y-31222830D01*
X403357529Y-31207760D01*
X403650429Y-31186033D01*
X403949264Y-31159887D01*
X403960559Y-31158811D01*
X404252014Y-31129307D01*
X404456864Y-31103053D01*
X404594056Y-31075617D01*
X404682539Y-31042572D01*
X404741261Y-30999485D01*
X404767538Y-30970150D01*
X404855649Y-30791739D01*
X404846547Y-30589800D01*
X404739436Y-30358736D01*
X404665636Y-30252459D01*
X404478735Y-30035486D01*
X404292080Y-29898943D01*
X404075513Y-29829292D01*
X403798875Y-29812991D01*
X403695069Y-29816711D01*
X403316985Y-29872023D01*
X403010765Y-29999140D01*
X402765656Y-30203721D01*
X402639455Y-30372272D01*
X402495733Y-30649104D01*
X402445478Y-30880406D01*
X400701551Y-30880406D01*
X400734591Y-30768475D01*
X400807119Y-30540239D01*
X400880215Y-30321639D01*
X401014733Y-29961924D01*
X401151975Y-29685683D01*
X401311711Y-29472441D01*
X401513711Y-29301723D01*
X401777743Y-29153056D01*
X402123577Y-29005964D01*
X402166666Y-28989307D01*
X402518598Y-28859917D01*
X402834925Y-28759348D01*
X403133451Y-28686240D01*
X403431981Y-28639233D01*
X403748320Y-28616970D01*
X404100274Y-28618091D01*
G36*
X382974611Y-28383314D02*
X383137156Y-28390024D01*
X383203932Y-28397627D01*
X383295176Y-28446357D01*
X383377320Y-28550050D01*
X383453367Y-28717843D01*
X383526321Y-28958873D01*
X383599185Y-29282279D01*
X383674964Y-29697198D01*
X383717979Y-29961417D01*
X383757769Y-30212936D01*
X383796222Y-30454540D01*
X383827076Y-30646931D01*
X383836041Y-30702250D01*
X383861722Y-30914387D01*
X383885014Y-31211703D01*
X383904819Y-31573553D01*
X383920035Y-31979290D01*
X383929565Y-32408268D01*
X383930455Y-32474959D01*
X383930482Y-32685000D01*
X383926795Y-32959950D01*
X383919999Y-33282230D01*
X383910696Y-33634260D01*
X383899487Y-33998458D01*
X383886976Y-34357246D01*
X383873765Y-34693043D01*
X383860457Y-34988270D01*
X383847654Y-35225346D01*
X383835958Y-35386691D01*
X383828646Y-35445684D01*
X383796820Y-35526407D01*
X383728114Y-35581884D01*
X383604202Y-35618139D01*
X383406756Y-35641194D01*
X383196041Y-35653604D01*
X382900215Y-35655085D01*
X382652975Y-35623797D01*
X382441185Y-35566945D01*
X382136360Y-35449719D01*
X381849994Y-35304393D01*
X381606381Y-35145781D01*
X381429816Y-34988692D01*
X381375384Y-34917164D01*
X381185253Y-34531484D01*
X381037029Y-34063217D01*
X380935693Y-33528961D01*
X380919565Y-33398695D01*
X380893154Y-33132478D01*
X380874559Y-32883717D01*
X380865769Y-32683563D01*
X380867200Y-32578486D01*
X380872775Y-32458431D01*
X380878339Y-32254004D01*
X380883472Y-31986664D01*
X380887754Y-31677871D01*
X380890498Y-31387220D01*
X380898094Y-30918190D01*
X380913315Y-30455298D01*
X380935088Y-30011536D01*
X380962336Y-29599896D01*
X380993986Y-29233370D01*
X381028962Y-28924950D01*
X381066189Y-28687627D01*
X381104594Y-28534393D01*
X381130585Y-28485100D01*
X381178930Y-28453308D01*
X381261617Y-28429353D01*
X381393570Y-28411747D01*
X381589713Y-28399002D01*
X381864967Y-28389631D01*
X382148315Y-28383631D01*
X382460249Y-28379854D01*
X382742328Y-28379836D01*
X382974611Y-28383314D01*
X382974611Y-28383314D01*
G37*
X382974611Y-28383314D02*
X383137156Y-28390024D01*
X383203932Y-28397627D01*
X383295176Y-28446357D01*
X383377320Y-28550050D01*
X383453367Y-28717843D01*
X383526321Y-28958873D01*
X383599185Y-29282279D01*
X383674964Y-29697198D01*
X383717979Y-29961417D01*
X383757769Y-30212936D01*
X383796222Y-30454540D01*
X383827076Y-30646931D01*
X383836041Y-30702250D01*
X383861722Y-30914387D01*
X383885014Y-31211703D01*
X383904819Y-31573553D01*
X383920035Y-31979290D01*
X383929565Y-32408268D01*
X383930455Y-32474959D01*
X383930482Y-32685000D01*
X383926795Y-32959950D01*
X383919999Y-33282230D01*
X383910696Y-33634260D01*
X383899487Y-33998458D01*
X383886976Y-34357246D01*
X383873765Y-34693043D01*
X383860457Y-34988270D01*
X383847654Y-35225346D01*
X383835958Y-35386691D01*
X383828646Y-35445684D01*
X383796820Y-35526407D01*
X383728114Y-35581884D01*
X383604202Y-35618139D01*
X383406756Y-35641194D01*
X383196041Y-35653604D01*
X382900215Y-35655085D01*
X382652975Y-35623797D01*
X382441185Y-35566945D01*
X382136360Y-35449719D01*
X381849994Y-35304393D01*
X381606381Y-35145781D01*
X381429816Y-34988692D01*
X381375384Y-34917164D01*
X381185253Y-34531484D01*
X381037029Y-34063217D01*
X380935693Y-33528961D01*
X380919565Y-33398695D01*
X380893154Y-33132478D01*
X380874559Y-32883717D01*
X380865769Y-32683563D01*
X380867200Y-32578486D01*
X380872775Y-32458431D01*
X380878339Y-32254004D01*
X380883472Y-31986664D01*
X380887754Y-31677871D01*
X380890498Y-31387220D01*
X380898094Y-30918190D01*
X380913315Y-30455298D01*
X380935088Y-30011536D01*
X380962336Y-29599896D01*
X380993986Y-29233370D01*
X381028962Y-28924950D01*
X381066189Y-28687627D01*
X381104594Y-28534393D01*
X381130585Y-28485100D01*
X381178930Y-28453308D01*
X381261617Y-28429353D01*
X381393570Y-28411747D01*
X381589713Y-28399002D01*
X381864967Y-28389631D01*
X382148315Y-28383631D01*
X382460249Y-28379854D01*
X382742328Y-28379836D01*
X382974611Y-28383314D01*
G36*
X409378322Y-26273870D02*
X409618304Y-26287095D01*
X409886163Y-26302078D01*
X410125830Y-26316311D01*
X410311886Y-26328231D01*
X410418912Y-26336272D01*
X410421666Y-26336538D01*
X410558604Y-26346456D01*
X410738068Y-26355220D01*
X410792083Y-26357140D01*
X410955757Y-26372502D01*
X411082161Y-26402015D01*
X411109583Y-26414771D01*
X411125445Y-26424348D01*
X411139185Y-26436632D01*
X411151203Y-26459224D01*
X411161900Y-26499728D01*
X411171678Y-26565748D01*
X411180938Y-26664885D01*
X411190081Y-26804744D01*
X411199508Y-26992928D01*
X411209620Y-27237039D01*
X411220819Y-27544681D01*
X411233505Y-27923456D01*
X411248080Y-28380969D01*
X411264945Y-28924822D01*
X411284501Y-29562619D01*
X411296709Y-29961417D01*
X411302354Y-30255989D01*
X411304074Y-30624052D01*
X411302240Y-31049354D01*
X411297225Y-31515646D01*
X411289401Y-32006674D01*
X411279138Y-32506189D01*
X411266808Y-32997938D01*
X411252784Y-33465670D01*
X411237436Y-33893135D01*
X411221137Y-34264080D01*
X411204258Y-34562255D01*
X411187171Y-34771408D01*
X411186583Y-34776834D01*
X411164446Y-34981155D01*
X411139902Y-35211142D01*
X411131681Y-35289068D01*
X411102376Y-35456902D01*
X411059292Y-35583169D01*
X411032622Y-35621496D01*
X410954888Y-35644681D01*
X410787460Y-35667527D01*
X410546470Y-35688471D01*
X410248050Y-35705945D01*
X410096415Y-35712369D01*
X409762822Y-35723335D01*
X409519970Y-35726924D01*
X409352979Y-35722465D01*
X409246970Y-35709292D01*
X409187063Y-35686734D01*
X409168868Y-35670686D01*
X409139604Y-35631925D01*
X409115003Y-35585547D01*
X409093878Y-35520759D01*
X409075041Y-35426770D01*
X409057302Y-35292787D01*
X409039473Y-35108018D01*
X409020365Y-34861671D01*
X408998790Y-34542953D01*
X408973560Y-34141074D01*
X408943486Y-33645240D01*
X408940694Y-33598845D01*
X408929939Y-33365267D01*
X408919906Y-33041884D01*
X408910849Y-32644724D01*
X408903026Y-32189814D01*
X408896692Y-31693182D01*
X408892105Y-31170854D01*
X408889520Y-30638858D01*
X408889057Y-30370928D01*
X408887961Y-29844634D01*
X408885430Y-29323664D01*
X408881637Y-28823385D01*
X408876759Y-28359164D01*
X408870969Y-27946370D01*
X408864443Y-27600369D01*
X408857356Y-27336529D01*
X408853355Y-27233564D01*
X408837478Y-26886952D01*
X408833713Y-26632671D01*
X408852966Y-26457224D01*
X408906147Y-26347117D01*
X409004161Y-26288853D01*
X409157917Y-26268936D01*
X409378322Y-26273870D01*
X409378322Y-26273870D01*
G37*
X409378322Y-26273870D02*
X409618304Y-26287095D01*
X409886163Y-26302078D01*
X410125830Y-26316311D01*
X410311886Y-26328231D01*
X410418912Y-26336272D01*
X410421666Y-26336538D01*
X410558604Y-26346456D01*
X410738068Y-26355220D01*
X410792083Y-26357140D01*
X410955757Y-26372502D01*
X411082161Y-26402015D01*
X411109583Y-26414771D01*
X411125445Y-26424348D01*
X411139185Y-26436632D01*
X411151203Y-26459224D01*
X411161900Y-26499728D01*
X411171678Y-26565748D01*
X411180938Y-26664885D01*
X411190081Y-26804744D01*
X411199508Y-26992928D01*
X411209620Y-27237039D01*
X411220819Y-27544681D01*
X411233505Y-27923456D01*
X411248080Y-28380969D01*
X411264945Y-28924822D01*
X411284501Y-29562619D01*
X411296709Y-29961417D01*
X411302354Y-30255989D01*
X411304074Y-30624052D01*
X411302240Y-31049354D01*
X411297225Y-31515646D01*
X411289401Y-32006674D01*
X411279138Y-32506189D01*
X411266808Y-32997938D01*
X411252784Y-33465670D01*
X411237436Y-33893135D01*
X411221137Y-34264080D01*
X411204258Y-34562255D01*
X411187171Y-34771408D01*
X411186583Y-34776834D01*
X411164446Y-34981155D01*
X411139902Y-35211142D01*
X411131681Y-35289068D01*
X411102376Y-35456902D01*
X411059292Y-35583169D01*
X411032622Y-35621496D01*
X410954888Y-35644681D01*
X410787460Y-35667527D01*
X410546470Y-35688471D01*
X410248050Y-35705945D01*
X410096415Y-35712369D01*
X409762822Y-35723335D01*
X409519970Y-35726924D01*
X409352979Y-35722465D01*
X409246970Y-35709292D01*
X409187063Y-35686734D01*
X409168868Y-35670686D01*
X409139604Y-35631925D01*
X409115003Y-35585547D01*
X409093878Y-35520759D01*
X409075041Y-35426770D01*
X409057302Y-35292787D01*
X409039473Y-35108018D01*
X409020365Y-34861671D01*
X408998790Y-34542953D01*
X408973560Y-34141074D01*
X408943486Y-33645240D01*
X408940694Y-33598845D01*
X408929939Y-33365267D01*
X408919906Y-33041884D01*
X408910849Y-32644724D01*
X408903026Y-32189814D01*
X408896692Y-31693182D01*
X408892105Y-31170854D01*
X408889520Y-30638858D01*
X408889057Y-30370928D01*
X408887961Y-29844634D01*
X408885430Y-29323664D01*
X408881637Y-28823385D01*
X408876759Y-28359164D01*
X408870969Y-27946370D01*
X408864443Y-27600369D01*
X408857356Y-27336529D01*
X408853355Y-27233564D01*
X408837478Y-26886952D01*
X408833713Y-26632671D01*
X408852966Y-26457224D01*
X408906147Y-26347117D01*
X409004161Y-26288853D01*
X409157917Y-26268936D01*
X409378322Y-26273870D01*
G36*
X387834731Y-26493147D02*
X388005395Y-26519713D01*
X388116341Y-26579426D01*
X388182939Y-26683008D01*
X388220560Y-26841180D01*
X388244574Y-27064665D01*
X388255598Y-27196104D01*
X388295953Y-27589043D01*
X388344366Y-27886740D01*
X388403529Y-28099650D01*
X388476135Y-28238226D01*
X388539576Y-28298721D01*
X388664842Y-28348085D01*
X388865794Y-28392403D01*
X389112295Y-28428107D01*
X389374209Y-28451631D01*
X389621397Y-28459410D01*
X389812252Y-28449315D01*
X389992954Y-28437920D01*
X390113923Y-28462398D01*
X390204168Y-28519328D01*
X390252599Y-28565680D01*
X390289563Y-28626535D01*
X390318809Y-28719208D01*
X390344088Y-28861013D01*
X390369150Y-29069264D01*
X390397744Y-29361277D01*
X390406092Y-29451663D01*
X390435750Y-29797100D01*
X390450314Y-30051275D01*
X390447103Y-30228027D01*
X390423436Y-30341197D01*
X390376631Y-30404624D01*
X390304008Y-30432150D01*
X390215079Y-30437667D01*
X390039797Y-30447245D01*
X389812752Y-30473002D01*
X389558908Y-30510476D01*
X389303226Y-30555203D01*
X389070670Y-30602719D01*
X388886202Y-30648560D01*
X388774786Y-30688263D01*
X388759836Y-30697878D01*
X388720444Y-30739841D01*
X388694778Y-30798457D01*
X388681348Y-30892317D01*
X388678667Y-31040014D01*
X388685245Y-31260140D01*
X388695940Y-31496000D01*
X388710223Y-31801199D01*
X388723812Y-32106679D01*
X388735186Y-32377325D01*
X388742824Y-32578021D01*
X388742919Y-32580792D01*
X388775090Y-32930995D01*
X388848253Y-33197480D01*
X388967889Y-33396224D01*
X389050925Y-33478643D01*
X389138489Y-33543920D01*
X389230123Y-33583820D01*
X389354472Y-33604456D01*
X389540181Y-33611941D01*
X389678948Y-33612667D01*
X389907194Y-33618114D01*
X390108086Y-33632629D01*
X390248257Y-33653470D01*
X390276865Y-33661778D01*
X390341587Y-33695605D01*
X390387540Y-33750373D01*
X390416820Y-33841334D01*
X390431525Y-33983740D01*
X390433749Y-34192843D01*
X390425589Y-34483896D01*
X390417433Y-34684488D01*
X390400415Y-34994972D01*
X390379066Y-35213675D01*
X390351367Y-35354625D01*
X390315301Y-35431846D01*
X390308874Y-35438971D01*
X390225682Y-35481540D01*
X390063844Y-35533680D01*
X389849154Y-35587852D01*
X389676128Y-35623920D01*
X389200157Y-35690176D01*
X388681246Y-35720766D01*
X388161368Y-35715237D01*
X387682492Y-35673136D01*
X387518446Y-35647171D01*
X387173363Y-35574892D01*
X386908571Y-35490800D01*
X386698635Y-35378298D01*
X386518121Y-35220790D01*
X386341593Y-35001681D01*
X386193902Y-34782899D01*
X386103167Y-34626161D01*
X386028918Y-34455867D01*
X385969629Y-34260124D01*
X385923773Y-34027040D01*
X385889827Y-33744722D01*
X385866263Y-33401279D01*
X385851556Y-32984817D01*
X385844180Y-32483445D01*
X385842542Y-32044108D01*
X385841959Y-31590321D01*
X385838815Y-31230531D01*
X385830313Y-30952902D01*
X385813657Y-30745597D01*
X385786049Y-30596780D01*
X385744694Y-30494614D01*
X385686795Y-30427264D01*
X385609554Y-30382893D01*
X385510177Y-30349665D01*
X385437496Y-30329813D01*
X385294154Y-30271999D01*
X385196147Y-30198092D01*
X385185215Y-30182051D01*
X385169014Y-30098179D01*
X385158116Y-29933381D01*
X385152257Y-29711704D01*
X385151172Y-29457196D01*
X385154594Y-29193906D01*
X385162261Y-28945881D01*
X385173905Y-28737169D01*
X385189262Y-28591819D01*
X385203334Y-28538395D01*
X385273080Y-28491100D01*
X385407255Y-28439624D01*
X385478067Y-28419649D01*
X385627363Y-28372844D01*
X385736533Y-28308145D01*
X385812123Y-28209540D01*
X385860675Y-28061022D01*
X385888735Y-27846579D01*
X385902847Y-27550201D01*
X385906636Y-27371183D01*
X385914358Y-27054266D01*
X385929950Y-26827878D01*
X385960270Y-26676718D01*
X386012174Y-26585487D01*
X386092522Y-26538884D01*
X386208169Y-26521610D01*
X386288551Y-26519078D01*
X386409081Y-26516746D01*
X386610434Y-26512237D01*
X386867638Y-26506136D01*
X387155720Y-26499025D01*
X387252769Y-26496570D01*
X387588979Y-26489007D01*
X387834731Y-26493147D01*
X387834731Y-26493147D01*
G37*
X387834731Y-26493147D02*
X388005395Y-26519713D01*
X388116341Y-26579426D01*
X388182939Y-26683008D01*
X388220560Y-26841180D01*
X388244574Y-27064665D01*
X388255598Y-27196104D01*
X388295953Y-27589043D01*
X388344366Y-27886740D01*
X388403529Y-28099650D01*
X388476135Y-28238226D01*
X388539576Y-28298721D01*
X388664842Y-28348085D01*
X388865794Y-28392403D01*
X389112295Y-28428107D01*
X389374209Y-28451631D01*
X389621397Y-28459410D01*
X389812252Y-28449315D01*
X389992954Y-28437920D01*
X390113923Y-28462398D01*
X390204168Y-28519328D01*
X390252599Y-28565680D01*
X390289563Y-28626535D01*
X390318809Y-28719208D01*
X390344088Y-28861013D01*
X390369150Y-29069264D01*
X390397744Y-29361277D01*
X390406092Y-29451663D01*
X390435750Y-29797100D01*
X390450314Y-30051275D01*
X390447103Y-30228027D01*
X390423436Y-30341197D01*
X390376631Y-30404624D01*
X390304008Y-30432150D01*
X390215079Y-30437667D01*
X390039797Y-30447245D01*
X389812752Y-30473002D01*
X389558908Y-30510476D01*
X389303226Y-30555203D01*
X389070670Y-30602719D01*
X388886202Y-30648560D01*
X388774786Y-30688263D01*
X388759836Y-30697878D01*
X388720444Y-30739841D01*
X388694778Y-30798457D01*
X388681348Y-30892317D01*
X388678667Y-31040014D01*
X388685245Y-31260140D01*
X388695940Y-31496000D01*
X388710223Y-31801199D01*
X388723812Y-32106679D01*
X388735186Y-32377325D01*
X388742824Y-32578021D01*
X388742919Y-32580792D01*
X388775090Y-32930995D01*
X388848253Y-33197480D01*
X388967889Y-33396224D01*
X389050925Y-33478643D01*
X389138489Y-33543920D01*
X389230123Y-33583820D01*
X389354472Y-33604456D01*
X389540181Y-33611941D01*
X389678948Y-33612667D01*
X389907194Y-33618114D01*
X390108086Y-33632629D01*
X390248257Y-33653470D01*
X390276865Y-33661778D01*
X390341587Y-33695605D01*
X390387540Y-33750373D01*
X390416820Y-33841334D01*
X390431525Y-33983740D01*
X390433749Y-34192843D01*
X390425589Y-34483896D01*
X390417433Y-34684488D01*
X390400415Y-34994972D01*
X390379066Y-35213675D01*
X390351367Y-35354625D01*
X390315301Y-35431846D01*
X390308874Y-35438971D01*
X390225682Y-35481540D01*
X390063844Y-35533680D01*
X389849154Y-35587852D01*
X389676128Y-35623920D01*
X389200157Y-35690176D01*
X388681246Y-35720766D01*
X388161368Y-35715237D01*
X387682492Y-35673136D01*
X387518446Y-35647171D01*
X387173363Y-35574892D01*
X386908571Y-35490800D01*
X386698635Y-35378298D01*
X386518121Y-35220790D01*
X386341593Y-35001681D01*
X386193902Y-34782899D01*
X386103167Y-34626161D01*
X386028918Y-34455867D01*
X385969629Y-34260124D01*
X385923773Y-34027040D01*
X385889827Y-33744722D01*
X385866263Y-33401279D01*
X385851556Y-32984817D01*
X385844180Y-32483445D01*
X385842542Y-32044108D01*
X385841959Y-31590321D01*
X385838815Y-31230531D01*
X385830313Y-30952902D01*
X385813657Y-30745597D01*
X385786049Y-30596780D01*
X385744694Y-30494614D01*
X385686795Y-30427264D01*
X385609554Y-30382893D01*
X385510177Y-30349665D01*
X385437496Y-30329813D01*
X385294154Y-30271999D01*
X385196147Y-30198092D01*
X385185215Y-30182051D01*
X385169014Y-30098179D01*
X385158116Y-29933381D01*
X385152257Y-29711704D01*
X385151172Y-29457196D01*
X385154594Y-29193906D01*
X385162261Y-28945881D01*
X385173905Y-28737169D01*
X385189262Y-28591819D01*
X385203334Y-28538395D01*
X385273080Y-28491100D01*
X385407255Y-28439624D01*
X385478067Y-28419649D01*
X385627363Y-28372844D01*
X385736533Y-28308145D01*
X385812123Y-28209540D01*
X385860675Y-28061022D01*
X385888735Y-27846579D01*
X385902847Y-27550201D01*
X385906636Y-27371183D01*
X385914358Y-27054266D01*
X385929950Y-26827878D01*
X385960270Y-26676718D01*
X386012174Y-26585487D01*
X386092522Y-26538884D01*
X386208169Y-26521610D01*
X386288551Y-26519078D01*
X386409081Y-26516746D01*
X386610434Y-26512237D01*
X386867638Y-26506136D01*
X387155720Y-26499025D01*
X387252769Y-26496570D01*
X387588979Y-26489007D01*
X387834731Y-26493147D01*
G36*
X392694163Y-28325804D02*
X393011769Y-28339070D01*
X393342900Y-28359081D01*
X393667339Y-28384120D01*
X393964869Y-28412469D01*
X394215274Y-28442411D01*
X394398337Y-28472229D01*
X394488875Y-28497572D01*
X394567020Y-28563786D01*
X394686855Y-28699272D01*
X394832349Y-28884596D01*
X394987472Y-29100322D01*
X394994649Y-29110765D01*
X395204670Y-29405588D01*
X395376790Y-29609006D01*
X395525247Y-29721715D01*
X395664280Y-29744410D01*
X395808126Y-29677785D01*
X395971023Y-29522536D01*
X396167208Y-29279358D01*
X396247612Y-29171926D01*
X396408693Y-28963165D01*
X396559523Y-28783379D01*
X396683198Y-28651745D01*
X396762813Y-28587443D01*
X396869899Y-28560559D01*
X397055571Y-28537051D01*
X397298933Y-28517471D01*
X397579087Y-28502375D01*
X397875138Y-28492316D01*
X398166189Y-28487849D01*
X398431341Y-28489526D01*
X398649700Y-28497903D01*
X398800367Y-28513533D01*
X398858434Y-28531886D01*
X398899250Y-28577637D01*
X398913467Y-28636926D01*
X398895626Y-28723016D01*
X398840266Y-28849165D01*
X398741927Y-29028634D01*
X398595148Y-29274684D01*
X398465888Y-29485167D01*
X398318767Y-29725501D01*
X398191038Y-29938244D01*
X398093492Y-30105113D01*
X398036917Y-30207826D01*
X398028173Y-30226858D01*
X397990110Y-30299849D01*
X397906634Y-30442597D01*
X397789373Y-30635711D01*
X397649954Y-30859800D01*
X397622988Y-30902588D01*
X397479545Y-31135484D01*
X397356051Y-31346783D01*
X397264493Y-31515203D01*
X397216856Y-31619463D01*
X397214202Y-31628400D01*
X397202037Y-31747280D01*
X397229929Y-31877559D01*
X397305580Y-32033809D01*
X397436695Y-32230601D01*
X397630977Y-32482506D01*
X397730384Y-32604740D01*
X398163272Y-33136169D01*
X398527924Y-33594291D01*
X398827644Y-33983793D01*
X399065735Y-34309360D01*
X399245502Y-34575679D01*
X399370247Y-34787435D01*
X399443276Y-34949315D01*
X399467891Y-35066003D01*
X399467916Y-35069185D01*
X399450098Y-35201968D01*
X399406801Y-35284271D01*
X399402775Y-35287097D01*
X399314908Y-35310242D01*
X399126553Y-35335078D01*
X398843034Y-35361176D01*
X398469674Y-35388104D01*
X398011796Y-35415433D01*
X397483541Y-35442314D01*
X396742708Y-35477366D01*
X396600524Y-35325537D01*
X396509583Y-35209035D01*
X396391051Y-35030802D01*
X396265987Y-34823101D01*
X396225098Y-34750375D01*
X396064064Y-34482307D01*
X395924072Y-34307861D01*
X395795151Y-34219470D01*
X395667334Y-34209569D01*
X395565312Y-34249594D01*
X395436638Y-34351985D01*
X395320805Y-34490820D01*
X395313958Y-34501567D01*
X395087479Y-34858109D01*
X394904832Y-35125968D01*
X394761917Y-35310822D01*
X394654638Y-35418346D01*
X394648867Y-35422744D01*
X394570003Y-35466956D01*
X394455745Y-35501492D01*
X394287777Y-35529546D01*
X394047781Y-35554312D01*
X393775742Y-35575006D01*
X393442013Y-35601285D01*
X393084436Y-35634698D01*
X392746780Y-35670875D01*
X392482146Y-35704131D01*
X392223548Y-35740673D01*
X392049730Y-35764075D01*
X391940494Y-35774616D01*
X391875641Y-35772573D01*
X391834973Y-35758225D01*
X391798290Y-35731849D01*
X391774635Y-35713874D01*
X391709588Y-35611939D01*
X391665607Y-35434661D01*
X391645237Y-35210896D01*
X391651023Y-34969502D01*
X391685511Y-34739334D01*
X391687812Y-34729563D01*
X391772110Y-34497548D01*
X391906997Y-34328810D01*
X391924990Y-34313192D01*
X392063903Y-34177579D01*
X392182711Y-34031730D01*
X392197376Y-34009641D01*
X392276597Y-33892208D01*
X392405474Y-33709878D01*
X392569752Y-33482114D01*
X392755176Y-33228376D01*
X392947492Y-32968127D01*
X393132446Y-32720827D01*
X393295783Y-32505939D01*
X393351761Y-32433561D01*
X393516142Y-32196050D01*
X393606350Y-31986800D01*
X393620287Y-31787213D01*
X393555855Y-31578687D01*
X393410956Y-31342621D01*
X393198905Y-31078288D01*
X393055684Y-30899386D01*
X392926750Y-30717372D01*
X392848883Y-30587694D01*
X392770821Y-30451186D01*
X392644874Y-30249655D01*
X392484910Y-30004028D01*
X392304794Y-29735233D01*
X392118396Y-29464196D01*
X391939581Y-29211844D01*
X391911406Y-29172956D01*
X391800586Y-28994928D01*
X391750865Y-28830318D01*
X391742083Y-28685339D01*
X391751568Y-28534094D01*
X391791191Y-28431283D01*
X391877703Y-28367773D01*
X392027855Y-28334430D01*
X392258398Y-28322121D01*
X392410298Y-28321000D01*
X392694163Y-28325804D01*
X392694163Y-28325804D01*
G37*
X392694163Y-28325804D02*
X393011769Y-28339070D01*
X393342900Y-28359081D01*
X393667339Y-28384120D01*
X393964869Y-28412469D01*
X394215274Y-28442411D01*
X394398337Y-28472229D01*
X394488875Y-28497572D01*
X394567020Y-28563786D01*
X394686855Y-28699272D01*
X394832349Y-28884596D01*
X394987472Y-29100322D01*
X394994649Y-29110765D01*
X395204670Y-29405588D01*
X395376790Y-29609006D01*
X395525247Y-29721715D01*
X395664280Y-29744410D01*
X395808126Y-29677785D01*
X395971023Y-29522536D01*
X396167208Y-29279358D01*
X396247612Y-29171926D01*
X396408693Y-28963165D01*
X396559523Y-28783379D01*
X396683198Y-28651745D01*
X396762813Y-28587443D01*
X396869899Y-28560559D01*
X397055571Y-28537051D01*
X397298933Y-28517471D01*
X397579087Y-28502375D01*
X397875138Y-28492316D01*
X398166189Y-28487849D01*
X398431341Y-28489526D01*
X398649700Y-28497903D01*
X398800367Y-28513533D01*
X398858434Y-28531886D01*
X398899250Y-28577637D01*
X398913467Y-28636926D01*
X398895626Y-28723016D01*
X398840266Y-28849165D01*
X398741927Y-29028634D01*
X398595148Y-29274684D01*
X398465888Y-29485167D01*
X398318767Y-29725501D01*
X398191038Y-29938244D01*
X398093492Y-30105113D01*
X398036917Y-30207826D01*
X398028173Y-30226858D01*
X397990110Y-30299849D01*
X397906634Y-30442597D01*
X397789373Y-30635711D01*
X397649954Y-30859800D01*
X397622988Y-30902588D01*
X397479545Y-31135484D01*
X397356051Y-31346783D01*
X397264493Y-31515203D01*
X397216856Y-31619463D01*
X397214202Y-31628400D01*
X397202037Y-31747280D01*
X397229929Y-31877559D01*
X397305580Y-32033809D01*
X397436695Y-32230601D01*
X397630977Y-32482506D01*
X397730384Y-32604740D01*
X398163272Y-33136169D01*
X398527924Y-33594291D01*
X398827644Y-33983793D01*
X399065735Y-34309360D01*
X399245502Y-34575679D01*
X399370247Y-34787435D01*
X399443276Y-34949315D01*
X399467891Y-35066003D01*
X399467916Y-35069185D01*
X399450098Y-35201968D01*
X399406801Y-35284271D01*
X399402775Y-35287097D01*
X399314908Y-35310242D01*
X399126553Y-35335078D01*
X398843034Y-35361176D01*
X398469674Y-35388104D01*
X398011796Y-35415433D01*
X397483541Y-35442314D01*
X396742708Y-35477366D01*
X396600524Y-35325537D01*
X396509583Y-35209035D01*
X396391051Y-35030802D01*
X396265987Y-34823101D01*
X396225098Y-34750375D01*
X396064064Y-34482307D01*
X395924072Y-34307861D01*
X395795151Y-34219470D01*
X395667334Y-34209569D01*
X395565312Y-34249594D01*
X395436638Y-34351985D01*
X395320805Y-34490820D01*
X395313958Y-34501567D01*
X395087479Y-34858109D01*
X394904832Y-35125968D01*
X394761917Y-35310822D01*
X394654638Y-35418346D01*
X394648867Y-35422744D01*
X394570003Y-35466956D01*
X394455745Y-35501492D01*
X394287777Y-35529546D01*
X394047781Y-35554312D01*
X393775742Y-35575006D01*
X393442013Y-35601285D01*
X393084436Y-35634698D01*
X392746780Y-35670875D01*
X392482146Y-35704131D01*
X392223548Y-35740673D01*
X392049730Y-35764075D01*
X391940494Y-35774616D01*
X391875641Y-35772573D01*
X391834973Y-35758225D01*
X391798290Y-35731849D01*
X391774635Y-35713874D01*
X391709588Y-35611939D01*
X391665607Y-35434661D01*
X391645237Y-35210896D01*
X391651023Y-34969502D01*
X391685511Y-34739334D01*
X391687812Y-34729563D01*
X391772110Y-34497548D01*
X391906997Y-34328810D01*
X391924990Y-34313192D01*
X392063903Y-34177579D01*
X392182711Y-34031730D01*
X392197376Y-34009641D01*
X392276597Y-33892208D01*
X392405474Y-33709878D01*
X392569752Y-33482114D01*
X392755176Y-33228376D01*
X392947492Y-32968127D01*
X393132446Y-32720827D01*
X393295783Y-32505939D01*
X393351761Y-32433561D01*
X393516142Y-32196050D01*
X393606350Y-31986800D01*
X393620287Y-31787213D01*
X393555855Y-31578687D01*
X393410956Y-31342621D01*
X393198905Y-31078288D01*
X393055684Y-30899386D01*
X392926750Y-30717372D01*
X392848883Y-30587694D01*
X392770821Y-30451186D01*
X392644874Y-30249655D01*
X392484910Y-30004028D01*
X392304794Y-29735233D01*
X392118396Y-29464196D01*
X391939581Y-29211844D01*
X391911406Y-29172956D01*
X391800586Y-28994928D01*
X391750865Y-28830318D01*
X391742083Y-28685339D01*
X391751568Y-28534094D01*
X391791191Y-28431283D01*
X391877703Y-28367773D01*
X392027855Y-28334430D01*
X392258398Y-28322121D01*
X392410298Y-28321000D01*
X392694163Y-28325804D01*
G36*
X373309729Y-28732216D02*
X373638034Y-28737257D01*
X373881656Y-28745421D01*
X374061743Y-28759246D01*
X374199443Y-28781272D01*
X374315904Y-28814039D01*
X374432274Y-28860086D01*
X374454054Y-28869632D01*
X374660254Y-28978923D01*
X374864459Y-29115358D01*
X374954014Y-29188237D01*
X375108119Y-29315362D01*
X375244464Y-29388434D01*
X375385432Y-29406963D01*
X375553407Y-29370458D01*
X375770773Y-29278429D01*
X375993427Y-29165466D01*
X376222549Y-29046925D01*
X376394982Y-28967231D01*
X376544774Y-28916992D01*
X376705971Y-28886817D01*
X376912621Y-28867314D01*
X377123693Y-28853687D01*
X377399207Y-28841688D01*
X377666300Y-28838481D01*
X377889535Y-28844060D01*
X378005490Y-28853819D01*
X378426534Y-28957798D01*
X378786584Y-29144515D01*
X379079265Y-29409106D01*
X379298203Y-29746703D01*
X379358183Y-29886338D01*
X379435571Y-30158432D01*
X379496010Y-30506515D01*
X379537195Y-30901761D01*
X379556820Y-31315344D01*
X379552582Y-31718436D01*
X379529200Y-32025167D01*
X379510410Y-32269693D01*
X379498351Y-32609956D01*
X379493147Y-33036064D01*
X379494926Y-33538128D01*
X379503155Y-34074384D01*
X379534600Y-35620893D01*
X379414226Y-35665422D01*
X379318849Y-35682514D01*
X379140750Y-35698506D01*
X378903040Y-35711874D01*
X378628831Y-35721089D01*
X378546197Y-35722759D01*
X378228933Y-35725742D01*
X378000716Y-35721267D01*
X377844941Y-35708076D01*
X377745004Y-35684914D01*
X377693932Y-35658236D01*
X377661598Y-35628352D01*
X377636066Y-35583620D01*
X377616064Y-35511230D01*
X377600326Y-35398373D01*
X377587580Y-35232241D01*
X377576558Y-35000024D01*
X377565990Y-34688915D01*
X377554608Y-34286104D01*
X377553358Y-34239598D01*
X377541198Y-33862765D01*
X377526010Y-33511916D01*
X377508826Y-33203824D01*
X377490677Y-32955261D01*
X377472593Y-32782998D01*
X377459530Y-32713433D01*
X377418903Y-32525786D01*
X377401671Y-32331329D01*
X377401666Y-32328814D01*
X377387971Y-32179274D01*
X377351859Y-31970532D01*
X377300793Y-31744916D01*
X377294331Y-31719923D01*
X377225540Y-31487569D01*
X377152982Y-31324034D01*
X377057985Y-31193358D01*
X376978880Y-31112354D01*
X376829133Y-30986763D01*
X376698973Y-30927368D01*
X376566475Y-30913917D01*
X376294388Y-30947673D01*
X376025833Y-31038283D01*
X375802910Y-31169761D01*
X375737320Y-31228777D01*
X375682523Y-31291909D01*
X375640424Y-31362586D01*
X375606768Y-31458644D01*
X375577298Y-31597919D01*
X375547760Y-31798245D01*
X375513896Y-32077459D01*
X375494821Y-32245046D01*
X375456431Y-32585628D01*
X375416960Y-32935791D01*
X375380215Y-33261758D01*
X375350003Y-33529755D01*
X375340655Y-33612667D01*
X375318830Y-33864797D01*
X375300991Y-34182566D01*
X375288942Y-34525801D01*
X375284487Y-34854329D01*
X375284489Y-34862958D01*
X375282893Y-35168182D01*
X375276436Y-35384636D01*
X375263343Y-35529336D01*
X375241841Y-35619301D01*
X375210153Y-35671549D01*
X375199089Y-35681840D01*
X375110112Y-35717135D01*
X374934226Y-35744184D01*
X374664557Y-35763785D01*
X374405403Y-35773822D01*
X374061428Y-35780051D01*
X373809018Y-35771753D01*
X373634258Y-35743029D01*
X373523232Y-35687980D01*
X373462024Y-35600705D01*
X373436719Y-35475305D01*
X373432916Y-35361526D01*
X373425940Y-35176329D01*
X373407623Y-34937213D01*
X373381880Y-34694985D01*
X373381016Y-34688058D01*
X373295833Y-34009904D01*
X373221954Y-33428746D01*
X373157553Y-32936566D01*
X373100804Y-32525344D01*
X373049879Y-32187060D01*
X373002953Y-31913697D01*
X372958199Y-31697234D01*
X372913790Y-31529652D01*
X372867899Y-31402933D01*
X372818701Y-31309057D01*
X372764369Y-31240005D01*
X372703075Y-31187757D01*
X372632995Y-31144296D01*
X372565710Y-31108561D01*
X372417553Y-31044493D01*
X372293534Y-31035738D01*
X372161406Y-31066867D01*
X371916104Y-31179008D01*
X371719361Y-31343702D01*
X371598039Y-31537619D01*
X371589171Y-31563878D01*
X371569224Y-31670588D01*
X371545502Y-31862505D01*
X371520052Y-32119161D01*
X371494922Y-32420091D01*
X371474192Y-32713084D01*
X371453107Y-33024417D01*
X371432748Y-33298599D01*
X371414538Y-33518433D01*
X371399900Y-33666722D01*
X371390373Y-33726090D01*
X371379086Y-33787752D01*
X371360964Y-33936528D01*
X371337978Y-34154067D01*
X371312102Y-34422016D01*
X371293684Y-34625674D01*
X371265893Y-34923109D01*
X371238143Y-35187990D01*
X371212759Y-35400342D01*
X371192068Y-35540188D01*
X371182223Y-35582779D01*
X371110170Y-35653681D01*
X370974525Y-35719095D01*
X370817034Y-35763336D01*
X370681250Y-35770973D01*
X370595806Y-35764748D01*
X370432631Y-35756938D01*
X370219790Y-35748800D01*
X370099166Y-35744867D01*
X369810014Y-35733796D01*
X369608265Y-35718032D01*
X369475492Y-35692559D01*
X369393267Y-35652359D01*
X369343160Y-35592418D01*
X369315603Y-35531569D01*
X369275032Y-35379076D01*
X369230517Y-35124031D01*
X369182502Y-34769626D01*
X369131428Y-34319052D01*
X369089830Y-33903709D01*
X369075558Y-33707466D01*
X369062280Y-33435649D01*
X369050126Y-33101183D01*
X369039226Y-32716994D01*
X369029709Y-32296010D01*
X369021706Y-31851156D01*
X369015346Y-31395358D01*
X369010759Y-30941543D01*
X369008075Y-30502638D01*
X369007424Y-30091568D01*
X369008936Y-29721260D01*
X369012741Y-29404639D01*
X369018968Y-29154634D01*
X369027748Y-28984169D01*
X369039210Y-28906170D01*
X369039611Y-28905367D01*
X369124347Y-28849239D01*
X369305500Y-28806991D01*
X369574510Y-28779056D01*
X369922818Y-28765872D01*
X370341865Y-28767873D01*
X370823092Y-28785494D01*
X371093351Y-28800867D01*
X371456956Y-28822190D01*
X371732047Y-28833719D01*
X371935503Y-28835324D01*
X372084203Y-28826872D01*
X372195026Y-28808233D01*
X372251069Y-28791863D01*
X372398062Y-28760569D01*
X372627508Y-28740612D01*
X372947362Y-28731545D01*
X373309729Y-28732216D01*
X373309729Y-28732216D01*
G37*
X373309729Y-28732216D02*
X373638034Y-28737257D01*
X373881656Y-28745421D01*
X374061743Y-28759246D01*
X374199443Y-28781272D01*
X374315904Y-28814039D01*
X374432274Y-28860086D01*
X374454054Y-28869632D01*
X374660254Y-28978923D01*
X374864459Y-29115358D01*
X374954014Y-29188237D01*
X375108119Y-29315362D01*
X375244464Y-29388434D01*
X375385432Y-29406963D01*
X375553407Y-29370458D01*
X375770773Y-29278429D01*
X375993427Y-29165466D01*
X376222549Y-29046925D01*
X376394982Y-28967231D01*
X376544774Y-28916992D01*
X376705971Y-28886817D01*
X376912621Y-28867314D01*
X377123693Y-28853687D01*
X377399207Y-28841688D01*
X377666300Y-28838481D01*
X377889535Y-28844060D01*
X378005490Y-28853819D01*
X378426534Y-28957798D01*
X378786584Y-29144515D01*
X379079265Y-29409106D01*
X379298203Y-29746703D01*
X379358183Y-29886338D01*
X379435571Y-30158432D01*
X379496010Y-30506515D01*
X379537195Y-30901761D01*
X379556820Y-31315344D01*
X379552582Y-31718436D01*
X379529200Y-32025167D01*
X379510410Y-32269693D01*
X379498351Y-32609956D01*
X379493147Y-33036064D01*
X379494926Y-33538128D01*
X379503155Y-34074384D01*
X379534600Y-35620893D01*
X379414226Y-35665422D01*
X379318849Y-35682514D01*
X379140750Y-35698506D01*
X378903040Y-35711874D01*
X378628831Y-35721089D01*
X378546197Y-35722759D01*
X378228933Y-35725742D01*
X378000716Y-35721267D01*
X377844941Y-35708076D01*
X377745004Y-35684914D01*
X377693932Y-35658236D01*
X377661598Y-35628352D01*
X377636066Y-35583620D01*
X377616064Y-35511230D01*
X377600326Y-35398373D01*
X377587580Y-35232241D01*
X377576558Y-35000024D01*
X377565990Y-34688915D01*
X377554608Y-34286104D01*
X377553358Y-34239598D01*
X377541198Y-33862765D01*
X377526010Y-33511916D01*
X377508826Y-33203824D01*
X377490677Y-32955261D01*
X377472593Y-32782998D01*
X377459530Y-32713433D01*
X377418903Y-32525786D01*
X377401671Y-32331329D01*
X377401666Y-32328814D01*
X377387971Y-32179274D01*
X377351859Y-31970532D01*
X377300793Y-31744916D01*
X377294331Y-31719923D01*
X377225540Y-31487569D01*
X377152982Y-31324034D01*
X377057985Y-31193358D01*
X376978880Y-31112354D01*
X376829133Y-30986763D01*
X376698973Y-30927368D01*
X376566475Y-30913917D01*
X376294388Y-30947673D01*
X376025833Y-31038283D01*
X375802910Y-31169761D01*
X375737320Y-31228777D01*
X375682523Y-31291909D01*
X375640424Y-31362586D01*
X375606768Y-31458644D01*
X375577298Y-31597919D01*
X375547760Y-31798245D01*
X375513896Y-32077459D01*
X375494821Y-32245046D01*
X375456431Y-32585628D01*
X375416960Y-32935791D01*
X375380215Y-33261758D01*
X375350003Y-33529755D01*
X375340655Y-33612667D01*
X375318830Y-33864797D01*
X375300991Y-34182566D01*
X375288942Y-34525801D01*
X375284487Y-34854329D01*
X375284489Y-34862958D01*
X375282893Y-35168182D01*
X375276436Y-35384636D01*
X375263343Y-35529336D01*
X375241841Y-35619301D01*
X375210153Y-35671549D01*
X375199089Y-35681840D01*
X375110112Y-35717135D01*
X374934226Y-35744184D01*
X374664557Y-35763785D01*
X374405403Y-35773822D01*
X374061428Y-35780051D01*
X373809018Y-35771753D01*
X373634258Y-35743029D01*
X373523232Y-35687980D01*
X373462024Y-35600705D01*
X373436719Y-35475305D01*
X373432916Y-35361526D01*
X373425940Y-35176329D01*
X373407623Y-34937213D01*
X373381880Y-34694985D01*
X373381016Y-34688058D01*
X373295833Y-34009904D01*
X373221954Y-33428746D01*
X373157553Y-32936566D01*
X373100804Y-32525344D01*
X373049879Y-32187060D01*
X373002953Y-31913697D01*
X372958199Y-31697234D01*
X372913790Y-31529652D01*
X372867899Y-31402933D01*
X372818701Y-31309057D01*
X372764369Y-31240005D01*
X372703075Y-31187757D01*
X372632995Y-31144296D01*
X372565710Y-31108561D01*
X372417553Y-31044493D01*
X372293534Y-31035738D01*
X372161406Y-31066867D01*
X371916104Y-31179008D01*
X371719361Y-31343702D01*
X371598039Y-31537619D01*
X371589171Y-31563878D01*
X371569224Y-31670588D01*
X371545502Y-31862505D01*
X371520052Y-32119161D01*
X371494922Y-32420091D01*
X371474192Y-32713084D01*
X371453107Y-33024417D01*
X371432748Y-33298599D01*
X371414538Y-33518433D01*
X371399900Y-33666722D01*
X371390373Y-33726090D01*
X371379086Y-33787752D01*
X371360964Y-33936528D01*
X371337978Y-34154067D01*
X371312102Y-34422016D01*
X371293684Y-34625674D01*
X371265893Y-34923109D01*
X371238143Y-35187990D01*
X371212759Y-35400342D01*
X371192068Y-35540188D01*
X371182223Y-35582779D01*
X371110170Y-35653681D01*
X370974525Y-35719095D01*
X370817034Y-35763336D01*
X370681250Y-35770973D01*
X370595806Y-35764748D01*
X370432631Y-35756938D01*
X370219790Y-35748800D01*
X370099166Y-35744867D01*
X369810014Y-35733796D01*
X369608265Y-35718032D01*
X369475492Y-35692559D01*
X369393267Y-35652359D01*
X369343160Y-35592418D01*
X369315603Y-35531569D01*
X369275032Y-35379076D01*
X369230517Y-35124031D01*
X369182502Y-34769626D01*
X369131428Y-34319052D01*
X369089830Y-33903709D01*
X369075558Y-33707466D01*
X369062280Y-33435649D01*
X369050126Y-33101183D01*
X369039226Y-32716994D01*
X369029709Y-32296010D01*
X369021706Y-31851156D01*
X369015346Y-31395358D01*
X369010759Y-30941543D01*
X369008075Y-30502638D01*
X369007424Y-30091568D01*
X369008936Y-29721260D01*
X369012741Y-29404639D01*
X369018968Y-29154634D01*
X369027748Y-28984169D01*
X369039210Y-28906170D01*
X369039611Y-28905367D01*
X369124347Y-28849239D01*
X369305500Y-28806991D01*
X369574510Y-28779056D01*
X369922818Y-28765872D01*
X370341865Y-28767873D01*
X370823092Y-28785494D01*
X371093351Y-28800867D01*
X371456956Y-28822190D01*
X371732047Y-28833719D01*
X371935503Y-28835324D01*
X372084203Y-28826872D01*
X372195026Y-28808233D01*
X372251069Y-28791863D01*
X372398062Y-28760569D01*
X372627508Y-28740612D01*
X372947362Y-28731545D01*
X373309729Y-28732216D01*
G36*
X416478548Y-28762738D02*
X416886704Y-28794436D01*
X417236476Y-28849586D01*
X417543173Y-28930048D01*
X417822103Y-29037682D01*
X417868344Y-29059044D01*
X418170319Y-29247343D01*
X418427759Y-29495757D01*
X418614732Y-29777326D01*
X418659955Y-29882042D01*
X418716458Y-30045718D01*
X418763512Y-30209871D01*
X418801894Y-30385595D01*
X418832383Y-30583981D01*
X418855756Y-30816123D01*
X418872791Y-31093112D01*
X418884267Y-31426042D01*
X418890960Y-31826005D01*
X418893650Y-32304094D01*
X418893113Y-32871401D01*
X418891890Y-33189334D01*
X418888834Y-33752260D01*
X418884985Y-34218581D01*
X418880003Y-34597521D01*
X418873546Y-34898308D01*
X418865273Y-35130166D01*
X418854844Y-35302322D01*
X418841919Y-35424002D01*
X418826156Y-35504432D01*
X418807215Y-35552839D01*
X418804441Y-35557354D01*
X418773221Y-35599681D01*
X418732331Y-35630566D01*
X418666177Y-35651810D01*
X418559161Y-35665215D01*
X418395689Y-35672583D01*
X418160165Y-35675714D01*
X417836994Y-35676411D01*
X417773755Y-35676417D01*
X417425576Y-35675296D01*
X417165357Y-35670847D01*
X416975236Y-35661442D01*
X416837354Y-35645452D01*
X416733849Y-35621250D01*
X416646862Y-35587206D01*
X416612916Y-35570584D01*
X416369863Y-35481571D01*
X416139760Y-35481127D01*
X415887343Y-35569251D01*
X415884548Y-35570598D01*
X415503259Y-35714329D01*
X415085692Y-35802913D01*
X414663156Y-35833677D01*
X414266962Y-35803948D01*
X413984484Y-35732837D01*
X413552892Y-35522866D01*
X413180843Y-35229058D01*
X412879786Y-34861412D01*
X412768680Y-34671000D01*
X412704778Y-34539739D01*
X412660932Y-34419571D01*
X412632564Y-34284535D01*
X412615098Y-34108671D01*
X412603957Y-33866019D01*
X412599291Y-33710198D01*
X412599126Y-33679176D01*
X414790910Y-33679176D01*
X414873609Y-33885926D01*
X415047583Y-34060530D01*
X415094131Y-34091059D01*
X415330109Y-34180201D01*
X415593119Y-34173095D01*
X415890633Y-34069432D01*
X415916089Y-34056988D01*
X416197141Y-33873669D01*
X416384522Y-33653473D01*
X416474837Y-33402551D01*
X416464693Y-33127054D01*
X416453875Y-33082417D01*
X416392079Y-32922608D01*
X416299239Y-32821624D01*
X416160345Y-32775856D01*
X415960391Y-32781698D01*
X415684368Y-32835541D01*
X415558697Y-32867237D01*
X415238404Y-32979643D01*
X415009184Y-33128594D01*
X414860025Y-33322717D01*
X414806767Y-33456357D01*
X414790910Y-33679176D01*
X412599126Y-33679176D01*
X412597162Y-33310699D01*
X412619237Y-32992691D01*
X412671274Y-32733455D01*
X412759029Y-32510269D01*
X412888258Y-32300412D01*
X412989590Y-32169630D01*
X413261686Y-31903019D01*
X413607515Y-31678101D01*
X414033536Y-31492214D01*
X414546206Y-31342697D01*
X415151981Y-31226888D01*
X415342916Y-31199638D01*
X415670126Y-31151999D01*
X415906413Y-31105845D01*
X416066434Y-31055300D01*
X416164843Y-30994488D01*
X416216294Y-30917534D01*
X416233237Y-30842700D01*
X416211680Y-30679509D01*
X416100849Y-30546730D01*
X415893778Y-30436988D01*
X415827046Y-30412593D01*
X415461193Y-30320161D01*
X415075877Y-30291424D01*
X414654557Y-30327474D01*
X414180690Y-30429404D01*
X413788109Y-30547351D01*
X413551584Y-30624819D01*
X413394836Y-30672284D01*
X413296998Y-30692484D01*
X413237206Y-30688156D01*
X413194593Y-30662038D01*
X413161166Y-30629607D01*
X413129073Y-30569866D01*
X413109459Y-30457478D01*
X413101072Y-30276444D01*
X413102661Y-30010764D01*
X413104928Y-29910897D01*
X413115207Y-29652463D01*
X413131049Y-29427039D01*
X413150289Y-29258936D01*
X413170662Y-29172657D01*
X413256476Y-29102357D01*
X413438276Y-29023545D01*
X413706878Y-28939515D01*
X414053097Y-28853561D01*
X414072916Y-28849130D01*
X414197944Y-28831454D01*
X414408640Y-28812865D01*
X414684860Y-28794657D01*
X415006461Y-28778124D01*
X415353300Y-28764559D01*
X415425842Y-28762257D01*
X415996697Y-28752632D01*
X416478548Y-28762738D01*
X416478548Y-28762738D01*
G37*
X416478548Y-28762738D02*
X416886704Y-28794436D01*
X417236476Y-28849586D01*
X417543173Y-28930048D01*
X417822103Y-29037682D01*
X417868344Y-29059044D01*
X418170319Y-29247343D01*
X418427759Y-29495757D01*
X418614732Y-29777326D01*
X418659955Y-29882042D01*
X418716458Y-30045718D01*
X418763512Y-30209871D01*
X418801894Y-30385595D01*
X418832383Y-30583981D01*
X418855756Y-30816123D01*
X418872791Y-31093112D01*
X418884267Y-31426042D01*
X418890960Y-31826005D01*
X418893650Y-32304094D01*
X418893113Y-32871401D01*
X418891890Y-33189334D01*
X418888834Y-33752260D01*
X418884985Y-34218581D01*
X418880003Y-34597521D01*
X418873546Y-34898308D01*
X418865273Y-35130166D01*
X418854844Y-35302322D01*
X418841919Y-35424002D01*
X418826156Y-35504432D01*
X418807215Y-35552839D01*
X418804441Y-35557354D01*
X418773221Y-35599681D01*
X418732331Y-35630566D01*
X418666177Y-35651810D01*
X418559161Y-35665215D01*
X418395689Y-35672583D01*
X418160165Y-35675714D01*
X417836994Y-35676411D01*
X417773755Y-35676417D01*
X417425576Y-35675296D01*
X417165357Y-35670847D01*
X416975236Y-35661442D01*
X416837354Y-35645452D01*
X416733849Y-35621250D01*
X416646862Y-35587206D01*
X416612916Y-35570584D01*
X416369863Y-35481571D01*
X416139760Y-35481127D01*
X415887343Y-35569251D01*
X415884548Y-35570598D01*
X415503259Y-35714329D01*
X415085692Y-35802913D01*
X414663156Y-35833677D01*
X414266962Y-35803948D01*
X413984484Y-35732837D01*
X413552892Y-35522866D01*
X413180843Y-35229058D01*
X412879786Y-34861412D01*
X412768680Y-34671000D01*
X412704778Y-34539739D01*
X412660932Y-34419571D01*
X412632564Y-34284535D01*
X412615098Y-34108671D01*
X412603957Y-33866019D01*
X412599291Y-33710198D01*
X412599126Y-33679176D01*
X414790910Y-33679176D01*
X414873609Y-33885926D01*
X415047583Y-34060530D01*
X415094131Y-34091059D01*
X415330109Y-34180201D01*
X415593119Y-34173095D01*
X415890633Y-34069432D01*
X415916089Y-34056988D01*
X416197141Y-33873669D01*
X416384522Y-33653473D01*
X416474837Y-33402551D01*
X416464693Y-33127054D01*
X416453875Y-33082417D01*
X416392079Y-32922608D01*
X416299239Y-32821624D01*
X416160345Y-32775856D01*
X415960391Y-32781698D01*
X415684368Y-32835541D01*
X415558697Y-32867237D01*
X415238404Y-32979643D01*
X415009184Y-33128594D01*
X414860025Y-33322717D01*
X414806767Y-33456357D01*
X414790910Y-33679176D01*
X412599126Y-33679176D01*
X412597162Y-33310699D01*
X412619237Y-32992691D01*
X412671274Y-32733455D01*
X412759029Y-32510269D01*
X412888258Y-32300412D01*
X412989590Y-32169630D01*
X413261686Y-31903019D01*
X413607515Y-31678101D01*
X414033536Y-31492214D01*
X414546206Y-31342697D01*
X415151981Y-31226888D01*
X415342916Y-31199638D01*
X415670126Y-31151999D01*
X415906413Y-31105845D01*
X416066434Y-31055300D01*
X416164843Y-30994488D01*
X416216294Y-30917534D01*
X416233237Y-30842700D01*
X416211680Y-30679509D01*
X416100849Y-30546730D01*
X415893778Y-30436988D01*
X415827046Y-30412593D01*
X415461193Y-30320161D01*
X415075877Y-30291424D01*
X414654557Y-30327474D01*
X414180690Y-30429404D01*
X413788109Y-30547351D01*
X413551584Y-30624819D01*
X413394836Y-30672284D01*
X413296998Y-30692484D01*
X413237206Y-30688156D01*
X413194593Y-30662038D01*
X413161166Y-30629607D01*
X413129073Y-30569866D01*
X413109459Y-30457478D01*
X413101072Y-30276444D01*
X413102661Y-30010764D01*
X413104928Y-29910897D01*
X413115207Y-29652463D01*
X413131049Y-29427039D01*
X413150289Y-29258936D01*
X413170662Y-29172657D01*
X413256476Y-29102357D01*
X413438276Y-29023545D01*
X413706878Y-28939515D01*
X414053097Y-28853561D01*
X414072916Y-28849130D01*
X414197944Y-28831454D01*
X414408640Y-28812865D01*
X414684860Y-28794657D01*
X415006461Y-28778124D01*
X415353300Y-28764559D01*
X415425842Y-28762257D01*
X415996697Y-28752632D01*
X416478548Y-28762738D01*
G36*
X419633971Y-37857132D02*
X420131875Y-37872459D01*
X419246729Y-38454542D01*
X418907538Y-38682211D01*
X418646403Y-38867510D01*
X418467194Y-39007503D01*
X418373781Y-39099249D01*
X418360375Y-39127582D01*
X418384132Y-39201898D01*
X418450817Y-39352142D01*
X418552320Y-39561526D01*
X418680534Y-39813263D01*
X418808958Y-40056381D01*
X418953647Y-40329283D01*
X419079003Y-40572185D01*
X419176965Y-40768934D01*
X419239471Y-40903377D01*
X419258750Y-40957612D01*
X419219730Y-40990323D01*
X419096770Y-41010787D01*
X418881019Y-41020125D01*
X418759035Y-41021000D01*
X418259320Y-41021000D01*
X417936725Y-40361366D01*
X417815836Y-40119319D01*
X417707718Y-39912349D01*
X417622317Y-39758811D01*
X417569578Y-39677059D01*
X417561732Y-39669348D01*
X417488475Y-39675984D01*
X417362224Y-39729173D01*
X417214297Y-39811499D01*
X417076010Y-39905544D01*
X416979114Y-39993374D01*
X416928498Y-40082204D01*
X416857366Y-40243011D01*
X416778005Y-40447149D01*
X416745208Y-40538820D01*
X416586458Y-40994542D01*
X416202812Y-41010089D01*
X416003477Y-41015329D01*
X415887821Y-41007892D01*
X415834007Y-40983248D01*
X415820194Y-40936865D01*
X415820173Y-40930714D01*
X415836520Y-40857781D01*
X415882245Y-40697918D01*
X415953176Y-40464570D01*
X416045139Y-40171182D01*
X416153959Y-39831196D01*
X416275462Y-39458059D01*
X416309653Y-39354125D01*
X416798125Y-37872459D01*
X417136509Y-37856506D01*
X417323716Y-37852088D01*
X417472825Y-37856534D01*
X417543706Y-37866958D01*
X417566943Y-37904228D01*
X417559733Y-37996320D01*
X417519310Y-38156874D01*
X417442908Y-38399531D01*
X417424493Y-38454861D01*
X417351780Y-38681941D01*
X417297652Y-38870541D01*
X417267833Y-38999297D01*
X417266158Y-39046047D01*
X417290118Y-39053231D01*
X417337260Y-39039124D01*
X417417711Y-38997478D01*
X417541601Y-38922044D01*
X417719059Y-38806576D01*
X417960214Y-38644825D01*
X418275196Y-38430544D01*
X418378643Y-38359840D01*
X419136067Y-37841806D01*
X419633971Y-37857132D01*
X419633971Y-37857132D01*
G37*
X419633971Y-37857132D02*
X420131875Y-37872459D01*
X419246729Y-38454542D01*
X418907538Y-38682211D01*
X418646403Y-38867510D01*
X418467194Y-39007503D01*
X418373781Y-39099249D01*
X418360375Y-39127582D01*
X418384132Y-39201898D01*
X418450817Y-39352142D01*
X418552320Y-39561526D01*
X418680534Y-39813263D01*
X418808958Y-40056381D01*
X418953647Y-40329283D01*
X419079003Y-40572185D01*
X419176965Y-40768934D01*
X419239471Y-40903377D01*
X419258750Y-40957612D01*
X419219730Y-40990323D01*
X419096770Y-41010787D01*
X418881019Y-41020125D01*
X418759035Y-41021000D01*
X418259320Y-41021000D01*
X417936725Y-40361366D01*
X417815836Y-40119319D01*
X417707718Y-39912349D01*
X417622317Y-39758811D01*
X417569578Y-39677059D01*
X417561732Y-39669348D01*
X417488475Y-39675984D01*
X417362224Y-39729173D01*
X417214297Y-39811499D01*
X417076010Y-39905544D01*
X416979114Y-39993374D01*
X416928498Y-40082204D01*
X416857366Y-40243011D01*
X416778005Y-40447149D01*
X416745208Y-40538820D01*
X416586458Y-40994542D01*
X416202812Y-41010089D01*
X416003477Y-41015329D01*
X415887821Y-41007892D01*
X415834007Y-40983248D01*
X415820194Y-40936865D01*
X415820173Y-40930714D01*
X415836520Y-40857781D01*
X415882245Y-40697918D01*
X415953176Y-40464570D01*
X416045139Y-40171182D01*
X416153959Y-39831196D01*
X416275462Y-39458059D01*
X416309653Y-39354125D01*
X416798125Y-37872459D01*
X417136509Y-37856506D01*
X417323716Y-37852088D01*
X417472825Y-37856534D01*
X417543706Y-37866958D01*
X417566943Y-37904228D01*
X417559733Y-37996320D01*
X417519310Y-38156874D01*
X417442908Y-38399531D01*
X417424493Y-38454861D01*
X417351780Y-38681941D01*
X417297652Y-38870541D01*
X417267833Y-38999297D01*
X417266158Y-39046047D01*
X417290118Y-39053231D01*
X417337260Y-39039124D01*
X417417711Y-38997478D01*
X417541601Y-38922044D01*
X417719059Y-38806576D01*
X417960214Y-38644825D01*
X418275196Y-38430544D01*
X418378643Y-38359840D01*
X419136067Y-37841806D01*
X419633971Y-37857132D01*
G36*
X405869090Y-37854059D02*
X405999894Y-37878191D01*
X406029583Y-37906961D01*
X406013659Y-37972463D01*
X405968936Y-38123781D01*
X405899986Y-38346296D01*
X405811383Y-38625392D01*
X405707700Y-38946449D01*
X405631379Y-39179864D01*
X405521512Y-39519989D01*
X405425811Y-39827385D01*
X405348473Y-40087635D01*
X405293693Y-40286324D01*
X405265667Y-40409038D01*
X405264085Y-40441820D01*
X405325396Y-40458874D01*
X405475877Y-40473269D01*
X405698878Y-40484109D01*
X405977751Y-40490494D01*
X406191456Y-40491834D01*
X406486054Y-40492572D01*
X406739852Y-40494618D01*
X406935658Y-40497717D01*
X407056280Y-40501617D01*
X407087113Y-40505063D01*
X407072899Y-40558835D01*
X407037739Y-40680284D01*
X407015151Y-40756417D01*
X406943993Y-40994542D01*
X405587205Y-41008664D01*
X405220806Y-41011107D01*
X404891912Y-41010669D01*
X404614509Y-41007584D01*
X404402587Y-41002087D01*
X404270132Y-40994410D01*
X404230416Y-40985998D01*
X404246193Y-40928354D01*
X404290875Y-40782624D01*
X404360490Y-40561317D01*
X404451063Y-40276946D01*
X404558623Y-39942021D01*
X404679195Y-39569051D01*
X404734861Y-39397605D01*
X405239306Y-37846000D01*
X405634444Y-37846000D01*
X405869090Y-37854059D01*
X405869090Y-37854059D01*
G37*
X405869090Y-37854059D02*
X405999894Y-37878191D01*
X406029583Y-37906961D01*
X406013659Y-37972463D01*
X405968936Y-38123781D01*
X405899986Y-38346296D01*
X405811383Y-38625392D01*
X405707700Y-38946449D01*
X405631379Y-39179864D01*
X405521512Y-39519989D01*
X405425811Y-39827385D01*
X405348473Y-40087635D01*
X405293693Y-40286324D01*
X405265667Y-40409038D01*
X405264085Y-40441820D01*
X405325396Y-40458874D01*
X405475877Y-40473269D01*
X405698878Y-40484109D01*
X405977751Y-40490494D01*
X406191456Y-40491834D01*
X406486054Y-40492572D01*
X406739852Y-40494618D01*
X406935658Y-40497717D01*
X407056280Y-40501617D01*
X407087113Y-40505063D01*
X407072899Y-40558835D01*
X407037739Y-40680284D01*
X407015151Y-40756417D01*
X406943993Y-40994542D01*
X405587205Y-41008664D01*
X405220806Y-41011107D01*
X404891912Y-41010669D01*
X404614509Y-41007584D01*
X404402587Y-41002087D01*
X404270132Y-40994410D01*
X404230416Y-40985998D01*
X404246193Y-40928354D01*
X404290875Y-40782624D01*
X404360490Y-40561317D01*
X404451063Y-40276946D01*
X404558623Y-39942021D01*
X404679195Y-39569051D01*
X404734861Y-39397605D01*
X405239306Y-37846000D01*
X405634444Y-37846000D01*
X405869090Y-37854059D01*
G36*
X396222593Y-37855146D02*
X396382648Y-37881882D01*
X396437459Y-37912146D01*
X396475738Y-37983818D01*
X396544119Y-38133417D01*
X396633615Y-38340521D01*
X396735238Y-38584705D01*
X396757670Y-38639750D01*
X396911719Y-39018236D01*
X397031579Y-39309493D01*
X397122394Y-39524545D01*
X397189311Y-39674415D01*
X397237476Y-39770127D01*
X397272034Y-39822702D01*
X397298131Y-39843166D01*
X397319368Y-39843025D01*
X397353240Y-39789572D01*
X397413118Y-39650957D01*
X397492996Y-39442893D01*
X397586866Y-39181094D01*
X397688722Y-38881273D01*
X397699370Y-38849030D01*
X398021033Y-37872459D01*
X398382041Y-37856630D01*
X398570069Y-37854695D01*
X398715633Y-37864851D01*
X398787084Y-37884834D01*
X398782224Y-37944231D01*
X398747460Y-38091437D01*
X398686426Y-38313882D01*
X398602752Y-38598993D01*
X398500071Y-38934202D01*
X398382015Y-39306936D01*
X398327652Y-39474934D01*
X397824186Y-41021000D01*
X396942973Y-41021000D01*
X396593221Y-40187563D01*
X396473523Y-39901270D01*
X396364895Y-39639487D01*
X396275442Y-39421894D01*
X396213265Y-39268170D01*
X396190128Y-39208604D01*
X396142735Y-39104596D01*
X396094315Y-39060839D01*
X396040519Y-39084203D01*
X395976996Y-39181559D01*
X395899398Y-39359779D01*
X395803377Y-39625733D01*
X395684582Y-39986292D01*
X395670964Y-40028813D01*
X395362284Y-40994542D01*
X394985433Y-41009998D01*
X394796163Y-41011589D01*
X394651819Y-41001265D01*
X394581585Y-40981233D01*
X394580070Y-40979322D01*
X394588770Y-40919340D01*
X394627018Y-40771521D01*
X394691058Y-40548483D01*
X394777129Y-40262845D01*
X394881472Y-39927224D01*
X395000330Y-39554238D01*
X395053636Y-39389594D01*
X395555714Y-37846000D01*
X395970753Y-37846000D01*
X396222593Y-37855146D01*
X396222593Y-37855146D01*
G37*
X396222593Y-37855146D02*
X396382648Y-37881882D01*
X396437459Y-37912146D01*
X396475738Y-37983818D01*
X396544119Y-38133417D01*
X396633615Y-38340521D01*
X396735238Y-38584705D01*
X396757670Y-38639750D01*
X396911719Y-39018236D01*
X397031579Y-39309493D01*
X397122394Y-39524545D01*
X397189311Y-39674415D01*
X397237476Y-39770127D01*
X397272034Y-39822702D01*
X397298131Y-39843166D01*
X397319368Y-39843025D01*
X397353240Y-39789572D01*
X397413118Y-39650957D01*
X397492996Y-39442893D01*
X397586866Y-39181094D01*
X397688722Y-38881273D01*
X397699370Y-38849030D01*
X398021033Y-37872459D01*
X398382041Y-37856630D01*
X398570069Y-37854695D01*
X398715633Y-37864851D01*
X398787084Y-37884834D01*
X398782224Y-37944231D01*
X398747460Y-38091437D01*
X398686426Y-38313882D01*
X398602752Y-38598993D01*
X398500071Y-38934202D01*
X398382015Y-39306936D01*
X398327652Y-39474934D01*
X397824186Y-41021000D01*
X396942973Y-41021000D01*
X396593221Y-40187563D01*
X396473523Y-39901270D01*
X396364895Y-39639487D01*
X396275442Y-39421894D01*
X396213265Y-39268170D01*
X396190128Y-39208604D01*
X396142735Y-39104596D01*
X396094315Y-39060839D01*
X396040519Y-39084203D01*
X395976996Y-39181559D01*
X395899398Y-39359779D01*
X395803377Y-39625733D01*
X395684582Y-39986292D01*
X395670964Y-40028813D01*
X395362284Y-40994542D01*
X394985433Y-41009998D01*
X394796163Y-41011589D01*
X394651819Y-41001265D01*
X394581585Y-40981233D01*
X394580070Y-40979322D01*
X394588770Y-40919340D01*
X394627018Y-40771521D01*
X394691058Y-40548483D01*
X394777129Y-40262845D01*
X394881472Y-39927224D01*
X395000330Y-39554238D01*
X395053636Y-39389594D01*
X395555714Y-37846000D01*
X395970753Y-37846000D01*
X396222593Y-37855146D01*
G36*
X390214890Y-37852303D02*
X390354612Y-37869032D01*
X390417836Y-37892918D01*
X390419166Y-37897174D01*
X390402888Y-37967480D01*
X390357478Y-38121930D01*
X390288069Y-38345068D01*
X390199796Y-38621437D01*
X390097793Y-38935582D01*
X389987194Y-39272044D01*
X389873132Y-39615369D01*
X389760743Y-39950099D01*
X389655160Y-40260777D01*
X389561517Y-40531948D01*
X389484949Y-40748155D01*
X389430590Y-40893940D01*
X389404006Y-40953365D01*
X389326552Y-40987425D01*
X389182849Y-41010335D01*
X389008057Y-41021066D01*
X388837336Y-41018590D01*
X388705844Y-41001881D01*
X388650966Y-40975377D01*
X388659781Y-40915535D01*
X388698210Y-40767879D01*
X388762482Y-40545024D01*
X388848822Y-40259587D01*
X388953459Y-39924182D01*
X389072620Y-39551425D01*
X389125727Y-39387877D01*
X389628684Y-37846000D01*
X390023925Y-37846000D01*
X390214890Y-37852303D01*
X390214890Y-37852303D01*
G37*
X390214890Y-37852303D02*
X390354612Y-37869032D01*
X390417836Y-37892918D01*
X390419166Y-37897174D01*
X390402888Y-37967480D01*
X390357478Y-38121930D01*
X390288069Y-38345068D01*
X390199796Y-38621437D01*
X390097793Y-38935582D01*
X389987194Y-39272044D01*
X389873132Y-39615369D01*
X389760743Y-39950099D01*
X389655160Y-40260777D01*
X389561517Y-40531948D01*
X389484949Y-40748155D01*
X389430590Y-40893940D01*
X389404006Y-40953365D01*
X389326552Y-40987425D01*
X389182849Y-41010335D01*
X389008057Y-41021066D01*
X388837336Y-41018590D01*
X388705844Y-41001881D01*
X388650966Y-40975377D01*
X388659781Y-40915535D01*
X388698210Y-40767879D01*
X388762482Y-40545024D01*
X388848822Y-40259587D01*
X388953459Y-39924182D01*
X389072620Y-39551425D01*
X389125727Y-39387877D01*
X389628684Y-37846000D01*
X390023925Y-37846000D01*
X390214890Y-37852303D01*
G36*
X385060617Y-37852276D02*
X385187955Y-37872322D01*
X385231896Y-37907970D01*
X385232129Y-37912146D01*
X385215963Y-37977478D01*
X385170806Y-38130331D01*
X385100730Y-38357689D01*
X385009810Y-38646537D01*
X384902117Y-38983858D01*
X384781724Y-39356638D01*
X384739511Y-39486417D01*
X384248097Y-40994542D01*
X383872090Y-41009998D01*
X383683165Y-41011733D01*
X383539313Y-41001774D01*
X383469692Y-40982254D01*
X383468272Y-40980457D01*
X383477137Y-40920763D01*
X383515515Y-40773206D01*
X383579646Y-40550388D01*
X383665771Y-40264914D01*
X383770128Y-39929385D01*
X383888957Y-39556406D01*
X383942566Y-39390730D01*
X384444670Y-37846000D01*
X384839002Y-37846000D01*
X385060617Y-37852276D01*
X385060617Y-37852276D01*
G37*
X385060617Y-37852276D02*
X385187955Y-37872322D01*
X385231896Y-37907970D01*
X385232129Y-37912146D01*
X385215963Y-37977478D01*
X385170806Y-38130331D01*
X385100730Y-38357689D01*
X385009810Y-38646537D01*
X384902117Y-38983858D01*
X384781724Y-39356638D01*
X384739511Y-39486417D01*
X384248097Y-40994542D01*
X383872090Y-41009998D01*
X383683165Y-41011733D01*
X383539313Y-41001774D01*
X383469692Y-40982254D01*
X383468272Y-40980457D01*
X383477137Y-40920763D01*
X383515515Y-40773206D01*
X383579646Y-40550388D01*
X383665771Y-40264914D01*
X383770128Y-39929385D01*
X383888957Y-39556406D01*
X383942566Y-39390730D01*
X384444670Y-37846000D01*
X384839002Y-37846000D01*
X385060617Y-37852276D01*
G36*
X378906796Y-37856819D02*
X379197609Y-37860405D01*
X379424903Y-37866533D01*
X379574361Y-37874940D01*
X379631267Y-37884851D01*
X379635703Y-37953001D01*
X379600363Y-38079028D01*
X379571780Y-38149153D01*
X379471646Y-38372809D01*
X378476344Y-38387217D01*
X377481041Y-38401625D01*
X377385608Y-38596861D01*
X377320132Y-38762594D01*
X377282096Y-38918627D01*
X377279775Y-38940819D01*
X377269375Y-39089542D01*
X378162082Y-39104079D01*
X379054789Y-39118617D01*
X379021208Y-39286521D01*
X378971154Y-39448456D01*
X378908619Y-39575007D01*
X378875728Y-39618782D01*
X378832408Y-39650771D01*
X378762627Y-39673158D01*
X378650355Y-39688127D01*
X378479560Y-39697862D01*
X378234212Y-39704546D01*
X377917201Y-39710065D01*
X377004791Y-39724542D01*
X376916429Y-39989125D01*
X376864297Y-40165152D01*
X376830400Y-40317385D01*
X376823825Y-40372771D01*
X376819583Y-40491834D01*
X378841889Y-40491834D01*
X378809272Y-40621791D01*
X378763355Y-40777569D01*
X378725470Y-40886375D01*
X378674286Y-41021000D01*
X377247349Y-41021000D01*
X376869790Y-41019587D01*
X376528146Y-41015602D01*
X376236334Y-41009426D01*
X376008273Y-41001441D01*
X375857881Y-40992028D01*
X375799074Y-40981568D01*
X375798907Y-40981313D01*
X375809576Y-40923027D01*
X375850071Y-40776982D01*
X375916510Y-40555743D01*
X376005013Y-40271872D01*
X376111696Y-39937935D01*
X376232680Y-39566493D01*
X376285263Y-39407042D01*
X376793125Y-37872459D01*
X378191873Y-37858332D01*
X378566779Y-37856041D01*
X378906796Y-37856819D01*
X378906796Y-37856819D01*
G37*
X378906796Y-37856819D02*
X379197609Y-37860405D01*
X379424903Y-37866533D01*
X379574361Y-37874940D01*
X379631267Y-37884851D01*
X379635703Y-37953001D01*
X379600363Y-38079028D01*
X379571780Y-38149153D01*
X379471646Y-38372809D01*
X378476344Y-38387217D01*
X377481041Y-38401625D01*
X377385608Y-38596861D01*
X377320132Y-38762594D01*
X377282096Y-38918627D01*
X377279775Y-38940819D01*
X377269375Y-39089542D01*
X378162082Y-39104079D01*
X379054789Y-39118617D01*
X379021208Y-39286521D01*
X378971154Y-39448456D01*
X378908619Y-39575007D01*
X378875728Y-39618782D01*
X378832408Y-39650771D01*
X378762627Y-39673158D01*
X378650355Y-39688127D01*
X378479560Y-39697862D01*
X378234212Y-39704546D01*
X377917201Y-39710065D01*
X377004791Y-39724542D01*
X376916429Y-39989125D01*
X376864297Y-40165152D01*
X376830400Y-40317385D01*
X376823825Y-40372771D01*
X376819583Y-40491834D01*
X378841889Y-40491834D01*
X378809272Y-40621791D01*
X378763355Y-40777569D01*
X378725470Y-40886375D01*
X378674286Y-41021000D01*
X377247349Y-41021000D01*
X376869790Y-41019587D01*
X376528146Y-41015602D01*
X376236334Y-41009426D01*
X376008273Y-41001441D01*
X375857881Y-40992028D01*
X375799074Y-40981568D01*
X375798907Y-40981313D01*
X375809576Y-40923027D01*
X375850071Y-40776982D01*
X375916510Y-40555743D01*
X376005013Y-40271872D01*
X376111696Y-39937935D01*
X376232680Y-39566493D01*
X376285263Y-39407042D01*
X376793125Y-37872459D01*
X378191873Y-37858332D01*
X378566779Y-37856041D01*
X378906796Y-37856819D01*
G36*
X370535890Y-37845347D02*
X370832549Y-37850589D01*
X371099260Y-37860748D01*
X371316637Y-37875912D01*
X371465295Y-37896171D01*
X371488142Y-37901675D01*
X371735221Y-38004711D01*
X371894774Y-38158568D01*
X371977940Y-38375780D01*
X371990903Y-38467417D01*
X371969760Y-38779214D01*
X371852415Y-39077243D01*
X371648499Y-39347374D01*
X371367641Y-39575474D01*
X371157500Y-39690328D01*
X371013078Y-39750613D01*
X370870692Y-39791562D01*
X370702224Y-39817817D01*
X370479554Y-39834021D01*
X370231458Y-39843220D01*
X369972360Y-39852427D01*
X369743518Y-39863625D01*
X369570597Y-39875362D01*
X369481791Y-39885626D01*
X369421321Y-39916337D01*
X369363715Y-39992899D01*
X369299806Y-40132635D01*
X369220431Y-40352864D01*
X369196081Y-40425593D01*
X369119028Y-40645393D01*
X369047589Y-40826757D01*
X368991410Y-40946343D01*
X368966789Y-40980502D01*
X368883266Y-41002879D01*
X368737321Y-41015735D01*
X368563781Y-41019153D01*
X368397478Y-41013219D01*
X368273239Y-40998017D01*
X368227189Y-40978706D01*
X368236282Y-40919740D01*
X368274347Y-40775677D01*
X368336509Y-40561692D01*
X368417890Y-40292963D01*
X368513614Y-39984666D01*
X368618805Y-39651977D01*
X368728585Y-39310072D01*
X368763238Y-39203749D01*
X369634827Y-39203749D01*
X369640534Y-39244335D01*
X369713474Y-39296667D01*
X369869504Y-39324298D01*
X370088646Y-39326555D01*
X370350918Y-39302764D01*
X370528506Y-39274248D01*
X370816657Y-39189790D01*
X371012453Y-39060224D01*
X371119642Y-38885614D01*
X371147740Y-38683730D01*
X371085624Y-38529940D01*
X370938255Y-38433371D01*
X370782074Y-38398782D01*
X370576880Y-38379438D01*
X370353230Y-38374920D01*
X370141680Y-38384810D01*
X369972787Y-38408688D01*
X369877105Y-38446136D01*
X369875196Y-38447947D01*
X369815438Y-38544936D01*
X369751111Y-38704342D01*
X369692627Y-38890834D01*
X369650395Y-39069080D01*
X369634827Y-39203749D01*
X368763238Y-39203749D01*
X368838077Y-38974129D01*
X368942406Y-38659323D01*
X369036695Y-38380831D01*
X369116066Y-38153830D01*
X369175644Y-37993496D01*
X369210551Y-37915005D01*
X369212573Y-37912146D01*
X369281839Y-37889762D01*
X369437467Y-37871760D01*
X369660071Y-37858228D01*
X369930266Y-37849256D01*
X370228667Y-37844933D01*
X370535890Y-37845347D01*
X370535890Y-37845347D01*
G37*
X370535890Y-37845347D02*
X370832549Y-37850589D01*
X371099260Y-37860748D01*
X371316637Y-37875912D01*
X371465295Y-37896171D01*
X371488142Y-37901675D01*
X371735221Y-38004711D01*
X371894774Y-38158568D01*
X371977940Y-38375780D01*
X371990903Y-38467417D01*
X371969760Y-38779214D01*
X371852415Y-39077243D01*
X371648499Y-39347374D01*
X371367641Y-39575474D01*
X371157500Y-39690328D01*
X371013078Y-39750613D01*
X370870692Y-39791562D01*
X370702224Y-39817817D01*
X370479554Y-39834021D01*
X370231458Y-39843220D01*
X369972360Y-39852427D01*
X369743518Y-39863625D01*
X369570597Y-39875362D01*
X369481791Y-39885626D01*
X369421321Y-39916337D01*
X369363715Y-39992899D01*
X369299806Y-40132635D01*
X369220431Y-40352864D01*
X369196081Y-40425593D01*
X369119028Y-40645393D01*
X369047589Y-40826757D01*
X368991410Y-40946343D01*
X368966789Y-40980502D01*
X368883266Y-41002879D01*
X368737321Y-41015735D01*
X368563781Y-41019153D01*
X368397478Y-41013219D01*
X368273239Y-40998017D01*
X368227189Y-40978706D01*
X368236282Y-40919740D01*
X368274347Y-40775677D01*
X368336509Y-40561692D01*
X368417890Y-40292963D01*
X368513614Y-39984666D01*
X368618805Y-39651977D01*
X368728585Y-39310072D01*
X368763238Y-39203749D01*
X369634827Y-39203749D01*
X369640534Y-39244335D01*
X369713474Y-39296667D01*
X369869504Y-39324298D01*
X370088646Y-39326555D01*
X370350918Y-39302764D01*
X370528506Y-39274248D01*
X370816657Y-39189790D01*
X371012453Y-39060224D01*
X371119642Y-38885614D01*
X371147740Y-38683730D01*
X371085624Y-38529940D01*
X370938255Y-38433371D01*
X370782074Y-38398782D01*
X370576880Y-38379438D01*
X370353230Y-38374920D01*
X370141680Y-38384810D01*
X369972787Y-38408688D01*
X369877105Y-38446136D01*
X369875196Y-38447947D01*
X369815438Y-38544936D01*
X369751111Y-38704342D01*
X369692627Y-38890834D01*
X369650395Y-39069080D01*
X369634827Y-39203749D01*
X368763238Y-39203749D01*
X368838077Y-38974129D01*
X368942406Y-38659323D01*
X369036695Y-38380831D01*
X369116066Y-38153830D01*
X369175644Y-37993496D01*
X369210551Y-37915005D01*
X369212573Y-37912146D01*
X369281839Y-37889762D01*
X369437467Y-37871760D01*
X369660071Y-37858228D01*
X369930266Y-37849256D01*
X370228667Y-37844933D01*
X370535890Y-37845347D01*
G36*
X415018833Y-37792972D02*
X415310157Y-37881722D01*
X415541034Y-38024752D01*
X415675257Y-38159343D01*
X415762902Y-38301614D01*
X415829132Y-38477328D01*
X415863658Y-38648266D01*
X415856188Y-38776206D01*
X415846825Y-38796558D01*
X415780481Y-38824029D01*
X415638767Y-38843709D01*
X415452082Y-38851414D01*
X415448109Y-38851417D01*
X415255457Y-38849382D01*
X415139843Y-38835563D01*
X415072473Y-38798390D01*
X415024552Y-38726293D01*
X414997352Y-38670298D01*
X414852521Y-38481362D01*
X414634548Y-38366976D01*
X414346916Y-38328686D01*
X414237805Y-38332975D01*
X413862450Y-38407844D01*
X413538054Y-38574174D01*
X413333887Y-38750045D01*
X413126027Y-39013118D01*
X412974746Y-39304892D01*
X412885664Y-39603420D01*
X412864398Y-39886754D01*
X412916567Y-40132946D01*
X412958773Y-40215340D01*
X413085485Y-40363207D01*
X413255042Y-40453602D01*
X413489904Y-40495737D01*
X413656893Y-40501684D01*
X413936182Y-40476259D01*
X414176483Y-40389289D01*
X414406709Y-40227008D01*
X414573687Y-40065106D01*
X414708410Y-39926988D01*
X414808943Y-39848884D01*
X414913570Y-39813687D01*
X415060579Y-39804288D01*
X415158201Y-39803917D01*
X415337187Y-39810828D01*
X415470196Y-39828852D01*
X415524743Y-39851363D01*
X415512270Y-39920852D01*
X415442229Y-40043641D01*
X415331678Y-40197985D01*
X415197675Y-40362138D01*
X415057278Y-40514357D01*
X414927545Y-40632895D01*
X414889362Y-40661341D01*
X414639794Y-40820109D01*
X414411502Y-40930065D01*
X414173393Y-41000185D01*
X413894377Y-41039441D01*
X413543362Y-41056810D01*
X413517291Y-41057396D01*
X413226364Y-41058115D01*
X412978095Y-41048228D01*
X412796117Y-41029088D01*
X412723541Y-41011947D01*
X412412523Y-40847811D01*
X412184783Y-40620171D01*
X412043215Y-40334358D01*
X411990708Y-39995705D01*
X412012918Y-39701488D01*
X412135184Y-39266835D01*
X412347371Y-38869463D01*
X412637441Y-38518284D01*
X412993356Y-38222206D01*
X413403077Y-37990141D01*
X413854567Y-37830998D01*
X414335787Y-37753689D01*
X414648140Y-37750979D01*
X415018833Y-37792972D01*
X415018833Y-37792972D01*
G37*
X415018833Y-37792972D02*
X415310157Y-37881722D01*
X415541034Y-38024752D01*
X415675257Y-38159343D01*
X415762902Y-38301614D01*
X415829132Y-38477328D01*
X415863658Y-38648266D01*
X415856188Y-38776206D01*
X415846825Y-38796558D01*
X415780481Y-38824029D01*
X415638767Y-38843709D01*
X415452082Y-38851414D01*
X415448109Y-38851417D01*
X415255457Y-38849382D01*
X415139843Y-38835563D01*
X415072473Y-38798390D01*
X415024552Y-38726293D01*
X414997352Y-38670298D01*
X414852521Y-38481362D01*
X414634548Y-38366976D01*
X414346916Y-38328686D01*
X414237805Y-38332975D01*
X413862450Y-38407844D01*
X413538054Y-38574174D01*
X413333887Y-38750045D01*
X413126027Y-39013118D01*
X412974746Y-39304892D01*
X412885664Y-39603420D01*
X412864398Y-39886754D01*
X412916567Y-40132946D01*
X412958773Y-40215340D01*
X413085485Y-40363207D01*
X413255042Y-40453602D01*
X413489904Y-40495737D01*
X413656893Y-40501684D01*
X413936182Y-40476259D01*
X414176483Y-40389289D01*
X414406709Y-40227008D01*
X414573687Y-40065106D01*
X414708410Y-39926988D01*
X414808943Y-39848884D01*
X414913570Y-39813687D01*
X415060579Y-39804288D01*
X415158201Y-39803917D01*
X415337187Y-39810828D01*
X415470196Y-39828852D01*
X415524743Y-39851363D01*
X415512270Y-39920852D01*
X415442229Y-40043641D01*
X415331678Y-40197985D01*
X415197675Y-40362138D01*
X415057278Y-40514357D01*
X414927545Y-40632895D01*
X414889362Y-40661341D01*
X414639794Y-40820109D01*
X414411502Y-40930065D01*
X414173393Y-41000185D01*
X413894377Y-41039441D01*
X413543362Y-41056810D01*
X413517291Y-41057396D01*
X413226364Y-41058115D01*
X412978095Y-41048228D01*
X412796117Y-41029088D01*
X412723541Y-41011947D01*
X412412523Y-40847811D01*
X412184783Y-40620171D01*
X412043215Y-40334358D01*
X411990708Y-39995705D01*
X412012918Y-39701488D01*
X412135184Y-39266835D01*
X412347371Y-38869463D01*
X412637441Y-38518284D01*
X412993356Y-38222206D01*
X413403077Y-37990141D01*
X413854567Y-37830998D01*
X414335787Y-37753689D01*
X414648140Y-37750979D01*
X415018833Y-37792972D01*
G36*
X403404406Y-37804582D02*
X403732091Y-37919205D01*
X403981017Y-38091013D01*
X404145288Y-38316296D01*
X404207667Y-38508618D01*
X404228642Y-38672832D01*
X404205175Y-38774584D01*
X404120406Y-38828450D01*
X403957478Y-38849006D01*
X403811226Y-38851417D01*
X403441632Y-38851417D01*
X403350655Y-38659698D01*
X403213729Y-38484755D01*
X403012393Y-38373906D01*
X402765634Y-38326088D01*
X402492440Y-38340239D01*
X402211798Y-38415295D01*
X401942697Y-38550194D01*
X401704124Y-38743873D01*
X401695963Y-38752328D01*
X401495074Y-39009676D01*
X401344678Y-39297860D01*
X401251603Y-39593257D01*
X401222675Y-39872245D01*
X401264722Y-40111200D01*
X401288039Y-40163694D01*
X401437980Y-40346789D01*
X401663200Y-40459098D01*
X401966403Y-40501892D01*
X402009602Y-40502417D01*
X402292957Y-40476843D01*
X402538569Y-40391741D01*
X402769909Y-40234536D01*
X403010451Y-39992658D01*
X403052670Y-39943717D01*
X403130461Y-39866296D01*
X403219230Y-39824086D01*
X403352905Y-39806773D01*
X403512568Y-39803917D01*
X403692367Y-39810418D01*
X403826033Y-39827390D01*
X403881674Y-39849093D01*
X403873732Y-39925972D01*
X403807260Y-40054510D01*
X403698703Y-40211667D01*
X403564506Y-40374406D01*
X403421113Y-40519689D01*
X403373927Y-40560408D01*
X403189461Y-40692647D01*
X402966654Y-40826582D01*
X402824427Y-40899462D01*
X402674953Y-40963825D01*
X402536244Y-41007285D01*
X402379640Y-41034750D01*
X402176483Y-41051126D01*
X401898114Y-41061320D01*
X401875625Y-41061915D01*
X401598493Y-41067297D01*
X401400644Y-41064305D01*
X401255651Y-41049660D01*
X401137085Y-41020085D01*
X401018519Y-40972303D01*
X400969848Y-40949586D01*
X400694166Y-40779746D01*
X400510214Y-40568754D01*
X400406858Y-40300021D01*
X400376319Y-40065533D01*
X400402023Y-39631566D01*
X400522314Y-39221009D01*
X400726926Y-38842906D01*
X401005594Y-38506301D01*
X401348051Y-38220238D01*
X401744031Y-37993760D01*
X402183267Y-37835911D01*
X402655495Y-37755735D01*
X403003854Y-37750853D01*
X403404406Y-37804582D01*
X403404406Y-37804582D01*
G37*
X403404406Y-37804582D02*
X403732091Y-37919205D01*
X403981017Y-38091013D01*
X404145288Y-38316296D01*
X404207667Y-38508618D01*
X404228642Y-38672832D01*
X404205175Y-38774584D01*
X404120406Y-38828450D01*
X403957478Y-38849006D01*
X403811226Y-38851417D01*
X403441632Y-38851417D01*
X403350655Y-38659698D01*
X403213729Y-38484755D01*
X403012393Y-38373906D01*
X402765634Y-38326088D01*
X402492440Y-38340239D01*
X402211798Y-38415295D01*
X401942697Y-38550194D01*
X401704124Y-38743873D01*
X401695963Y-38752328D01*
X401495074Y-39009676D01*
X401344678Y-39297860D01*
X401251603Y-39593257D01*
X401222675Y-39872245D01*
X401264722Y-40111200D01*
X401288039Y-40163694D01*
X401437980Y-40346789D01*
X401663200Y-40459098D01*
X401966403Y-40501892D01*
X402009602Y-40502417D01*
X402292957Y-40476843D01*
X402538569Y-40391741D01*
X402769909Y-40234536D01*
X403010451Y-39992658D01*
X403052670Y-39943717D01*
X403130461Y-39866296D01*
X403219230Y-39824086D01*
X403352905Y-39806773D01*
X403512568Y-39803917D01*
X403692367Y-39810418D01*
X403826033Y-39827390D01*
X403881674Y-39849093D01*
X403873732Y-39925972D01*
X403807260Y-40054510D01*
X403698703Y-40211667D01*
X403564506Y-40374406D01*
X403421113Y-40519689D01*
X403373927Y-40560408D01*
X403189461Y-40692647D01*
X402966654Y-40826582D01*
X402824427Y-40899462D01*
X402674953Y-40963825D01*
X402536244Y-41007285D01*
X402379640Y-41034750D01*
X402176483Y-41051126D01*
X401898114Y-41061320D01*
X401875625Y-41061915D01*
X401598493Y-41067297D01*
X401400644Y-41064305D01*
X401255651Y-41049660D01*
X401137085Y-41020085D01*
X401018519Y-40972303D01*
X400969848Y-40949586D01*
X400694166Y-40779746D01*
X400510214Y-40568754D01*
X400406858Y-40300021D01*
X400376319Y-40065533D01*
X400402023Y-39631566D01*
X400522314Y-39221009D01*
X400726926Y-38842906D01*
X401005594Y-38506301D01*
X401348051Y-38220238D01*
X401744031Y-37993760D01*
X402183267Y-37835911D01*
X402655495Y-37755735D01*
X403003854Y-37750853D01*
X403404406Y-37804582D01*
G36*
X387660695Y-37822245D02*
X387864953Y-37831947D01*
X388015017Y-37852484D01*
X388136670Y-37887323D01*
X388250739Y-37937480D01*
X388479377Y-38095429D01*
X388623507Y-38296153D01*
X388672916Y-38522373D01*
X388652075Y-38660801D01*
X388578724Y-38745430D01*
X388436624Y-38785154D01*
X388209535Y-38788868D01*
X388188057Y-38787916D01*
X388003767Y-38775387D01*
X387900172Y-38753490D01*
X387852136Y-38712667D01*
X387835936Y-38654034D01*
X387763479Y-38495359D01*
X387603995Y-38385150D01*
X387367089Y-38328704D01*
X387234402Y-38322250D01*
X387029978Y-38336040D01*
X386848260Y-38371653D01*
X386768501Y-38401323D01*
X386620340Y-38506988D01*
X386504915Y-38640606D01*
X386451327Y-38767308D01*
X386450416Y-38782457D01*
X386503013Y-38863882D01*
X386659557Y-38946466D01*
X386918181Y-39029410D01*
X387164791Y-39088522D01*
X387572790Y-39188288D01*
X387884382Y-39292698D01*
X388108986Y-39407806D01*
X388256019Y-39539663D01*
X388334899Y-39694323D01*
X388355416Y-39853714D01*
X388304317Y-40155935D01*
X388152539Y-40430809D01*
X387902361Y-40675494D01*
X387556059Y-40887147D01*
X387508750Y-40909910D01*
X387378620Y-40966491D01*
X387255172Y-41005667D01*
X387113639Y-41031109D01*
X386929253Y-41046491D01*
X386677249Y-41055484D01*
X386503333Y-41058995D01*
X386162292Y-41060812D01*
X385908304Y-41051706D01*
X385723027Y-41030358D01*
X385588116Y-40995453D01*
X385580800Y-40992739D01*
X385315140Y-40848161D01*
X385129523Y-40651255D01*
X385033326Y-40413816D01*
X385021666Y-40289274D01*
X385045162Y-40148727D01*
X385128349Y-40058221D01*
X385290278Y-40001538D01*
X385378981Y-39985082D01*
X385618724Y-39966907D01*
X385777611Y-40005719D01*
X385866334Y-40105411D01*
X385885907Y-40169599D01*
X385973866Y-40362529D01*
X386141873Y-40498690D01*
X386378045Y-40573747D01*
X386670500Y-40583366D01*
X386916795Y-40545664D01*
X387156525Y-40465043D01*
X387336396Y-40351460D01*
X387446471Y-40218518D01*
X387476812Y-40079822D01*
X387417482Y-39948974D01*
X387379500Y-39912275D01*
X387305149Y-39878622D01*
X387150571Y-39826731D01*
X386938305Y-39763660D01*
X386690887Y-39696471D01*
X386689156Y-39696021D01*
X386318259Y-39593523D01*
X386039755Y-39499306D01*
X385841484Y-39405238D01*
X385711284Y-39303189D01*
X385636996Y-39185026D01*
X385606459Y-39042618D01*
X385603750Y-38970235D01*
X385655405Y-38686892D01*
X385807930Y-38424496D01*
X386057665Y-38187437D01*
X386400950Y-37980106D01*
X386448002Y-37957552D01*
X386585534Y-37897904D01*
X386712564Y-37858411D01*
X386856640Y-37834991D01*
X387045308Y-37823559D01*
X387306115Y-37820031D01*
X387376458Y-37819910D01*
X387660695Y-37822245D01*
X387660695Y-37822245D01*
G37*
X387660695Y-37822245D02*
X387864953Y-37831947D01*
X388015017Y-37852484D01*
X388136670Y-37887323D01*
X388250739Y-37937480D01*
X388479377Y-38095429D01*
X388623507Y-38296153D01*
X388672916Y-38522373D01*
X388652075Y-38660801D01*
X388578724Y-38745430D01*
X388436624Y-38785154D01*
X388209535Y-38788868D01*
X388188057Y-38787916D01*
X388003767Y-38775387D01*
X387900172Y-38753490D01*
X387852136Y-38712667D01*
X387835936Y-38654034D01*
X387763479Y-38495359D01*
X387603995Y-38385150D01*
X387367089Y-38328704D01*
X387234402Y-38322250D01*
X387029978Y-38336040D01*
X386848260Y-38371653D01*
X386768501Y-38401323D01*
X386620340Y-38506988D01*
X386504915Y-38640606D01*
X386451327Y-38767308D01*
X386450416Y-38782457D01*
X386503013Y-38863882D01*
X386659557Y-38946466D01*
X386918181Y-39029410D01*
X387164791Y-39088522D01*
X387572790Y-39188288D01*
X387884382Y-39292698D01*
X388108986Y-39407806D01*
X388256019Y-39539663D01*
X388334899Y-39694323D01*
X388355416Y-39853714D01*
X388304317Y-40155935D01*
X388152539Y-40430809D01*
X387902361Y-40675494D01*
X387556059Y-40887147D01*
X387508750Y-40909910D01*
X387378620Y-40966491D01*
X387255172Y-41005667D01*
X387113639Y-41031109D01*
X386929253Y-41046491D01*
X386677249Y-41055484D01*
X386503333Y-41058995D01*
X386162292Y-41060812D01*
X385908304Y-41051706D01*
X385723027Y-41030358D01*
X385588116Y-40995453D01*
X385580800Y-40992739D01*
X385315140Y-40848161D01*
X385129523Y-40651255D01*
X385033326Y-40413816D01*
X385021666Y-40289274D01*
X385045162Y-40148727D01*
X385128349Y-40058221D01*
X385290278Y-40001538D01*
X385378981Y-39985082D01*
X385618724Y-39966907D01*
X385777611Y-40005719D01*
X385866334Y-40105411D01*
X385885907Y-40169599D01*
X385973866Y-40362529D01*
X386141873Y-40498690D01*
X386378045Y-40573747D01*
X386670500Y-40583366D01*
X386916795Y-40545664D01*
X387156525Y-40465043D01*
X387336396Y-40351460D01*
X387446471Y-40218518D01*
X387476812Y-40079822D01*
X387417482Y-39948974D01*
X387379500Y-39912275D01*
X387305149Y-39878622D01*
X387150571Y-39826731D01*
X386938305Y-39763660D01*
X386690887Y-39696471D01*
X386689156Y-39696021D01*
X386318259Y-39593523D01*
X386039755Y-39499306D01*
X385841484Y-39405238D01*
X385711284Y-39303189D01*
X385636996Y-39185026D01*
X385606459Y-39042618D01*
X385603750Y-38970235D01*
X385655405Y-38686892D01*
X385807930Y-38424496D01*
X386057665Y-38187437D01*
X386400950Y-37980106D01*
X386448002Y-37957552D01*
X386585534Y-37897904D01*
X386712564Y-37858411D01*
X386856640Y-37834991D01*
X387045308Y-37823559D01*
X387306115Y-37820031D01*
X387376458Y-37819910D01*
X387660695Y-37822245D01*
G36*
X382661894Y-37799331D02*
X382984968Y-37903187D01*
X383233156Y-38056172D01*
X383398817Y-38252820D01*
X383474310Y-38487670D01*
X383476334Y-38611569D01*
X383460625Y-38824959D01*
X382705219Y-38855813D01*
X382649508Y-38696002D01*
X382532187Y-38505130D01*
X382337564Y-38385205D01*
X382064799Y-38335832D01*
X381890313Y-38338003D01*
X381512497Y-38411630D01*
X381179677Y-38575833D01*
X380901735Y-38821350D01*
X380688551Y-39138920D01*
X380550006Y-39519282D01*
X380530039Y-39613055D01*
X380511862Y-39914784D01*
X380581986Y-40161050D01*
X380741024Y-40356141D01*
X380856579Y-40434755D01*
X380991683Y-40480824D01*
X381173258Y-40499361D01*
X381428225Y-40495380D01*
X381476250Y-40493059D01*
X381704697Y-40438563D01*
X381948926Y-40309639D01*
X382176144Y-40125888D01*
X382277531Y-40014129D01*
X382371233Y-39903120D01*
X382450927Y-39840260D01*
X382551161Y-39811858D01*
X382706485Y-39804224D01*
X382808023Y-39803917D01*
X383020946Y-39810904D01*
X383136537Y-39840848D01*
X383162868Y-39907226D01*
X383108015Y-40023511D01*
X383017288Y-40153165D01*
X382723723Y-40495867D01*
X382405979Y-40751829D01*
X382048344Y-40928425D01*
X381635101Y-41033028D01*
X381150535Y-41073013D01*
X381055022Y-41073917D01*
X380790176Y-41071084D01*
X380600922Y-41059301D01*
X380457095Y-41033643D01*
X380328528Y-40989183D01*
X380217000Y-40937072D01*
X379940631Y-40746625D01*
X379748990Y-40497293D01*
X379644607Y-40196856D01*
X379630013Y-39853097D01*
X379707739Y-39473795D01*
X379724530Y-39422938D01*
X379933368Y-38971737D01*
X380223171Y-38579662D01*
X380582516Y-38254216D01*
X380999981Y-38002900D01*
X381464142Y-37833218D01*
X381963575Y-37752673D01*
X382271573Y-37750066D01*
X382661894Y-37799331D01*
X382661894Y-37799331D01*
G37*
X382661894Y-37799331D02*
X382984968Y-37903187D01*
X383233156Y-38056172D01*
X383398817Y-38252820D01*
X383474310Y-38487670D01*
X383476334Y-38611569D01*
X383460625Y-38824959D01*
X382705219Y-38855813D01*
X382649508Y-38696002D01*
X382532187Y-38505130D01*
X382337564Y-38385205D01*
X382064799Y-38335832D01*
X381890313Y-38338003D01*
X381512497Y-38411630D01*
X381179677Y-38575833D01*
X380901735Y-38821350D01*
X380688551Y-39138920D01*
X380550006Y-39519282D01*
X380530039Y-39613055D01*
X380511862Y-39914784D01*
X380581986Y-40161050D01*
X380741024Y-40356141D01*
X380856579Y-40434755D01*
X380991683Y-40480824D01*
X381173258Y-40499361D01*
X381428225Y-40495380D01*
X381476250Y-40493059D01*
X381704697Y-40438563D01*
X381948926Y-40309639D01*
X382176144Y-40125888D01*
X382277531Y-40014129D01*
X382371233Y-39903120D01*
X382450927Y-39840260D01*
X382551161Y-39811858D01*
X382706485Y-39804224D01*
X382808023Y-39803917D01*
X383020946Y-39810904D01*
X383136537Y-39840848D01*
X383162868Y-39907226D01*
X383108015Y-40023511D01*
X383017288Y-40153165D01*
X382723723Y-40495867D01*
X382405979Y-40751829D01*
X382048344Y-40928425D01*
X381635101Y-41033028D01*
X381150535Y-41073013D01*
X381055022Y-41073917D01*
X380790176Y-41071084D01*
X380600922Y-41059301D01*
X380457095Y-41033643D01*
X380328528Y-40989183D01*
X380217000Y-40937072D01*
X379940631Y-40746625D01*
X379748990Y-40497293D01*
X379644607Y-40196856D01*
X379630013Y-39853097D01*
X379707739Y-39473795D01*
X379724530Y-39422938D01*
X379933368Y-38971737D01*
X380223171Y-38579662D01*
X380582516Y-38254216D01*
X380999981Y-38002900D01*
X381464142Y-37833218D01*
X381963575Y-37752673D01*
X382271573Y-37750066D01*
X382661894Y-37799331D01*
G36*
X374190435Y-37841222D02*
X374511731Y-37848777D01*
X374810303Y-37861531D01*
X375067811Y-37879358D01*
X375265915Y-37902131D01*
X375386274Y-37929726D01*
X375386616Y-37929862D01*
X375592249Y-38046226D01*
X375711476Y-38205135D01*
X375754277Y-38424002D01*
X375749937Y-38563782D01*
X375677756Y-38861669D01*
X375511539Y-39120345D01*
X375247291Y-39345807D01*
X375214572Y-39367236D01*
X375083363Y-39451331D01*
X374994332Y-39508569D01*
X374974144Y-39521668D01*
X374991939Y-39565792D01*
X375060466Y-39660042D01*
X375090872Y-39697134D01*
X375157895Y-39787303D01*
X375197035Y-39879544D01*
X375209283Y-39996300D01*
X375195633Y-40160017D01*
X375157080Y-40393140D01*
X375128387Y-40544750D01*
X375080950Y-40775721D01*
X375035425Y-40922640D01*
X374975071Y-41005633D01*
X374883152Y-41044826D01*
X374742926Y-41060344D01*
X374697397Y-41062935D01*
X374463366Y-41060244D01*
X374319710Y-41016035D01*
X374256332Y-40922047D01*
X374263135Y-40770016D01*
X374275715Y-40717864D01*
X374315950Y-40519640D01*
X374342271Y-40300829D01*
X374345236Y-40251810D01*
X374338678Y-40074745D01*
X374291539Y-39950227D01*
X374189542Y-39869702D01*
X374018409Y-39824616D01*
X373763863Y-39806416D01*
X373599033Y-39804727D01*
X373372989Y-39808914D01*
X373185093Y-39819492D01*
X373061764Y-39834618D01*
X373030710Y-39844415D01*
X372990958Y-39908373D01*
X372929522Y-40050467D01*
X372855770Y-40247653D01*
X372799761Y-40412459D01*
X372720107Y-40639161D01*
X372642179Y-40831077D01*
X372576583Y-40963555D01*
X372543625Y-41007771D01*
X372440038Y-41046166D01*
X372275009Y-41067779D01*
X372091802Y-41071258D01*
X371933676Y-41055248D01*
X371856968Y-41029260D01*
X371844054Y-40993264D01*
X371852038Y-40908219D01*
X371883245Y-40765533D01*
X371939997Y-40556613D01*
X372024617Y-40272868D01*
X372139428Y-39905706D01*
X372275202Y-39482257D01*
X372353719Y-39241202D01*
X373238248Y-39241202D01*
X373240669Y-39249030D01*
X373281378Y-39289668D01*
X373377764Y-39314199D01*
X373548453Y-39325707D01*
X373715682Y-39327667D01*
X373946505Y-39323566D01*
X374157502Y-39312699D01*
X374309966Y-39297220D01*
X374331948Y-39293381D01*
X374520877Y-39214562D01*
X374690397Y-39073661D01*
X374813116Y-38900308D01*
X374861640Y-38724136D01*
X374861666Y-38720362D01*
X374844003Y-38580980D01*
X374781485Y-38483392D01*
X374659819Y-38421005D01*
X374464713Y-38387225D01*
X374181874Y-38375459D01*
X374113386Y-38375167D01*
X373882919Y-38378362D01*
X373686873Y-38386940D01*
X373553230Y-38399393D01*
X373516397Y-38407372D01*
X373460547Y-38472155D01*
X373394612Y-38608987D01*
X373329004Y-38786088D01*
X373274133Y-38971678D01*
X373240410Y-39133976D01*
X373238248Y-39241202D01*
X372353719Y-39241202D01*
X372399536Y-39100544D01*
X372515546Y-38750075D01*
X372618753Y-38443943D01*
X372704674Y-38195244D01*
X372768830Y-38017070D01*
X372806738Y-37922516D01*
X372812525Y-37912146D01*
X372885016Y-37885855D01*
X373044824Y-37865520D01*
X373273611Y-37851015D01*
X373553035Y-37842215D01*
X373864757Y-37838993D01*
X374190435Y-37841222D01*
X374190435Y-37841222D01*
G37*
X374190435Y-37841222D02*
X374511731Y-37848777D01*
X374810303Y-37861531D01*
X375067811Y-37879358D01*
X375265915Y-37902131D01*
X375386274Y-37929726D01*
X375386616Y-37929862D01*
X375592249Y-38046226D01*
X375711476Y-38205135D01*
X375754277Y-38424002D01*
X375749937Y-38563782D01*
X375677756Y-38861669D01*
X375511539Y-39120345D01*
X375247291Y-39345807D01*
X375214572Y-39367236D01*
X375083363Y-39451331D01*
X374994332Y-39508569D01*
X374974144Y-39521668D01*
X374991939Y-39565792D01*
X375060466Y-39660042D01*
X375090872Y-39697134D01*
X375157895Y-39787303D01*
X375197035Y-39879544D01*
X375209283Y-39996300D01*
X375195633Y-40160017D01*
X375157080Y-40393140D01*
X375128387Y-40544750D01*
X375080950Y-40775721D01*
X375035425Y-40922640D01*
X374975071Y-41005633D01*
X374883152Y-41044826D01*
X374742926Y-41060344D01*
X374697397Y-41062935D01*
X374463366Y-41060244D01*
X374319710Y-41016035D01*
X374256332Y-40922047D01*
X374263135Y-40770016D01*
X374275715Y-40717864D01*
X374315950Y-40519640D01*
X374342271Y-40300829D01*
X374345236Y-40251810D01*
X374338678Y-40074745D01*
X374291539Y-39950227D01*
X374189542Y-39869702D01*
X374018409Y-39824616D01*
X373763863Y-39806416D01*
X373599033Y-39804727D01*
X373372989Y-39808914D01*
X373185093Y-39819492D01*
X373061764Y-39834618D01*
X373030710Y-39844415D01*
X372990958Y-39908373D01*
X372929522Y-40050467D01*
X372855770Y-40247653D01*
X372799761Y-40412459D01*
X372720107Y-40639161D01*
X372642179Y-40831077D01*
X372576583Y-40963555D01*
X372543625Y-41007771D01*
X372440038Y-41046166D01*
X372275009Y-41067779D01*
X372091802Y-41071258D01*
X371933676Y-41055248D01*
X371856968Y-41029260D01*
X371844054Y-40993264D01*
X371852038Y-40908219D01*
X371883245Y-40765533D01*
X371939997Y-40556613D01*
X372024617Y-40272868D01*
X372139428Y-39905706D01*
X372275202Y-39482257D01*
X372353719Y-39241202D01*
X373238248Y-39241202D01*
X373240669Y-39249030D01*
X373281378Y-39289668D01*
X373377764Y-39314199D01*
X373548453Y-39325707D01*
X373715682Y-39327667D01*
X373946505Y-39323566D01*
X374157502Y-39312699D01*
X374309966Y-39297220D01*
X374331948Y-39293381D01*
X374520877Y-39214562D01*
X374690397Y-39073661D01*
X374813116Y-38900308D01*
X374861640Y-38724136D01*
X374861666Y-38720362D01*
X374844003Y-38580980D01*
X374781485Y-38483392D01*
X374659819Y-38421005D01*
X374464713Y-38387225D01*
X374181874Y-38375459D01*
X374113386Y-38375167D01*
X373882919Y-38378362D01*
X373686873Y-38386940D01*
X373553230Y-38399393D01*
X373516397Y-38407372D01*
X373460547Y-38472155D01*
X373394612Y-38608987D01*
X373329004Y-38786088D01*
X373274133Y-38971678D01*
X373240410Y-39133976D01*
X373238248Y-39241202D01*
X372353719Y-39241202D01*
X372399536Y-39100544D01*
X372515546Y-38750075D01*
X372618753Y-38443943D01*
X372704674Y-38195244D01*
X372768830Y-38017070D01*
X372806738Y-37922516D01*
X372812525Y-37912146D01*
X372885016Y-37885855D01*
X373044824Y-37865520D01*
X373273611Y-37851015D01*
X373553035Y-37842215D01*
X373864757Y-37838993D01*
X374190435Y-37841222D01*
G36*
X410474923Y-37774880D02*
X410821049Y-37833226D01*
X411115341Y-37929434D01*
X411164527Y-37952868D01*
X411411310Y-38131792D01*
X411581454Y-38368245D01*
X411677265Y-38649270D01*
X411701050Y-38961910D01*
X411655117Y-39293209D01*
X411541771Y-39630209D01*
X411363319Y-39959955D01*
X411122068Y-40269488D01*
X410820325Y-40545852D01*
X410685678Y-40642560D01*
X410258018Y-40871309D01*
X409785679Y-41024802D01*
X409297972Y-41096322D01*
X408824208Y-41079153D01*
X408797403Y-41075238D01*
X408417063Y-40977865D01*
X408116111Y-40815907D01*
X407897885Y-40592741D01*
X407765724Y-40311744D01*
X407722916Y-39988192D01*
X407729247Y-39935421D01*
X408570820Y-39935421D01*
X408584969Y-40049501D01*
X408640761Y-40144911D01*
X408753597Y-40264953D01*
X408767768Y-40279136D01*
X408885401Y-40391388D01*
X408981000Y-40455014D01*
X409092096Y-40483802D01*
X409256223Y-40491542D01*
X409346717Y-40491834D01*
X409597105Y-40479733D01*
X409796983Y-40435869D01*
X409985586Y-40355983D01*
X410313828Y-40135699D01*
X410569587Y-39843737D01*
X410744140Y-39492887D01*
X410826139Y-39123191D01*
X410822295Y-38828840D01*
X410740554Y-38603779D01*
X410579200Y-38443832D01*
X410536684Y-38419001D01*
X410364941Y-38367287D01*
X410131241Y-38347739D01*
X409873923Y-38358733D01*
X409631325Y-38398645D01*
X409442708Y-38465357D01*
X409127313Y-38690184D01*
X408869350Y-38988779D01*
X408684337Y-39337790D01*
X408587789Y-39713865D01*
X408582915Y-39759368D01*
X408570820Y-39935421D01*
X407729247Y-39935421D01*
X407773075Y-39570128D01*
X407915973Y-39156825D01*
X408140244Y-38772089D01*
X408434524Y-38439726D01*
X408482556Y-38397100D01*
X408744035Y-38211549D01*
X409071155Y-38037271D01*
X409423971Y-37892777D01*
X409762537Y-37796578D01*
X409790470Y-37791012D01*
X410117787Y-37759206D01*
X410474923Y-37774880D01*
X410474923Y-37774880D01*
G37*
X410474923Y-37774880D02*
X410821049Y-37833226D01*
X411115341Y-37929434D01*
X411164527Y-37952868D01*
X411411310Y-38131792D01*
X411581454Y-38368245D01*
X411677265Y-38649270D01*
X411701050Y-38961910D01*
X411655117Y-39293209D01*
X411541771Y-39630209D01*
X411363319Y-39959955D01*
X411122068Y-40269488D01*
X410820325Y-40545852D01*
X410685678Y-40642560D01*
X410258018Y-40871309D01*
X409785679Y-41024802D01*
X409297972Y-41096322D01*
X408824208Y-41079153D01*
X408797403Y-41075238D01*
X408417063Y-40977865D01*
X408116111Y-40815907D01*
X407897885Y-40592741D01*
X407765724Y-40311744D01*
X407722916Y-39988192D01*
X407729247Y-39935421D01*
X408570820Y-39935421D01*
X408584969Y-40049501D01*
X408640761Y-40144911D01*
X408753597Y-40264953D01*
X408767768Y-40279136D01*
X408885401Y-40391388D01*
X408981000Y-40455014D01*
X409092096Y-40483802D01*
X409256223Y-40491542D01*
X409346717Y-40491834D01*
X409597105Y-40479733D01*
X409796983Y-40435869D01*
X409985586Y-40355983D01*
X410313828Y-40135699D01*
X410569587Y-39843737D01*
X410744140Y-39492887D01*
X410826139Y-39123191D01*
X410822295Y-38828840D01*
X410740554Y-38603779D01*
X410579200Y-38443832D01*
X410536684Y-38419001D01*
X410364941Y-38367287D01*
X410131241Y-38347739D01*
X409873923Y-38358733D01*
X409631325Y-38398645D01*
X409442708Y-38465357D01*
X409127313Y-38690184D01*
X408869350Y-38988779D01*
X408684337Y-39337790D01*
X408587789Y-39713865D01*
X408582915Y-39759368D01*
X408570820Y-39935421D01*
X407729247Y-39935421D01*
X407773075Y-39570128D01*
X407915973Y-39156825D01*
X408140244Y-38772089D01*
X408434524Y-38439726D01*
X408482556Y-38397100D01*
X408744035Y-38211549D01*
X409071155Y-38037271D01*
X409423971Y-37892777D01*
X409762537Y-37796578D01*
X409790470Y-37791012D01*
X410117787Y-37759206D01*
X410474923Y-37774880D01*
G36*
X393308930Y-37772419D02*
X393676037Y-37842312D01*
X393993251Y-37966929D01*
X394194896Y-38103611D01*
X394374174Y-38328265D01*
X394477738Y-38609170D01*
X394507202Y-38930312D01*
X394464177Y-39275683D01*
X394350276Y-39629270D01*
X394167110Y-39975064D01*
X393981394Y-40224179D01*
X393655532Y-40528892D01*
X393258616Y-40777181D01*
X392813866Y-40960721D01*
X392344501Y-41071185D01*
X391873739Y-41100247D01*
X391605909Y-41076020D01*
X391253864Y-40983208D01*
X390955233Y-40826757D01*
X390725667Y-40617739D01*
X390580815Y-40367224D01*
X390573275Y-40345479D01*
X390526230Y-40063764D01*
X390545920Y-39736264D01*
X390547604Y-39729288D01*
X391395242Y-39729288D01*
X391410734Y-39979403D01*
X391480995Y-40185284D01*
X391534265Y-40259329D01*
X391652512Y-40367050D01*
X391763566Y-40439203D01*
X391768541Y-40441350D01*
X391942046Y-40479493D01*
X392173548Y-40487669D01*
X392420225Y-40468097D01*
X392639252Y-40422995D01*
X392724501Y-40391799D01*
X393010075Y-40218560D01*
X393253318Y-39987157D01*
X393445842Y-39715909D01*
X393579264Y-39423133D01*
X393645196Y-39127149D01*
X393635254Y-38846275D01*
X393543465Y-38602752D01*
X393391092Y-38451516D01*
X393161468Y-38358987D01*
X392868130Y-38329483D01*
X392714564Y-38338362D01*
X392354507Y-38426941D01*
X392029969Y-38613283D01*
X391745603Y-38893921D01*
X391529179Y-39221834D01*
X391434672Y-39466308D01*
X391395242Y-39729288D01*
X390547604Y-39729288D01*
X390628132Y-39395728D01*
X390726385Y-39155322D01*
X390990351Y-38736075D01*
X391334198Y-38382602D01*
X391751099Y-38099994D01*
X392234229Y-37893343D01*
X392524819Y-37814104D01*
X392916875Y-37761575D01*
X393308930Y-37772419D01*
X393308930Y-37772419D01*
G37*
X393308930Y-37772419D02*
X393676037Y-37842312D01*
X393993251Y-37966929D01*
X394194896Y-38103611D01*
X394374174Y-38328265D01*
X394477738Y-38609170D01*
X394507202Y-38930312D01*
X394464177Y-39275683D01*
X394350276Y-39629270D01*
X394167110Y-39975064D01*
X393981394Y-40224179D01*
X393655532Y-40528892D01*
X393258616Y-40777181D01*
X392813866Y-40960721D01*
X392344501Y-41071185D01*
X391873739Y-41100247D01*
X391605909Y-41076020D01*
X391253864Y-40983208D01*
X390955233Y-40826757D01*
X390725667Y-40617739D01*
X390580815Y-40367224D01*
X390573275Y-40345479D01*
X390526230Y-40063764D01*
X390545920Y-39736264D01*
X390547604Y-39729288D01*
X391395242Y-39729288D01*
X391410734Y-39979403D01*
X391480995Y-40185284D01*
X391534265Y-40259329D01*
X391652512Y-40367050D01*
X391763566Y-40439203D01*
X391768541Y-40441350D01*
X391942046Y-40479493D01*
X392173548Y-40487669D01*
X392420225Y-40468097D01*
X392639252Y-40422995D01*
X392724501Y-40391799D01*
X393010075Y-40218560D01*
X393253318Y-39987157D01*
X393445842Y-39715909D01*
X393579264Y-39423133D01*
X393645196Y-39127149D01*
X393635254Y-38846275D01*
X393543465Y-38602752D01*
X393391092Y-38451516D01*
X393161468Y-38358987D01*
X392868130Y-38329483D01*
X392714564Y-38338362D01*
X392354507Y-38426941D01*
X392029969Y-38613283D01*
X391745603Y-38893921D01*
X391529179Y-39221834D01*
X391434672Y-39466308D01*
X391395242Y-39729288D01*
X390547604Y-39729288D01*
X390628132Y-39395728D01*
X390726385Y-39155322D01*
X390990351Y-38736075D01*
X391334198Y-38382602D01*
X391751099Y-38099994D01*
X392234229Y-37893343D01*
X392524819Y-37814104D01*
X392916875Y-37761575D01*
X393308930Y-37772419D01*
D16*
G04 #@! TO.C,D_PPS1*
X88900000Y-27305000D02*
X88900000Y-23495000D01*
X88901323Y-23496765D02*
G75*
G03X88900000Y-27305000I-2541323J-1903235D01*
G01*
D17*
G04 #@! TO.C,C3*
X259729000Y-26893000D02*
X258471000Y-26893000D01*
X259729000Y-28733000D02*
X258471000Y-28733000D01*
G04 #@! TO.C,C1*
X213907000Y-27265000D02*
X214222000Y-27265000D01*
X211482000Y-27265000D02*
X211797000Y-27265000D01*
X213907000Y-32505000D02*
X214222000Y-32505000D01*
X211482000Y-32505000D02*
X211797000Y-32505000D01*
X214222000Y-32505000D02*
X214222000Y-27265000D01*
X211482000Y-32505000D02*
X211482000Y-27265000D01*
G04 #@! TO.C,C2*
X203620000Y-23709000D02*
X203935000Y-23709000D01*
X201195000Y-23709000D02*
X201510000Y-23709000D01*
X203620000Y-28949000D02*
X203935000Y-28949000D01*
X201195000Y-28949000D02*
X201510000Y-28949000D01*
X203935000Y-28949000D02*
X203935000Y-23709000D01*
X201195000Y-28949000D02*
X201195000Y-23709000D01*
G04 #@! TO.C,JP1*
X291398000Y-29778000D02*
X291398000Y-27118000D01*
X288798000Y-29778000D02*
X291398000Y-29778000D01*
X288798000Y-27118000D02*
X291398000Y-27118000D01*
X288798000Y-29778000D02*
X288798000Y-27118000D01*
X287528000Y-29778000D02*
X286198000Y-29778000D01*
X286198000Y-29778000D02*
X286198000Y-28448000D01*
G04 #@! TO.C,U_GPS1*
X71060000Y-40700000D02*
X73720000Y-40700000D01*
X71060000Y-30480000D02*
X71060000Y-40700000D01*
X73720000Y-30480000D02*
X73720000Y-40700000D01*
X71060000Y-30480000D02*
X73720000Y-30480000D01*
X71060000Y-29210000D02*
X71060000Y-27880000D01*
X71060000Y-27880000D02*
X72390000Y-27880000D01*
G04 #@! TO.C,LDR*
X493640000Y-27990000D02*
X493640000Y-25340000D01*
X489340000Y-27990000D02*
X489340000Y-25340000D01*
X489355612Y-28015476D02*
G75*
G03X493640000Y-27990000I2134388J1325476D01*
G01*
X493622144Y-25311973D02*
G75*
G03X489340000Y-25340000I-2132144J-1378027D01*
G01*
G04 #@! TO.C,U_CONTROL1*
X256480000Y-33290000D02*
G75*
G02X256480000Y-35290000I0J-1000000D01*
G01*
X256480000Y-35290000D02*
X256480000Y-36940000D01*
X256480000Y-36940000D02*
X282000000Y-36940000D01*
X282000000Y-36940000D02*
X282000000Y-31640000D01*
X282000000Y-31640000D02*
X256480000Y-31640000D01*
X256480000Y-31640000D02*
X256480000Y-33290000D01*
G04 #@! TO.C,UDateDrv1*
X315535000Y-31640000D02*
X315535000Y-33290000D01*
X346135000Y-31640000D02*
X315535000Y-31640000D01*
X346135000Y-36940000D02*
X346135000Y-31640000D01*
X315535000Y-36940000D02*
X346135000Y-36940000D01*
X315535000Y-35290000D02*
X315535000Y-36940000D01*
X315535000Y-33290000D02*
G75*
G02X315535000Y-35290000I0J-1000000D01*
G01*
G04 #@! TO.C,UTimeDrv1*
X135195000Y-33290000D02*
G75*
G02X135195000Y-35290000I0J-1000000D01*
G01*
X135195000Y-35290000D02*
X135195000Y-36940000D01*
X135195000Y-36940000D02*
X165795000Y-36940000D01*
X165795000Y-36940000D02*
X165795000Y-31640000D01*
X165795000Y-31640000D02*
X135195000Y-31640000D01*
X135195000Y-31640000D02*
X135195000Y-33290000D01*
G04 #@! TO.C,Q2*
X442540000Y-36090000D02*
X442540000Y-32490000D01*
X442528478Y-36128478D02*
G75*
G02X438090000Y-34290000I-1838478J1838478D01*
G01*
X442528478Y-32451522D02*
G75*
G03X438090000Y-34290000I-1838478J-1838478D01*
G01*
G04 #@! TO.C,Q1*
X447608478Y-32451522D02*
G75*
G03X443170000Y-34290000I-1838478J-1838478D01*
G01*
X447608478Y-36128478D02*
G75*
G02X443170000Y-34290000I-1838478J1838478D01*
G01*
X447620000Y-36090000D02*
X447620000Y-32490000D01*
G04 #@! TO.C,U1*
X205795000Y-24489000D02*
X205795000Y-28089000D01*
X205806522Y-24450522D02*
G75*
G02X210245000Y-26289000I1838478J-1838478D01*
G01*
X205806522Y-28127478D02*
G75*
G03X210245000Y-26289000I1838478J1838478D01*
G01*
G04 #@! TO.C,R_Max_Bright1*
X468118154Y-29375392D02*
G75*
G02X471210000Y-27170000I3091846J-1064608D01*
G01*
X472693968Y-33353829D02*
G75*
G02X468118000Y-31504000I-1483968J2913829D01*
G01*
X474123387Y-28954798D02*
G75*
G02X474124000Y-31924000I-2913387J-1485202D01*
G01*
X471153137Y-27169925D02*
G75*
G02X472695000Y-27526000I56863J-3270075D01*
G01*
G04 #@! TO.C,R_PPS1*
X98520000Y-26770000D02*
X98520000Y-26440000D01*
X91980000Y-26770000D02*
X98520000Y-26770000D01*
X91980000Y-26440000D02*
X91980000Y-26770000D01*
X98520000Y-24030000D02*
X98520000Y-24360000D01*
X91980000Y-24030000D02*
X98520000Y-24030000D01*
X91980000Y-24360000D02*
X91980000Y-24030000D01*
G04 #@! TO.C,R_Min_Bright1*
X479330000Y-26570000D02*
X479330000Y-26900000D01*
X485870000Y-26570000D02*
X479330000Y-26570000D01*
X485870000Y-26900000D02*
X485870000Y-26570000D01*
X479330000Y-29310000D02*
X479330000Y-28980000D01*
X485870000Y-29310000D02*
X479330000Y-29310000D01*
X485870000Y-28980000D02*
X485870000Y-29310000D01*
G04 #@! TO.C,J1*
X487950000Y-34770000D02*
X496450000Y-34770000D01*
X496450000Y-34770000D02*
X496450000Y-43970000D01*
X496450000Y-43970000D02*
X481750000Y-43970000D01*
X481750000Y-36870000D02*
X481750000Y-34770000D01*
X481750000Y-34770000D02*
X483550000Y-34770000D01*
X481450000Y-42570000D02*
X481450000Y-44270000D01*
X481450000Y-44270000D02*
X483050000Y-44270000D01*
X481750000Y-43970000D02*
X481750000Y-41870000D01*
G04 #@! TO.C,D_PPS1*
D18*
X84709047Y-27249428D02*
X85470952Y-27249428D01*
X85090000Y-27630380D02*
X85090000Y-26868476D01*
G04 #@! TO.C,C3*
X257065714Y-25579285D02*
X256037142Y-25579285D01*
X256551428Y-25579285D02*
X256551428Y-23779285D01*
X256380000Y-24036428D01*
X256208571Y-24207857D01*
X256037142Y-24293571D01*
X258180000Y-23779285D02*
X258351428Y-23779285D01*
X258522857Y-23865000D01*
X258608571Y-23950714D01*
X258694285Y-24122142D01*
X258780000Y-24465000D01*
X258780000Y-24893571D01*
X258694285Y-25236428D01*
X258608571Y-25407857D01*
X258522857Y-25493571D01*
X258351428Y-25579285D01*
X258180000Y-25579285D01*
X258008571Y-25493571D01*
X257922857Y-25407857D01*
X257837142Y-25236428D01*
X257751428Y-24893571D01*
X257751428Y-24465000D01*
X257837142Y-24122142D01*
X257922857Y-23950714D01*
X258008571Y-23865000D01*
X258180000Y-23779285D01*
X259894285Y-23779285D02*
X260065714Y-23779285D01*
X260237142Y-23865000D01*
X260322857Y-23950714D01*
X260408571Y-24122142D01*
X260494285Y-24465000D01*
X260494285Y-24893571D01*
X260408571Y-25236428D01*
X260322857Y-25407857D01*
X260237142Y-25493571D01*
X260065714Y-25579285D01*
X259894285Y-25579285D01*
X259722857Y-25493571D01*
X259637142Y-25407857D01*
X259551428Y-25236428D01*
X259465714Y-24893571D01*
X259465714Y-24465000D01*
X259551428Y-24122142D01*
X259637142Y-23950714D01*
X259722857Y-23865000D01*
X259894285Y-23779285D01*
X261265714Y-24379285D02*
X261265714Y-25579285D01*
X261265714Y-24550714D02*
X261351428Y-24465000D01*
X261522857Y-24379285D01*
X261780000Y-24379285D01*
X261951428Y-24465000D01*
X262037142Y-24636428D01*
X262037142Y-25579285D01*
G04 #@! TO.C,C1*
X216870000Y-30699285D02*
X215841428Y-30699285D01*
X216355714Y-30699285D02*
X216355714Y-28899285D01*
X216184285Y-29156428D01*
X216012857Y-29327857D01*
X215841428Y-29413571D01*
X218412857Y-29499285D02*
X218412857Y-30699285D01*
X217641428Y-29499285D02*
X217641428Y-30442142D01*
X217727142Y-30613571D01*
X217898571Y-30699285D01*
X218155714Y-30699285D01*
X218327142Y-30613571D01*
X218412857Y-30527857D01*
G04 #@! TO.C,C2*
X197820000Y-26849285D02*
X196791428Y-26849285D01*
X197305714Y-26849285D02*
X197305714Y-25049285D01*
X197134285Y-25306428D01*
X196962857Y-25477857D01*
X196791428Y-25563571D01*
X199362857Y-25649285D02*
X199362857Y-26849285D01*
X198591428Y-25649285D02*
X198591428Y-26592142D01*
X198677142Y-26763571D01*
X198848571Y-26849285D01*
X199105714Y-26849285D01*
X199277142Y-26763571D01*
X199362857Y-26677857D01*
G04 #@! TO.C,U_GPS1*
X55688571Y-37644285D02*
X55688571Y-35844285D01*
X56717142Y-37644285D01*
X56717142Y-35844285D01*
X57574285Y-36701428D02*
X58174285Y-36701428D01*
X58431428Y-37644285D02*
X57574285Y-37644285D01*
X57574285Y-35844285D01*
X58431428Y-35844285D01*
X59545714Y-35844285D02*
X59888571Y-35844285D01*
X60060000Y-35930000D01*
X60231428Y-36101428D01*
X60317142Y-36444285D01*
X60317142Y-37044285D01*
X60231428Y-37387142D01*
X60060000Y-37558571D01*
X59888571Y-37644285D01*
X59545714Y-37644285D01*
X59374285Y-37558571D01*
X59202857Y-37387142D01*
X59117142Y-37044285D01*
X59117142Y-36444285D01*
X59202857Y-36101428D01*
X59374285Y-35930000D01*
X59545714Y-35844285D01*
X61088571Y-36958571D02*
X62460000Y-36958571D01*
X64088571Y-35844285D02*
X63745714Y-35844285D01*
X63574285Y-35930000D01*
X63488571Y-36015714D01*
X63317142Y-36272857D01*
X63231428Y-36615714D01*
X63231428Y-37301428D01*
X63317142Y-37472857D01*
X63402857Y-37558571D01*
X63574285Y-37644285D01*
X63917142Y-37644285D01*
X64088571Y-37558571D01*
X64174285Y-37472857D01*
X64260000Y-37301428D01*
X64260000Y-36872857D01*
X64174285Y-36701428D01*
X64088571Y-36615714D01*
X63917142Y-36530000D01*
X63574285Y-36530000D01*
X63402857Y-36615714D01*
X63317142Y-36701428D01*
X63231428Y-36872857D01*
X65031428Y-37644285D02*
X65031428Y-35844285D01*
X65631428Y-37130000D01*
X66231428Y-35844285D01*
X66231428Y-37644285D01*
G04 #@! TO.C,LDR*
X496114285Y-27912857D02*
X496114285Y-28770000D01*
X494314285Y-28770000D01*
X496114285Y-27312857D02*
X494314285Y-27312857D01*
X494314285Y-26884285D01*
X494400000Y-26627142D01*
X494571428Y-26455714D01*
X494742857Y-26370000D01*
X495085714Y-26284285D01*
X495342857Y-26284285D01*
X495685714Y-26370000D01*
X495857142Y-26455714D01*
X496028571Y-26627142D01*
X496114285Y-26884285D01*
X496114285Y-27312857D01*
X496114285Y-24484285D02*
X495257142Y-25084285D01*
X496114285Y-25512857D02*
X494314285Y-25512857D01*
X494314285Y-24827142D01*
X494400000Y-24655714D01*
X494485714Y-24570000D01*
X494657142Y-24484285D01*
X494914285Y-24484285D01*
X495085714Y-24570000D01*
X495171428Y-24655714D01*
X495257142Y-24827142D01*
X495257142Y-25512857D01*
G04 #@! TO.C,U_CONTROL1*
X260192380Y-34623333D02*
X261144761Y-34623333D01*
X260001904Y-35194761D02*
X260668571Y-33194761D01*
X261335238Y-35194761D01*
X261716190Y-33194761D02*
X262859047Y-33194761D01*
X262287619Y-35194761D02*
X262287619Y-33194761D01*
X263240000Y-33194761D02*
X264382857Y-33194761D01*
X263811428Y-35194761D02*
X263811428Y-33194761D01*
X265049523Y-35194761D02*
X265049523Y-33194761D01*
X266001904Y-35194761D02*
X266001904Y-33194761D01*
X267144761Y-35194761D01*
X267144761Y-33194761D01*
X268478095Y-34242380D02*
X268478095Y-35194761D01*
X267811428Y-33194761D02*
X268478095Y-34242380D01*
X269144761Y-33194761D01*
X269716190Y-33385238D02*
X269811428Y-33290000D01*
X270001904Y-33194761D01*
X270478095Y-33194761D01*
X270668571Y-33290000D01*
X270763809Y-33385238D01*
X270859047Y-33575714D01*
X270859047Y-33766190D01*
X270763809Y-34051904D01*
X269620952Y-35194761D01*
X270859047Y-35194761D01*
X271525714Y-33194761D02*
X272763809Y-33194761D01*
X272097142Y-33956666D01*
X272382857Y-33956666D01*
X272573333Y-34051904D01*
X272668571Y-34147142D01*
X272763809Y-34337619D01*
X272763809Y-34813809D01*
X272668571Y-35004285D01*
X272573333Y-35099523D01*
X272382857Y-35194761D01*
X271811428Y-35194761D01*
X271620952Y-35099523D01*
X271525714Y-35004285D01*
X274668571Y-35194761D02*
X273525714Y-35194761D01*
X274097142Y-35194761D02*
X274097142Y-33194761D01*
X273906666Y-33480476D01*
X273716190Y-33670952D01*
X273525714Y-33766190D01*
X275335238Y-33194761D02*
X276573333Y-33194761D01*
X275906666Y-33956666D01*
X276192380Y-33956666D01*
X276382857Y-34051904D01*
X276478095Y-34147142D01*
X276573333Y-34337619D01*
X276573333Y-34813809D01*
X276478095Y-35004285D01*
X276382857Y-35099523D01*
X276192380Y-35194761D01*
X275620952Y-35194761D01*
X275430476Y-35099523D01*
X275335238Y-35004285D01*
X277335238Y-34623333D02*
X278287619Y-34623333D01*
X277144761Y-35194761D02*
X277811428Y-33194761D01*
X278478095Y-35194761D01*
G04 #@! TO.C,UDateDrv1*
X324422285Y-35194761D02*
X324422285Y-33194761D01*
X325088952Y-34623333D01*
X325755619Y-33194761D01*
X325755619Y-35194761D01*
X326612761Y-34623333D02*
X327565142Y-34623333D01*
X326422285Y-35194761D02*
X327088952Y-33194761D01*
X327755619Y-35194761D01*
X328231809Y-33194761D02*
X329565142Y-35194761D01*
X329565142Y-33194761D02*
X328231809Y-35194761D01*
X330136571Y-33194761D02*
X331469904Y-33194761D01*
X330612761Y-35194761D01*
X332136571Y-33385238D02*
X332231809Y-33290000D01*
X332422285Y-33194761D01*
X332898476Y-33194761D01*
X333088952Y-33290000D01*
X333184190Y-33385238D01*
X333279428Y-33575714D01*
X333279428Y-33766190D01*
X333184190Y-34051904D01*
X332041333Y-35194761D01*
X333279428Y-35194761D01*
X335184190Y-35194761D02*
X334041333Y-35194761D01*
X334612761Y-35194761D02*
X334612761Y-33194761D01*
X334422285Y-33480476D01*
X334231809Y-33670952D01*
X334041333Y-33766190D01*
X336136571Y-35194761D02*
X336517523Y-35194761D01*
X336708000Y-35099523D01*
X336803238Y-35004285D01*
X336993714Y-34718571D01*
X337088952Y-34337619D01*
X337088952Y-33575714D01*
X336993714Y-33385238D01*
X336898476Y-33290000D01*
X336708000Y-33194761D01*
X336327047Y-33194761D01*
X336136571Y-33290000D01*
X336041333Y-33385238D01*
X335946095Y-33575714D01*
X335946095Y-34051904D01*
X336041333Y-34242380D01*
X336136571Y-34337619D01*
X336327047Y-34432857D01*
X336708000Y-34432857D01*
X336898476Y-34337619D01*
X336993714Y-34242380D01*
X337088952Y-34051904D01*
G04 #@! TO.C,UTimeDrv1*
X143574285Y-35194761D02*
X143574285Y-33194761D01*
X144240952Y-34623333D01*
X144907619Y-33194761D01*
X144907619Y-35194761D01*
X145764761Y-34623333D02*
X146717142Y-34623333D01*
X145574285Y-35194761D02*
X146240952Y-33194761D01*
X146907619Y-35194761D01*
X147383809Y-33194761D02*
X148717142Y-35194761D01*
X148717142Y-33194761D02*
X147383809Y-35194761D01*
X149288571Y-33194761D02*
X150621904Y-33194761D01*
X149764761Y-35194761D01*
X151288571Y-33385238D02*
X151383809Y-33290000D01*
X151574285Y-33194761D01*
X152050476Y-33194761D01*
X152240952Y-33290000D01*
X152336190Y-33385238D01*
X152431428Y-33575714D01*
X152431428Y-33766190D01*
X152336190Y-34051904D01*
X151193333Y-35194761D01*
X152431428Y-35194761D01*
X154336190Y-35194761D02*
X153193333Y-35194761D01*
X153764761Y-35194761D02*
X153764761Y-33194761D01*
X153574285Y-33480476D01*
X153383809Y-33670952D01*
X153193333Y-33766190D01*
X155288571Y-35194761D02*
X155669523Y-35194761D01*
X155860000Y-35099523D01*
X155955238Y-35004285D01*
X156145714Y-34718571D01*
X156240952Y-34337619D01*
X156240952Y-33575714D01*
X156145714Y-33385238D01*
X156050476Y-33290000D01*
X155860000Y-33194761D01*
X155479047Y-33194761D01*
X155288571Y-33290000D01*
X155193333Y-33385238D01*
X155098095Y-33575714D01*
X155098095Y-34051904D01*
X155193333Y-34242380D01*
X155288571Y-34337619D01*
X155479047Y-34432857D01*
X155860000Y-34432857D01*
X156050476Y-34337619D01*
X156145714Y-34242380D01*
X156240952Y-34051904D01*
G04 #@! TO.C,Q2*
X435303714Y-39175714D02*
X435218000Y-39090000D01*
X435132285Y-38918571D01*
X435132285Y-38490000D01*
X435218000Y-38318571D01*
X435303714Y-38232857D01*
X435475142Y-38147142D01*
X435646571Y-38147142D01*
X435903714Y-38232857D01*
X436932285Y-39261428D01*
X436932285Y-38147142D01*
X436932285Y-37375714D02*
X435132285Y-37375714D01*
X436932285Y-36347142D01*
X435132285Y-36347142D01*
X435132285Y-34632857D02*
X435132285Y-35490000D01*
X435989428Y-35575714D01*
X435903714Y-35490000D01*
X435818000Y-35318571D01*
X435818000Y-34890000D01*
X435903714Y-34718571D01*
X435989428Y-34632857D01*
X436160857Y-34547142D01*
X436589428Y-34547142D01*
X436760857Y-34632857D01*
X436846571Y-34718571D01*
X436932285Y-34890000D01*
X436932285Y-35318571D01*
X436846571Y-35490000D01*
X436760857Y-35575714D01*
X435732285Y-33004285D02*
X436932285Y-33004285D01*
X435046571Y-33432857D02*
X436332285Y-33861428D01*
X436332285Y-32747142D01*
X435132285Y-31718571D02*
X435132285Y-31547142D01*
X435218000Y-31375714D01*
X435303714Y-31290000D01*
X435475142Y-31204285D01*
X435818000Y-31118571D01*
X436246571Y-31118571D01*
X436589428Y-31204285D01*
X436760857Y-31290000D01*
X436846571Y-31375714D01*
X436932285Y-31547142D01*
X436932285Y-31718571D01*
X436846571Y-31890000D01*
X436760857Y-31975714D01*
X436589428Y-32061428D01*
X436246571Y-32147142D01*
X435818000Y-32147142D01*
X435475142Y-32061428D01*
X435303714Y-31975714D01*
X435218000Y-31890000D01*
X435132285Y-31718571D01*
X436932285Y-29404285D02*
X436932285Y-30432857D01*
X436932285Y-29918571D02*
X435132285Y-29918571D01*
X435389428Y-30090000D01*
X435560857Y-30261428D01*
X435646571Y-30432857D01*
G04 #@! TO.C,Q1*
X449273714Y-39175714D02*
X449188000Y-39090000D01*
X449102285Y-38918571D01*
X449102285Y-38490000D01*
X449188000Y-38318571D01*
X449273714Y-38232857D01*
X449445142Y-38147142D01*
X449616571Y-38147142D01*
X449873714Y-38232857D01*
X450902285Y-39261428D01*
X450902285Y-38147142D01*
X450902285Y-37375714D02*
X449102285Y-37375714D01*
X450902285Y-36347142D01*
X449102285Y-36347142D01*
X449102285Y-34632857D02*
X449102285Y-35490000D01*
X449959428Y-35575714D01*
X449873714Y-35490000D01*
X449788000Y-35318571D01*
X449788000Y-34890000D01*
X449873714Y-34718571D01*
X449959428Y-34632857D01*
X450130857Y-34547142D01*
X450559428Y-34547142D01*
X450730857Y-34632857D01*
X450816571Y-34718571D01*
X450902285Y-34890000D01*
X450902285Y-35318571D01*
X450816571Y-35490000D01*
X450730857Y-35575714D01*
X449702285Y-33004285D02*
X450902285Y-33004285D01*
X449016571Y-33432857D02*
X450302285Y-33861428D01*
X450302285Y-32747142D01*
X449102285Y-31718571D02*
X449102285Y-31547142D01*
X449188000Y-31375714D01*
X449273714Y-31290000D01*
X449445142Y-31204285D01*
X449788000Y-31118571D01*
X450216571Y-31118571D01*
X450559428Y-31204285D01*
X450730857Y-31290000D01*
X450816571Y-31375714D01*
X450902285Y-31547142D01*
X450902285Y-31718571D01*
X450816571Y-31890000D01*
X450730857Y-31975714D01*
X450559428Y-32061428D01*
X450216571Y-32147142D01*
X449788000Y-32147142D01*
X449445142Y-32061428D01*
X449273714Y-31975714D01*
X449188000Y-31890000D01*
X449102285Y-31718571D01*
X450902285Y-29404285D02*
X450902285Y-30432857D01*
X450902285Y-29918571D02*
X449102285Y-29918571D01*
X449359428Y-30090000D01*
X449530857Y-30261428D01*
X449616571Y-30432857D01*
G04 #@! TO.C,U1*
X211814857Y-24690285D02*
X211814857Y-22890285D01*
X212414857Y-24176000D01*
X213014857Y-22890285D01*
X213014857Y-24690285D01*
X214900571Y-24518857D02*
X214814857Y-24604571D01*
X214557714Y-24690285D01*
X214386285Y-24690285D01*
X214129142Y-24604571D01*
X213957714Y-24433142D01*
X213872000Y-24261714D01*
X213786285Y-23918857D01*
X213786285Y-23661714D01*
X213872000Y-23318857D01*
X213957714Y-23147428D01*
X214129142Y-22976000D01*
X214386285Y-22890285D01*
X214557714Y-22890285D01*
X214814857Y-22976000D01*
X214900571Y-23061714D01*
X215672000Y-24690285D02*
X215672000Y-22890285D01*
X216357714Y-22890285D01*
X216529142Y-22976000D01*
X216614857Y-23061714D01*
X216700571Y-23233142D01*
X216700571Y-23490285D01*
X216614857Y-23661714D01*
X216529142Y-23747428D01*
X216357714Y-23833142D01*
X215672000Y-23833142D01*
X218414857Y-24690285D02*
X217386285Y-24690285D01*
X217900571Y-24690285D02*
X217900571Y-22890285D01*
X217729142Y-23147428D01*
X217557714Y-23318857D01*
X217386285Y-23404571D01*
X219014857Y-22890285D02*
X220214857Y-22890285D01*
X219443428Y-24690285D01*
X221243428Y-22890285D02*
X221414857Y-22890285D01*
X221586285Y-22976000D01*
X221672000Y-23061714D01*
X221757714Y-23233142D01*
X221843428Y-23576000D01*
X221843428Y-24004571D01*
X221757714Y-24347428D01*
X221672000Y-24518857D01*
X221586285Y-24604571D01*
X221414857Y-24690285D01*
X221243428Y-24690285D01*
X221072000Y-24604571D01*
X220986285Y-24518857D01*
X220900571Y-24347428D01*
X220814857Y-24004571D01*
X220814857Y-23576000D01*
X220900571Y-23233142D01*
X220986285Y-23061714D01*
X221072000Y-22976000D01*
X221243428Y-22890285D01*
X222957714Y-22890285D02*
X223129142Y-22890285D01*
X223300571Y-22976000D01*
X223386285Y-23061714D01*
X223472000Y-23233142D01*
X223557714Y-23576000D01*
X223557714Y-24004571D01*
X223472000Y-24347428D01*
X223386285Y-24518857D01*
X223300571Y-24604571D01*
X223129142Y-24690285D01*
X222957714Y-24690285D01*
X222786285Y-24604571D01*
X222700571Y-24518857D01*
X222614857Y-24347428D01*
X222529142Y-24004571D01*
X222529142Y-23576000D01*
X222614857Y-23233142D01*
X222700571Y-23061714D01*
X222786285Y-22976000D01*
X222957714Y-22890285D01*
X224329142Y-24004571D02*
X225700571Y-24004571D01*
X226386285Y-22890285D02*
X227500571Y-22890285D01*
X226900571Y-23576000D01*
X227157714Y-23576000D01*
X227329142Y-23661714D01*
X227414857Y-23747428D01*
X227500571Y-23918857D01*
X227500571Y-24347428D01*
X227414857Y-24518857D01*
X227329142Y-24604571D01*
X227157714Y-24690285D01*
X226643428Y-24690285D01*
X226472000Y-24604571D01*
X226386285Y-24518857D01*
X228100571Y-22890285D02*
X229214857Y-22890285D01*
X228614857Y-23576000D01*
X228872000Y-23576000D01*
X229043428Y-23661714D01*
X229129142Y-23747428D01*
X229214857Y-23918857D01*
X229214857Y-24347428D01*
X229129142Y-24518857D01*
X229043428Y-24604571D01*
X228872000Y-24690285D01*
X228357714Y-24690285D01*
X228186285Y-24604571D01*
X228100571Y-24518857D01*
G04 #@! TO.C,R_Max_Bright1*
X462856428Y-29494285D02*
X461999285Y-29494285D01*
X461913571Y-30351428D01*
X461999285Y-30265714D01*
X462170714Y-30180000D01*
X462599285Y-30180000D01*
X462770714Y-30265714D01*
X462856428Y-30351428D01*
X462942142Y-30522857D01*
X462942142Y-30951428D01*
X462856428Y-31122857D01*
X462770714Y-31208571D01*
X462599285Y-31294285D01*
X462170714Y-31294285D01*
X461999285Y-31208571D01*
X461913571Y-31122857D01*
X464056428Y-29494285D02*
X464227857Y-29494285D01*
X464399285Y-29580000D01*
X464485000Y-29665714D01*
X464570714Y-29837142D01*
X464656428Y-30180000D01*
X464656428Y-30608571D01*
X464570714Y-30951428D01*
X464485000Y-31122857D01*
X464399285Y-31208571D01*
X464227857Y-31294285D01*
X464056428Y-31294285D01*
X463885000Y-31208571D01*
X463799285Y-31122857D01*
X463713571Y-30951428D01*
X463627857Y-30608571D01*
X463627857Y-30180000D01*
X463713571Y-29837142D01*
X463799285Y-29665714D01*
X463885000Y-29580000D01*
X464056428Y-29494285D01*
X465427857Y-31294285D02*
X465427857Y-29494285D01*
X466456428Y-31294285D02*
X465685000Y-30265714D01*
X466456428Y-29494285D02*
X465427857Y-30522857D01*
G04 #@! TO.C,R_PPS1*
X101233571Y-24585714D02*
X101319285Y-24500000D01*
X101490714Y-24414285D01*
X101919285Y-24414285D01*
X102090714Y-24500000D01*
X102176428Y-24585714D01*
X102262142Y-24757142D01*
X102262142Y-24928571D01*
X102176428Y-25185714D01*
X101147857Y-26214285D01*
X102262142Y-26214285D01*
X103376428Y-24414285D02*
X103547857Y-24414285D01*
X103719285Y-24500000D01*
X103805000Y-24585714D01*
X103890714Y-24757142D01*
X103976428Y-25100000D01*
X103976428Y-25528571D01*
X103890714Y-25871428D01*
X103805000Y-26042857D01*
X103719285Y-26128571D01*
X103547857Y-26214285D01*
X103376428Y-26214285D01*
X103205000Y-26128571D01*
X103119285Y-26042857D01*
X103033571Y-25871428D01*
X102947857Y-25528571D01*
X102947857Y-25100000D01*
X103033571Y-24757142D01*
X103119285Y-24585714D01*
X103205000Y-24500000D01*
X103376428Y-24414285D01*
X104747857Y-26214285D02*
X104747857Y-24414285D01*
X105776428Y-26214285D02*
X105005000Y-25185714D01*
X105776428Y-24414285D02*
X104747857Y-25442857D01*
G04 #@! TO.C,R_Min_Bright1*
X481228571Y-25579285D02*
X480200000Y-25579285D01*
X480714285Y-25579285D02*
X480714285Y-23779285D01*
X480542857Y-24036428D01*
X480371428Y-24207857D01*
X480200000Y-24293571D01*
X482342857Y-23779285D02*
X482514285Y-23779285D01*
X482685714Y-23865000D01*
X482771428Y-23950714D01*
X482857142Y-24122142D01*
X482942857Y-24465000D01*
X482942857Y-24893571D01*
X482857142Y-25236428D01*
X482771428Y-25407857D01*
X482685714Y-25493571D01*
X482514285Y-25579285D01*
X482342857Y-25579285D01*
X482171428Y-25493571D01*
X482085714Y-25407857D01*
X482000000Y-25236428D01*
X481914285Y-24893571D01*
X481914285Y-24465000D01*
X482000000Y-24122142D01*
X482085714Y-23950714D01*
X482171428Y-23865000D01*
X482342857Y-23779285D01*
X483714285Y-25579285D02*
X483714285Y-23779285D01*
X484314285Y-25065000D01*
X484914285Y-23779285D01*
X484914285Y-25579285D01*
G04 #@! TO.C,J1*
X493806285Y-41684285D02*
X495092000Y-41684285D01*
X495349142Y-41770000D01*
X495520571Y-41941428D01*
X495606285Y-42198571D01*
X495606285Y-42370000D01*
X495092000Y-40912857D02*
X495092000Y-40055714D01*
X495606285Y-41084285D02*
X493806285Y-40484285D01*
X495606285Y-39884285D01*
X495434857Y-38255714D02*
X495520571Y-38341428D01*
X495606285Y-38598571D01*
X495606285Y-38770000D01*
X495520571Y-39027142D01*
X495349142Y-39198571D01*
X495177714Y-39284285D01*
X494834857Y-39370000D01*
X494577714Y-39370000D01*
X494234857Y-39284285D01*
X494063428Y-39198571D01*
X493892000Y-39027142D01*
X493806285Y-38770000D01*
X493806285Y-38598571D01*
X493892000Y-38341428D01*
X493977714Y-38255714D01*
X495606285Y-37484285D02*
X493806285Y-37484285D01*
X495606285Y-36455714D02*
X494577714Y-37227142D01*
X493806285Y-36455714D02*
X494834857Y-37484285D01*
G04 #@! TD*
%LPC*%
D19*
G04 #@! TO.C,DTenSec1*
X104775000Y-49530000D03*
X102235000Y-49530000D03*
X99695000Y-49530000D03*
X97155000Y-49530000D03*
X94615000Y-49530000D03*
X94615000Y-19050000D03*
X97155000Y-19050000D03*
X99695000Y-19050000D03*
X102235000Y-19050000D03*
X104775000Y-19050000D03*
G04 #@! TD*
D20*
G04 #@! TO.C,DColonHM1*
X178900000Y-43180000D03*
D21*
X178900000Y-40640000D03*
G04 #@! TD*
D20*
G04 #@! TO.C,D_BST1*
X247015000Y-43180000D03*
D21*
X247015000Y-40640000D03*
G04 #@! TD*
D20*
G04 #@! TO.C,D_BST2*
X240665000Y-43180000D03*
D21*
X240665000Y-40640000D03*
G04 #@! TD*
D20*
G04 #@! TO.C,D_GMT2*
X247015000Y-27940000D03*
D21*
X247015000Y-25400000D03*
G04 #@! TD*
D20*
G04 #@! TO.C,DColonHM2*
X176700000Y-29210000D03*
D21*
X176700000Y-26670000D03*
G04 #@! TD*
D20*
G04 #@! TO.C,DColonMS1*
X118575000Y-43180000D03*
D21*
X118575000Y-40640000D03*
G04 #@! TD*
D20*
G04 #@! TO.C,DColonMS2*
X116375000Y-29210000D03*
D21*
X116375000Y-26670000D03*
G04 #@! TD*
D20*
G04 #@! TO.C,D_GMT1*
X240665000Y-27940000D03*
D21*
X240665000Y-25400000D03*
G04 #@! TD*
D20*
G04 #@! TO.C,D_PPS1*
X85090000Y-25400000D03*
D21*
X87630000Y-25400000D03*
G04 #@! TD*
D19*
G04 #@! TO.C,DHr1*
X201295000Y-19050000D03*
X198755000Y-19050000D03*
X196215000Y-19050000D03*
X193675000Y-19050000D03*
X191135000Y-19050000D03*
X191135000Y-49530000D03*
X193675000Y-49530000D03*
X196215000Y-49530000D03*
X198755000Y-49530000D03*
X201295000Y-49530000D03*
G04 #@! TD*
G04 #@! TO.C,DCentiSec1*
X32385000Y-19050000D03*
X29845000Y-19050000D03*
X27305000Y-19050000D03*
X24765000Y-19050000D03*
X22225000Y-19050000D03*
X22225000Y-49530000D03*
X24765000Y-49530000D03*
X27305000Y-49530000D03*
X29845000Y-49530000D03*
X32385000Y-49530000D03*
G04 #@! TD*
G04 #@! TO.C,DCentury1*
X466725000Y-19050000D03*
X464185000Y-19050000D03*
X461645000Y-19050000D03*
X459105000Y-19050000D03*
X456565000Y-19050000D03*
X456565000Y-49530000D03*
X459105000Y-49530000D03*
X461645000Y-49530000D03*
X464185000Y-49530000D03*
X466725000Y-49530000D03*
G04 #@! TD*
G04 #@! TO.C,DYear1*
X418465000Y-19050000D03*
X415925000Y-19050000D03*
X413385000Y-19050000D03*
X410845000Y-19050000D03*
X408305000Y-19050000D03*
X408305000Y-49530000D03*
X410845000Y-49530000D03*
X413385000Y-49530000D03*
X415925000Y-49530000D03*
X418465000Y-49530000D03*
G04 #@! TD*
G04 #@! TO.C,DTenSec1*
X104775000Y-19050000D03*
X102235000Y-19050000D03*
X99695000Y-19050000D03*
X97155000Y-19050000D03*
X94615000Y-19050000D03*
X94615000Y-49530000D03*
X97155000Y-49530000D03*
X99695000Y-49530000D03*
X102235000Y-49530000D03*
X104775000Y-49530000D03*
G04 #@! TD*
G04 #@! TO.C,DDay1*
X273685000Y-19050000D03*
X271145000Y-19050000D03*
X268605000Y-19050000D03*
X266065000Y-19050000D03*
X263525000Y-19050000D03*
X263525000Y-49530000D03*
X266065000Y-49530000D03*
X268605000Y-49530000D03*
X271145000Y-49530000D03*
X273685000Y-49530000D03*
G04 #@! TD*
G04 #@! TO.C,DDecade1*
X442595000Y-19050000D03*
X440055000Y-19050000D03*
X437515000Y-19050000D03*
X434975000Y-19050000D03*
X432435000Y-19050000D03*
X432435000Y-49530000D03*
X434975000Y-49530000D03*
X437515000Y-49530000D03*
X440055000Y-49530000D03*
X442595000Y-49530000D03*
G04 #@! TD*
G04 #@! TO.C,DDeciSec1*
X56515000Y-19050000D03*
X53975000Y-19050000D03*
X51435000Y-19050000D03*
X48895000Y-19050000D03*
X46355000Y-19050000D03*
X46355000Y-49530000D03*
X48895000Y-49530000D03*
X51435000Y-49530000D03*
X53975000Y-49530000D03*
X56515000Y-49530000D03*
G04 #@! TD*
G04 #@! TO.C,DHyphenMonth1*
X321945000Y-19050000D03*
X319405000Y-19050000D03*
X316865000Y-19050000D03*
X314325000Y-19050000D03*
X311785000Y-19050000D03*
X311785000Y-49530000D03*
X314325000Y-49530000D03*
X316865000Y-49530000D03*
X319405000Y-49530000D03*
X321945000Y-49530000D03*
G04 #@! TD*
G04 #@! TO.C,DHyphenYear1*
X394335000Y-19050000D03*
X391795000Y-19050000D03*
X389255000Y-19050000D03*
X386715000Y-19050000D03*
X384175000Y-19050000D03*
X384175000Y-49530000D03*
X386715000Y-49530000D03*
X389255000Y-49530000D03*
X391795000Y-49530000D03*
X394335000Y-49530000D03*
G04 #@! TD*
G04 #@! TO.C,DMin1*
X140970000Y-19050000D03*
X138430000Y-19050000D03*
X135890000Y-19050000D03*
X133350000Y-19050000D03*
X130810000Y-19050000D03*
X130810000Y-49530000D03*
X133350000Y-49530000D03*
X135890000Y-49530000D03*
X138430000Y-49530000D03*
X140970000Y-49530000D03*
G04 #@! TD*
G04 #@! TO.C,DMonth1*
X346075000Y-19050000D03*
X343535000Y-19050000D03*
X340995000Y-19050000D03*
X338455000Y-19050000D03*
X335915000Y-19050000D03*
X335915000Y-49530000D03*
X338455000Y-49530000D03*
X340995000Y-49530000D03*
X343535000Y-49530000D03*
X346075000Y-49530000D03*
G04 #@! TD*
G04 #@! TO.C,DSec1*
X80645000Y-19050000D03*
X78105000Y-19050000D03*
X75565000Y-19050000D03*
X73025000Y-19050000D03*
X70485000Y-19050000D03*
X70485000Y-49530000D03*
X73025000Y-49530000D03*
X75565000Y-49530000D03*
X78105000Y-49530000D03*
X80645000Y-49530000D03*
G04 #@! TD*
G04 #@! TO.C,DTenDay1*
X297815000Y-19050000D03*
X295275000Y-19050000D03*
X292735000Y-19050000D03*
X290195000Y-19050000D03*
X287655000Y-19050000D03*
X287655000Y-49530000D03*
X290195000Y-49530000D03*
X292735000Y-49530000D03*
X295275000Y-49530000D03*
X297815000Y-49530000D03*
G04 #@! TD*
G04 #@! TO.C,DTenHr1*
X225425000Y-19050000D03*
X222885000Y-19050000D03*
X220345000Y-19050000D03*
X217805000Y-19050000D03*
X215265000Y-19050000D03*
X215265000Y-49530000D03*
X217805000Y-49530000D03*
X220345000Y-49530000D03*
X222885000Y-49530000D03*
X225425000Y-49530000D03*
G04 #@! TD*
G04 #@! TO.C,DTenMin1*
X165100000Y-19050000D03*
X162560000Y-19050000D03*
X160020000Y-19050000D03*
X157480000Y-19050000D03*
X154940000Y-19050000D03*
X154940000Y-49530000D03*
X157480000Y-49530000D03*
X160020000Y-49530000D03*
X162560000Y-49530000D03*
X165100000Y-49530000D03*
G04 #@! TD*
G04 #@! TO.C,DTenMonth1*
X370205000Y-19050000D03*
X367665000Y-19050000D03*
X365125000Y-19050000D03*
X362585000Y-19050000D03*
X360045000Y-19050000D03*
X360045000Y-49530000D03*
X362585000Y-49530000D03*
X365125000Y-49530000D03*
X367665000Y-49530000D03*
X370205000Y-49530000D03*
G04 #@! TD*
G04 #@! TO.C,DMill1*
X490855000Y-19050000D03*
X488315000Y-19050000D03*
X485775000Y-19050000D03*
X483235000Y-19050000D03*
X480695000Y-19050000D03*
X480695000Y-49530000D03*
X483235000Y-49530000D03*
X485775000Y-49530000D03*
X488315000Y-49530000D03*
X490855000Y-49530000D03*
G04 #@! TD*
D22*
G04 #@! TO.C,C3*
X257850000Y-27813000D03*
X260350000Y-27813000D03*
G04 #@! TD*
G04 #@! TO.C,C1*
X212852000Y-27385000D03*
X212852000Y-32385000D03*
G04 #@! TD*
G04 #@! TO.C,C2*
X202565000Y-23829000D03*
X202565000Y-28829000D03*
G04 #@! TD*
D23*
G04 #@! TO.C,JP1*
X287528000Y-28448000D03*
D24*
X290068000Y-28448000D03*
G04 #@! TD*
D23*
G04 #@! TO.C,U_GPS1*
X72390000Y-29210000D03*
D24*
X72390000Y-31750000D03*
X72390000Y-34290000D03*
X72390000Y-36830000D03*
X72390000Y-39370000D03*
G04 #@! TD*
D22*
G04 #@! TO.C,LDR*
X491490000Y-27940000D03*
X491490000Y-25400000D03*
G04 #@! TD*
D25*
G04 #@! TO.C,U_CONTROL1*
X257810000Y-38100000D03*
D26*
X280670000Y-30480000D03*
X260350000Y-38100000D03*
X278130000Y-30480000D03*
X262890000Y-38100000D03*
X275590000Y-30480000D03*
X265430000Y-38100000D03*
X273050000Y-30480000D03*
X267970000Y-38100000D03*
X270510000Y-30480000D03*
X270510000Y-38100000D03*
X267970000Y-30480000D03*
X273050000Y-38100000D03*
X265430000Y-30480000D03*
X275590000Y-38100000D03*
X262890000Y-30480000D03*
X278130000Y-38100000D03*
X260350000Y-30480000D03*
X280670000Y-38100000D03*
X257810000Y-30480000D03*
G04 #@! TD*
G04 #@! TO.C,UDateDrv1*
X316865000Y-30480000D03*
X344805000Y-38100000D03*
X319405000Y-30480000D03*
X342265000Y-38100000D03*
X321945000Y-30480000D03*
X339725000Y-38100000D03*
X324485000Y-30480000D03*
X337185000Y-38100000D03*
X327025000Y-30480000D03*
X334645000Y-38100000D03*
X329565000Y-30480000D03*
X332105000Y-38100000D03*
X332105000Y-30480000D03*
X329565000Y-38100000D03*
X334645000Y-30480000D03*
X327025000Y-38100000D03*
X337185000Y-30480000D03*
X324485000Y-38100000D03*
X339725000Y-30480000D03*
X321945000Y-38100000D03*
X342265000Y-30480000D03*
X319405000Y-38100000D03*
X344805000Y-30480000D03*
D25*
X316865000Y-38100000D03*
G04 #@! TD*
G04 #@! TO.C,UTimeDrv1*
X136525000Y-38100000D03*
D26*
X164465000Y-30480000D03*
X139065000Y-38100000D03*
X161925000Y-30480000D03*
X141605000Y-38100000D03*
X159385000Y-30480000D03*
X144145000Y-38100000D03*
X156845000Y-30480000D03*
X146685000Y-38100000D03*
X154305000Y-30480000D03*
X149225000Y-38100000D03*
X151765000Y-30480000D03*
X151765000Y-38100000D03*
X149225000Y-30480000D03*
X154305000Y-38100000D03*
X146685000Y-30480000D03*
X156845000Y-38100000D03*
X144145000Y-30480000D03*
X159385000Y-38100000D03*
X141605000Y-30480000D03*
X161925000Y-38100000D03*
X139065000Y-30480000D03*
X164465000Y-38100000D03*
X136525000Y-30480000D03*
G04 #@! TD*
D27*
G04 #@! TO.C,Q2*
X440690000Y-34290000D03*
X440690000Y-33020000D03*
D28*
X440690000Y-35560000D03*
G04 #@! TD*
G04 #@! TO.C,Q1*
X445770000Y-35560000D03*
D27*
X445770000Y-33020000D03*
X445770000Y-34290000D03*
G04 #@! TD*
G04 #@! TO.C,U1*
X207645000Y-26289000D03*
X207645000Y-27559000D03*
D28*
X207645000Y-25019000D03*
G04 #@! TD*
D29*
G04 #@! TO.C,R_Max_Bright1*
X473710000Y-32940000D03*
X468710000Y-30440000D03*
X473710000Y-27940000D03*
G04 #@! TD*
D26*
G04 #@! TO.C,R_PPS1*
X99060000Y-25400000D03*
D22*
X91440000Y-25400000D03*
G04 #@! TD*
D26*
G04 #@! TO.C,R_Min_Bright1*
X478790000Y-27940000D03*
D22*
X486410000Y-27940000D03*
G04 #@! TD*
D30*
G04 #@! TO.C,J1*
X485750000Y-34570000D03*
X488950000Y-39370000D03*
X482750000Y-39370000D03*
G04 #@! TD*
M02*
